<svg height="666.667" viewBox="0 0 500 500" width="666.667" xmlns="http://www.w3.org/2000/svg"><path d="m73.6 33.6-2.6 2.7v427.4l2.6 2.7 2.7 2.6h87.4l2.7-2.6 2.6-2.7v-123.8c0-102.6.2-123.9 1.3-123.9.8 0 41.1 56.1 89.7 124.7 48.5 68.7 89.2 125.6 90.4 126.5 1.9 1.6 5.5 1.8 37.7 1.8h35.6l2.7-2.6 2.6-2.7v-427.4l-2.6-2.7-2.7-2.6h-87.4l-2.7 2.6-2.6 2.7v123.8c0 102.6-.2 123.9-1.3 123.9-.8 0-41.1-56.1-89.7-124.8-48.5-68.6-89.2-125.5-90.4-126.4-1.9-1.6-5.5-1.8-37.7-1.8h-35.6zm158.9 147.1c51.2 72.3 94.4 133.1 96.1 134.9 2.9 3.1 3.6 3.4 9.1 3.4 5.2 0 6.4-.4 8.7-2.6l2.6-2.7v-264.7h62v402l-25.2-.1h-25.3l-93-131.6c-51.1-72.3-94.4-133.1-96.1-134.9-2.9-3.1-3.6-3.4-9.1-3.4-5.2 0-6.4.4-8.7 2.6l-2.6 2.7v264.7h-62v-402l25.3.1h25.2z"/></svg>