<svg fill="none" height="24" stroke-width="1.5" viewBox="0 0 24 24" width="24" xmlns="http://www.w3.org/2000/svg"><g stroke="#000" stroke-linecap="round" stroke-linejoin="round" stroke-width="1.5"><path d="m12 22c5.523 0 10-4.477 10-10s-4.477-10-10-10-10 4.477-10 10 4.477 10 10 10z"/><path d="m14.333 19v-1.863c.025-.31-.018-.62-.126-.913a2.18 2.18 0 0 0 -.5-.781c2.093-.227 4.293-1 4.293-4.544 0-.906-.358-1.778-1-2.434a3.211 3.211 0 0 0 -.06-2.448s-.787-.227-2.607.961a9.152 9.152 0 0 0 -4.666 0c-1.82-1.188-2.607-.96-2.607-.96a3.211 3.211 0 0 0 -.06 2.446 3.482 3.482 0 0 0 -1 2.453c0 3.519 2.2 4.291 4.293 4.544a2.18 2.18 0 0 0 -.496.773 2.134 2.134 0 0 0 -.13.902v1.864m0-1.298c-2 .631-3.667 0-4.667-1.948"/></g></svg>