<svg height="218.50101" viewBox="0 0 163.91701 57.811725" width="619.52887" xmlns="http://www.w3.org/2000/svg"><g transform="translate(-25.639509 -107.52165)"><g><g><path d="m38.858402 111.94308c-1.649919 0-2.992154 1.3423-2.992154 2.99237 0 1.65015 1.342235 2.99261 2.992154 2.99261 1.650209 0 2.992819-1.34246 2.992819-2.99261 0-1.65007-1.34261-2.99237-2.992819-2.99237z" fill="#092f4b" stroke-width=".133641"/><path d="m38.858518 118.62587c-2.037887 0-3.689954-1.6522-3.689954-3.69022s1.652067-3.69009 3.689954-3.69009c2.038288 0 3.690354 1.65207 3.690354 3.69009 0 .33062-.0441.65056-.125489.95539l2.807123 2.83546c.661522-1.10935 1.041863-2.40553 1.041863-3.79085 0-4.09449-3.3191-7.41372-7.413851-7.41372-4.09435 0-7.413584 3.31923-7.413584 7.41372 0 4.09448 3.319234 7.41358 7.413584 7.41358 1.534997 0 2.960943-.4664 4.144064-1.26531l-2.717049-2.74418c-.43901.18403-.920918.28613-1.427015.28613z" fill="#008a2e" stroke-width=".133641"/><g fill="#092f4b" stroke-width=".133641"><path d="m40.584086 118.19755 2.647423 2.64208.371387-.39652-2.547592-2.54238c-.148876.11026-.306439.20942-.471218.29682z"/><path d="m41.165691 117.81467 2.532224 2.52688.371387-.39638-2.505629-2.50069c-.123351.13311-.256323.25673-.397982.37019z"/><path d="m41.655885 117.34078 2.508302 2.50309.371521-.39638-2.553205-2.54813c-.09809.15556-.207411.30297-.326618.44142z"/><path d="m42.303775 116.25829c-.06936.18068-.152618.35401-.248037.51959l2.574321 2.56925.371521-.39651z"/></g><g fill="#008a2e" stroke-width=".133639"><path d="m116.16098 54.335796h.539903v.539903h-.539903z" transform="matrix(.70710678 .70710678 -.70710678 .70710678 0 0)"/><path d="m116.81463 54.354107h.539903v.539903h-.539903z" transform="matrix(.70720678 .70700677 -.70700677 .70720678 0 0)"/><path d="m118.16178 54.317238h.539903v.539903h-.539903z" transform="matrix(.70700677 .70720678 -.70720678 .70700677 0 0)"/><path d="m116.16438 53.648323h.539903v.539903h-.539903z" transform="matrix(.70710678 .70710678 -.70710678 .70710678 0 0)"/><path d="m117.47512 53.629963h.539903v.539903h-.539903z" transform="matrix(.70700677 .70720678 -.70720678 .70700677 0 0)"/><path d="m118.80943 53.648426h.540037v.539903h-.540037z" transform="matrix(.70710678 .70710678 -.70710678 .70710678 0 0)"/><path d="m116.17371 52.959053h.539903v.539903h-.539903z" transform="matrix(.70700677 .70720678 -.70720678 .70700677 0 0)"/><path d="m116.15794 52.291042h.539903v.539903h-.539903z" transform="matrix(.70710678 .70710678 -.70710678 .70710678 0 0)"/><path d="m116.83723 52.977356h.539903v.539903h-.539903z" transform="matrix(.70710678 .70710678 -.70710678 .70710678 0 0)"/><path d="m118.13958 52.977272h.539903v.539903h-.539903z" transform="matrix(.70710678 .70710678 -.70710678 .70710678 0 0)"/><path d="m116.83885 52.272621h.539903v.539903h-.539903z" transform="matrix(.70700677 .70720678 -.70720678 .70700677 0 0)"/><path d="m117.48959 52.291046h.539903v.539903h-.539903z" transform="matrix(.70710678 .70710678 -.70710678 .70710678 0 0)"/></g></g><path d="m38.858699 107.5222c-4.094346 0-7.413954 3.31885-7.413954 7.41356 0 1.23372.301868 2.39681.835056 3.42016.357118-.29766.739367-.55782 1.122306-.81681.664513-.41589 1.331438-.83146 2.026148-1.24452-.166831-.42066-.259739-.8789-.259739-1.35883 0-2.03815 1.652299-3.69034 3.690183-3.69034 1.39018 0 2.60011.76875 3.229377 1.90413.633455-.22517 1.301468-.44689 2.019266-.66376.503554-.15204 1.034487-.30157 1.576655-.44908-1.128523-2.65392-3.759253-4.51451-6.825298-4.51451zm-.000415 4.42072c-1.649919 0-2.991879 1.34231-2.991879 2.99237 0 .35091.06091.68772.17235 1.00096 1.52077-.87475 3.218259-1.73259 5.38256-2.54478-.524669-.86755-1.477357-1.44855-2.563031-1.44855z" fill="#fff" opacity=".08"/></g><g><path d="m188.47573 108.64326c.59876 0 1.08074.48196 1.08074 1.08065v7.33504c0 .59877-.48198 1.08073-1.08074 1.08073h-.41035v.42129c0 .43068 0 .43929-.0662.52228-.0363.0462-.10229.0948-.14678.10749-.0446.0125-.10973.0149-.14486.008-.0352-.011-.45819-.2557-.94018-.54444l-.85168-.51038h-4.77497c-.5987 0-1.08068-.48204-1.08068-1.08065v-7.33504c0-.59877.48198-1.08073 1.08068-1.08073z" fill="#092f4b" stroke-width=".026504"/><text fill="#fff" font-family="sans-serif" font-size="47.5465" letter-spacing="0" transform="matrix(.14136735 0 0 .14136735 -40.530025 -131.3473)" word-spacing="0"><tspan x="1607.4227" y="1734.0843"><tspan font-family="Almarai" font-weight="bold">ع</tspan></tspan></text></g><g><path d="m173.05241 107.52189c-.59877 0-1.08074.48204-1.08074 1.08065v7.33504c0 .59877.48197 1.08073 1.08074 1.08073h.41034v.42121c0 .43076 0 .43937.0661.52236.0363.0462.1023.0947.14679.10757.0446.0125.10974.0149.14486.008.0352-.011.4582-.25578.94017-.54467l.8517-.5103h4.77496c.59871 0 1.08069-.48197 1.08069-1.08074v-7.335c0-.59862-.48198-1.08066-1.08069-1.08066z" fill="#008a2e" stroke-width=".026504"/><text fill="#fff" font-family="sans-serif" font-size="40" letter-spacing="0" transform="matrix(.16924881 0 0 .16924881 -92.830135 -177.54357)" word-spacing="0"><tspan x="1579.8457" y="1726.584"><tspan font-family="Quicksand" font-weight="bold">A</tspan></tspan></text></g></g><path d="m147.41291 0c-.59875 0-1.08064.48243-1.08064 1.08105v1.62635c2.10883.29617 5.85522.58209 9.4045 1.38043 3.21482.7231 6.25624 1.86365 8.18023 2.64812v-4.53377c0-.59869-.48188-1.08073-1.08064-1.08073l-7.00774.008v-.0407c0-.59838-.48194-1.08042-1.08064-1.08042z" fill="#fbfbfb" opacity=".08"/><g stroke-width="1.90268" transform="matrix(.7829133 0 0 .7829133 -135.24277 -2153.509)"><path d="m229.87693 2756.4369c-1.36998 0-2.51129.3048-3.42458.9136-.91329.609-1.59808 1.3197-2.05467 2.1312-.4059.812-.60926 1.4711-.60926 1.9788.10144.051.40632.1773.91363.3802.50742.2029 1.06551.7102 1.67434 1.5219.60881.8117.9131 2.2326.9131 4.2622v26.866c.0505 3.5013.91308 6.4186 2.58744 8.7524 1.67437 2.2834 4.11004 3.4248 7.30655 3.4248h7.07811 7.83931c1.21767 0 2.40959-.1519 3.57653-.4564 1.21777-.3043 2.18147-.6596 2.89182-1.0655 1.97882 1.1163 4.33885 1.6743 7.07864 1.6743 3.55166 0 6.46924-.8377 8.75244-2.5119 2.33389 1.5729 4.94615 2.3595 7.83828 2.3595h2.13114 24.27809c3.75459 0 6.72311-1.0652 8.90489-3.1962 2.18165-2.1312 3.6789-4.5918 4.49067-7.3826.81177-2.8411 1.21751-5.4544 1.21751-7.8391 0-3.7039-.93906-6.926-2.81636-9.6658-1.82661-2.7397-4.13509-4.8201-6.92568-6.241-2.73989-1.4713-5.4541-2.2063-8.14319-2.2063l-3.57703.076-5.25137.1519c-2.38469 0-4.31324-.3043-5.78464-.9131-1.47132-.6596-2.38472-1.3703-2.73989-2.1312-.50742-.051-.96407.1778-1.36994.6853-.3552.4566-.53229 1.167-.53229 2.1312 0 2.1817.60913 4.0587 1.82677 5.6316 1.26849 1.5219 3.09454 2.2831 5.47925 2.2831h7.45847c3.39953 0 6.31704.7615 8.75245 2.2834 2.48613 1.5221 3.72896 4.2362 3.72896 8.1433 0 1.8773-.3042 3.6026-.91313 5.1753-.55812 1.5224-1.26855 2.74-2.13114 3.6531-.86257.8625-1.67392 1.2941-2.43499 1.2941h-23.51741-5.86012c1.01473-2.6387 1.52238-5.9365 1.52238-9.8941 0-5.2258-.83762-9.2089-2.51198-11.9486-1.67436-2.74-3.72856-4.5162-6.16397-5.3279-2.38472-.8626-5.15046-1.2933-8.29614-1.2933-3.55166 0-6.34204.4818-8.37158 1.4457-1.97871.9638-3.47586 2.8159-4.49067 5.5557-1.01473 2.74-1.52188 6.7233-1.52188 11.9494v9.5131h-4.4142-3.80545c-1.06553 0-1.87738-.4064-2.43552-1.2182-.55811-.812-.83714-2.0293-.83714-3.6531v-28.1593c0-2.6384-.68479-4.8202-2.05467-6.5455-1.31919-1.7251-3.0702-2.5879-5.25188-2.5879zm114.31241 14.0803c-1.47119 0-2.66282.431-3.576 1.2935-.91332.8626-1.36996 2.0045-1.36996 3.4251v37.2922c0 1.6237-.60907 2.7908-1.82676 3.5012-1.16695.7612-2.56212 1.1409-4.18579 1.1409-1.52212 0-3.06967-.3043-4.64259-.9131-1.57284-.6088-2.8162-1.2935-3.72949-2.0547-.0505.3045-.076.7863-.076 1.4459 0 2.385.88805 4.4403 2.66393 6.1651 1.72506 1.7759 4.46403 2.6638 8.21862 2.6638 5.17531 0 8.70191-1.4716 10.57921-4.4146 1.9281-2.8921 2.89232-6.0121 2.89232-9.3607v-3.6531h7.30602 7.15459c3.29793 0 6.06264-.9898 8.29512-2.9686 2.28319-2.0296 3.9575-4.6934 5.02295-7.9915 1.11623-3.3488 1.67431-6.9508 1.67431-10.8069 0-4.5664-.76094-8.1687-2.28306-10.8071-1.52215-2.6385-3.72928-3.9574-6.62131-3.9574-1.31918 0-2.46059.2532-3.4246.7607-.91329.5072-1.59856 1.1414-2.05518 1.9026-.4567.7104-.68469 1.37-.68469 1.9788 1.21764.9642 2.18146 1.8775 2.89179 2.7398.71035.812 1.26844 1.9791 1.67434 3.5012.40587 1.4713.60925 3.4756.60925 6.0124 0 3.7547-.50757 6.6212-1.52238 8.6-1.01473 1.9788-2.25806 2.9684-3.72949 2.9684h-7.00164-7.30602v-23.5935c0-1.5221-.45665-2.7143-1.36993-3.5769-.91319-.8625-2.10588-1.2935-3.57704-1.2935zm-133.34068.2471c-1.68371 0-2.92166.4953-3.71401 1.4857-.74277.9408-1.11414 2.0798-1.11414 3.4168v29.4891c0 2.9713-.86667 5.5462-2.59985 7.7251-1.68364 2.1791-4.50611 3.2681-8.46769 3.2681-3.76352 0-6.78458-1.089-9.06249-3.2681-2.2779-2.1291-3.41685-5.1996-3.41685-9.2107 0-2.9713.52022-5.5711 1.56011-7.7997 1.08945-2.2778 2.30251-3.8872 3.63959-4.8281-.49522-.495-1.28768-.9406-2.37713-1.3369-1.03991-.4456-2.20323-.6686-3.49075-.6686-3.31782 0-5.67036 1.3869-7.05694 4.16-1.33702 2.7731-2.00554 6.0659-2.00554 9.879 0 6.6853 1.90651 11.8354 5.71955 15.4501 3.81302 3.615 9.33445 5.4224 16.56434 5.4224 13.76649 0 20.64991-6.6853 20.64991-20.0554v-28.0776c0-1.3864-.39626-2.5752-1.18856-3.5655-.74282-.9904-1.9559-1.4857-3.63955-1.4857zm53.20035 7.4398c2.28319 0 3.85662.8372 4.71911 2.5115.91329 1.6742 1.36993 4.1857 1.36993 7.5345 0 2.689-.33007 5.0993-.98959 7.2305-.60894 2.0802-1.82642 3.1197-3.65303 3.1197h-6.92618v-15.9062c0-1.5727.53343-2.7141 1.59888-3.4245 1.11622-.7104 2.40945-1.0655 3.88088-1.0655zm41.7835 34.5525c-1.57284 0-2.91761.5326-4.03386 1.5983-1.06553 1.0655-1.59835 2.3593-1.59835 3.8812 0 1.4716.53282 2.74 1.59835 3.8055 1.11625 1.1163 2.46102 1.6743 4.03386 1.6743 1.47143 0 2.73942-.558 3.80495-1.6743 1.11625-1.0655 1.67431-2.3339 1.67431-3.8055 0-1.5219-.55806-2.8157-1.67431-3.8812-1.06553-1.0657-2.33352-1.5983-3.80495-1.5983z" fill="#0d0d0d"/><path d="m229.87693 2756.4369c-1.36998 0-2.51129.3048-3.42458.9136-.91329.609-1.59808 1.3197-2.05467 2.1312-.4059.812-.60926 1.4711-.60926 1.9788.10144.051.40632.1773.91363.3802.50742.2029 1.06551.7102 1.67434 1.5219.60881.8117.9131 2.2326.9131 4.2622v22.961c3.22819-.9231 6.52468-1.8296 9.89399-2.7053v-22.3102c0-2.6384-.68479-4.8202-2.05467-6.5455-1.31919-1.7251-3.0702-2.5879-5.25188-2.5879zm58.14582 10.8836c-.50742-.051-.96407.1778-1.36994.6853-.3552.4566-.53229 1.167-.53229 2.1312 0 2.1817.60913 4.0587 1.82677 5.6316 1.26849 1.5219 3.09454 2.2831 5.47925 2.2831h7.45847c1.06405 0 2.06381.1014 3.0334.2506 5.63827-.03 11.19915.1318 16.62433.4538-.0368-.055-.0607-.117-.0982-.1718-1.82661-2.7397-4.13509-4.8201-6.92568-6.241-2.73989-1.4713-5.4541-2.2063-8.14319-2.2063l-3.57703.076-5.25137.1519c-2.38469 0-4.31324-.3043-5.78464-.9131-1.47132-.6596-2.38472-1.3703-2.73989-2.1312zm-24.96283 2.8165c-3.55166 0-6.34204.4818-8.37158 1.4457-1.97871.9638-3.47586 2.8159-4.49067 5.5557-.73366 1.9812-1.19263 4.6342-1.39578 7.9147 3.22101-.7278 6.48097-1.4142 9.76736-2.0529v-.3061c0-1.5727.53343-2.7141 1.59888-3.4245 1.11622-.7104 2.40945-1.0655 3.88088-1.0655 2.28319 0 3.85662.8372 4.71911 2.5115.0735.1346.12567.309.19325.4548 3.28247-.5154 6.5778-.9724 9.87589-1.3581-.36415-1.1295-.78216-2.1786-1.31723-3.0541-1.67436-2.74-3.72856-4.5162-6.16397-5.3279-2.38472-.8626-5.15046-1.2933-8.29614-1.2933zm81.12942.3802c-1.47119 0-2.66282.431-3.576 1.2935-.91332.8626-1.36996 2.0045-1.36996 3.4251v5.2623c3.39595.4281 6.69888.9033 9.89346 1.4158v-6.5263c0-1.5221-.45665-2.7143-1.36993-3.5769-.91319-.8625-2.10588-1.2935-3.57704-1.2935zm25.49612 0c-1.31918 0-2.46059.2532-3.4246.7607-.91329.5072-1.59856 1.1414-2.05518 1.9026-.4567.7104-.68469 1.37-.68469 1.9788 1.21764.9642 2.18146 1.8775 2.89179 2.7398.71035.812 1.26844 1.9791 1.67434 3.5012.30543 1.1073.4581 2.6162.53379 4.3267 3.57947.8319 6.86851 1.673 9.85264 2.5009.075-.9658.11628-1.9466.11628-2.9462 0-4.5664-.76094-8.1687-2.28306-10.8071-1.52215-2.6385-3.72928-3.9574-6.62131-3.9574zm-158.8368.2471c-1.68371 0-2.92166.4953-3.71401 1.4857-.74277.9408-1.11414 2.0798-1.11414 3.4168v21.5326c3.09468-1.034 6.29815-2.0812 9.65626-3.1343v-18.2496c0-1.3864-.39626-2.5752-1.18856-3.5655-.74282-.9904-1.9559-1.4857-3.63955-1.4857zm-29.04321 18.2727c-3.31782 0-5.67036 1.3869-7.05694 4.16-1.33699 2.7731-2.00554 6.0659-2.00554 9.879 0 2.1053.21145 4.0405.58962 5.8415 2.51984-.9652 5.53755-2.0862 9.2351-3.4391-.056-.5826-.0941-1.1795-.0941-1.8081 0-2.9713.52022-5.5711 1.56011-7.7997 1.08945-2.2778 2.30251-3.8872 3.63959-4.8281-.49522-.495-1.28768-.9406-2.37713-1.3369-1.03991-.4456-2.20323-.6686-3.49075-.6686z" fill="#fefefe" opacity=".08"/></g></svg>