<svg viewBox="0 0 305 87" xmlns="http://www.w3.org/2000/svg"><g fill="#fff" fill-rule="evenodd"><path d="m254.712 77.153h5.837v9.847h-17.617v-60.746h-5.293v-9.854h34.9c7.02 0 10.481 3.543 10.481 10.732v29.22c0 6.968-3.567 10.511-10.8 10.511h-10.7v-9.847h6.48c2.376 0 3.568-1.222 3.568-3.766v-23.124c0-2.552-1.192-3.872-3.461-3.872h-13.4zm-22.245-10.291h-32.413c-7.028 0-10.588-3.543-10.588-10.625v-31.092h-5.187v-8.745h16.852v36.407c0 2.765 1.3 4.209 3.782 4.209h10.48v-40.616h11.673v40.616h5.4zm-55.9 0h-36.198v-32.641c0-11.841 6.264-17.822 18.907-17.822h17.394v16.936h-10.045v-7.081h-8.212c-4.324 0-6.486 2.429-6.486 7.187v23.575h24.636zm-45.063 0h-12.868c-5.722 0-8.533-3.1-8.533-9.182v-31.426h-6.486v-9.854h6.483v-15.494h11.558v15.494h9.724v9.855h-9.724v27.216c0 2.544 1.405 3.766 4.11 3.651h3.132a19.654 19.654 0 0 0 2.6-.106zm-34.388-19.362h-26.042v6.532c0 1.986.97 2.987 2.811 2.987h21.932v9.846h-26.469c-6.486 0-9.725-3.208-9.725-9.74v-29.772c0-7.3 3.782-10.954 11.237-10.954h15.775c6.914 0 10.374 3.43 10.481 10.4zm-26.042-9.74h14.7v-8.298c0-2.109-.978-3.208-2.918-3.208h-8.65c-2.055 0-3.132 1.214-3.132 3.651zm-38.127 29.1v-37.734c0-1.88-1.085-2.872-3.247-2.872h-12.314v40.608h-11.672v-40.608h-5.401v-9.854h34.681c6.379 0 9.618 3.323 9.618 10.076v30.54h5.4v9.846z"/><path d="m295.6 16.007a7.05 7.05 0 0 1 -7.211-6.838 7.29 7.29 0 0 1 7.211-7.258c3.927 0 7.7 3.278 7.7 7.258 0 3.8-3.774 6.838-7.7 6.838m-8.6-6.838a8.4 8.4 0 0 0 8.6 8.228c4.928 0 9.091-3.706 9.091-8.228a8.952 8.952 0 0 0 -9.091-8.639 8.608 8.608 0 0 0 -8.6 8.639m6.577-.535v-3.055h2.215c1.139 0 2.323.161 2.323 1.481 0 1.506-1.307 1.574-2.788 1.574zm-1.395 5.366h1.39v-3.975h1.75l2.933 3.975h1.436l-2.841-4.09a2.6 2.6 0 0 0 2.65-2.781c0-1.986-1.1-2.941-3.414-2.941h-3.9z"/></g></svg>