<svg enable-background="new 0 0 512 512" viewBox="0 0 512 512" xmlns="http://www.w3.org/2000/svg"><path d="m509.778 250.021c-4.626-5.349-114.852-131.164-253.778-131.164s-249.152 125.815-253.778 131.173c-2.962 3.429-2.962 8.521 0 11.95 4.626 5.348 114.852 131.163 253.778 131.163s249.152-125.815 253.778-131.173c2.963-3.428 2.963-8.521 0-11.949zm-488.21 5.979c16.64-17.481 69.477-69.019 138.862-98.158-25.6 24.923-41.573 59.694-41.573 98.158s15.973 73.234 41.573 98.158c-69.385-29.138-122.222-80.677-138.862-98.158zm234.432 118.857c-65.536 0-118.857-53.321-118.857-118.857s53.321-118.857 118.857-118.857 118.857 53.321 118.857 118.857-53.321 118.857-118.857 118.857zm95.579-20.699c25.591-24.923 41.563-59.694 41.563-98.158s-15.973-73.234-41.573-98.158c69.385 29.138 122.222 80.677 138.862 98.158-16.639 17.481-69.466 69.02-138.852 98.158z"/><path d="m182.857 256h18.286c0-30.254 24.603-54.857 54.857-54.857v-18.286c-40.329 0-73.143 32.814-73.143 73.143z"/><path d="m310.857 256c0 30.254-24.603 54.857-54.857 54.857v18.286c40.329 0 73.143-32.814 73.143-73.143z"/><path d="m104.923 84.489c-4.855 4.288-9.563 8.805-14.007 13.449l13.202 12.645c4.087-4.27 8.43-8.439 12.901-12.379z"/><path d="m56.347 144.677c-3.136 5.632-6.08 11.474-8.731 17.353l16.658 7.525c2.45-5.413 5.147-10.779 8.037-15.963z"/><path d="m407.232 84.626-12.105 13.705c4.462 3.941 8.795 8.101 12.882 12.389l13.221-12.635c-4.444-4.654-9.161-9.18-13.998-13.459z"/><path d="m246.418 27.63c-6.464.265-12.974.814-19.355 1.618l2.304 18.149c5.87-.75 11.858-1.253 17.81-1.499z"/><path d="m341.458 43.95-6.839 16.951c5.504 2.222 10.971 4.709 16.265 7.387l8.256-16.311c-5.741-2.907-11.693-5.614-17.682-8.027z"/><path d="m207.909 32.503c-6.29 1.344-12.608 2.99-18.798 4.873l5.33 17.49c5.696-1.737 11.52-3.246 17.307-4.489z"/><path d="m78.08 112.521c-4.078 5.047-7.963 10.304-11.547 15.625l15.159 10.231c3.301-4.882 6.875-9.719 10.624-14.373z"/><path d="m304.338 32.558-3.849 17.874c5.797 1.243 11.621 2.761 17.289 4.507l5.367-17.481c-6.162-1.892-12.489-3.547-18.807-4.9z"/><path d="m265.829 27.639-.777 18.267c5.97.247 11.968.759 17.819 1.509l2.313-18.139c-6.363-.805-12.873-1.363-19.355-1.637z"/><path d="m455.753 144.878-15.973 8.896c2.898 5.211 5.605 10.587 8.027 15.973l16.677-7.515c-2.642-5.862-5.567-11.695-8.731-17.354z"/><path d="m136.11 61.367c-5.504 3.401-10.917 7.067-16.082 10.898l10.898 14.693c4.754-3.529 9.719-6.903 14.793-10.03z"/><path d="m434.03 112.686-14.235 11.474c3.73 4.626 7.296 9.463 10.615 14.382l15.168-10.231c-3.612-5.349-7.489-10.606-11.548-15.625z"/><path d="m376.073 61.486-9.627 15.543c5.056 3.136 10.03 6.51 14.793 10.039l10.898-14.674c-5.166-3.841-10.578-7.516-16.064-10.908z"/><path d="m170.761 43.858c-5.943 2.395-11.904 5.093-17.701 8.009l8.238 16.329c5.33-2.688 10.816-5.166 16.293-7.378z"/><path d="m282.633 464.603c-5.87.75-11.858 1.253-17.81 1.499l.759 18.267c6.464-.265 12.974-.814 19.355-1.618z"/><path d="m229.129 464.585-2.313 18.139c6.363.805 12.873 1.362 19.355 1.637l.777-18.267c-5.97-.247-11.967-.759-17.819-1.509z"/><path d="m194.222 457.061-5.367 17.481c6.162 1.893 12.489 3.547 18.807 4.901l3.849-17.874c-5.806-1.254-11.621-2.771-17.289-4.508z"/><path d="m317.559 457.134c-5.696 1.737-11.52 3.246-17.307 4.489l3.84 17.874c6.29-1.344 12.608-2.99 18.798-4.873z"/><path d="m103.991 401.28-13.221 12.635c4.443 4.654 9.161 9.179 13.998 13.458l12.105-13.705c-4.462-3.94-8.795-8.1-12.882-12.388z"/><path d="m64.192 342.254-16.677 7.515c2.642 5.861 5.568 11.694 8.731 17.353l15.973-8.896c-2.898-5.211-5.604-10.587-8.027-15.972z"/><path d="m81.582 373.458-15.159 10.231c3.611 5.349 7.488 10.606 11.547 15.625l14.226-11.474c-3.73-4.626-7.295-9.463-10.614-14.382z"/><path d="m130.77 424.933-10.898 14.674c5.157 3.84 10.569 7.515 16.055 10.907l9.627-15.543c-5.056-3.126-10.029-6.5-14.784-10.038z"/><path d="m161.115 443.721-8.256 16.311c5.751 2.907 11.703 5.614 17.682 8.027l6.839-16.951c-5.503-2.221-10.971-4.708-16.265-7.387z"/><path d="m381.074 425.042c-4.754 3.529-9.719 6.903-14.793 10.03l9.609 15.561c5.504-3.401 10.917-7.067 16.082-10.898z"/><path d="m350.711 443.803c-5.33 2.688-10.816 5.166-16.293 7.378l6.821 16.96c5.943-2.395 11.904-5.093 17.701-8.009z"/><path d="m407.881 401.417c-4.087 4.27-8.43 8.439-12.901 12.379l12.096 13.714c4.855-4.288 9.563-8.805 14.007-13.449z"/><path d="m447.726 342.446c-2.45 5.413-5.147 10.779-8.037 15.963l15.963 8.914c3.136-5.632 6.08-11.474 8.731-17.353z"/><path d="m430.309 373.623c-3.301 4.882-6.875 9.719-10.624 14.373l14.235 11.483c4.078-5.047 7.963-10.304 11.547-15.625z"/><path d="m9.143 0c-5.047 0-9.143 4.096-9.143 9.143v45.714h18.286v-36.571h36.571v-18.286z"/><path d="m502.857 0h-45.714v18.286h36.571v36.571h18.286v-45.714c0-5.047-4.096-9.143-9.143-9.143z"/><path d="m18.286 493.714v-36.571h-18.286v45.714c0 5.047 4.096 9.143 9.143 9.143h45.714v-18.286z"/><path d="m493.714 457.143v36.571h-36.571v18.286h45.714c5.047 0 9.143-4.096 9.143-9.143v-45.714z"/></svg>