<svg xmlns="http://www.w3.org/2000/svg" width="64" height="64" viewBox="0 0 64 64" fill="none"><rect width="64" height="64" rx="14" fill="#052e16"/><path d="M14 43.5V20.5H24.5C27.5 20.5 30.1 21 32.2 22C34.3 23 35.4 24.9 35.4 27.6C35.4 30 34.2 31.8 31.8 33C34.8 34 36.4 36.1 36.4 39.1C36.4 42 35.2 44.1 33 45.2C30.8 46.3 28 46.9 24.5 46.9H14V43.5ZM18.3 30.9H24.3C26.8 30.9 28.1 29.9 28.1 27.8C28.1 25.7 26.7 24.8 24.2 24.8H18.3V30.9ZM18.3 42.6H24.7C27.3 42.6 28.9 41.6 28.9 39.2C28.9 36.8 27.3 35.8 24.7 35.8H18.3V42.6Z" fill="#22c55e"/><rect x="40" y="19" width="10" height="26" rx="5" stroke="#22c55e" stroke-width="3"/></svg>