<svg height="210mm" viewBox="0 0 210 210" width="210mm" xmlns="http://www.w3.org/2000/svg"><text/><g transform="matrix(1.3340125 0 0 1.3180561 -28.946798 -23.266825)"><rect fill="#3cb371" height="90" ry="30.319227" stroke-width=".420772" width="90" x="85.370766" y="21.445843"/><path d="m119.77244 48.005419c-1.86737-2.469741-6.02376-6.324948-9.21636-8.975402l-2.8914 2.710692c3.19259 2.891405 7.16827 6.927324 9.03564 9.457303zm-2.77093 34.335431v-26.143118h-12.52942v4.27687h8.31278v21.806011c0 2.469741-1.26499 3.794968-2.10831 4.397344.72285.963802 1.86736 2.891405 2.22879 3.975682.90356-1.144515 2.46974-2.349267 12.46918-9.216353-.42166-.903564-.9638-2.650454-1.20475-3.794969zm33.61258-6.927324v10.78253h-20.42055v-10.78253zm-24.69742 17.047241h4.27687v-2.349267h20.42055v2.168554h4.39734v-20.781972h-29.09476zm22.70958-38.190638c-.24096 2.529979-.54214 5.541859-.90357 8.192314h-12.28847c.60238-2.409504 1.26499-5.240671 1.9276-8.192314zm3.3733 8.192314c.4819-3.855207.9638-8.252551 1.20475-12.04752l-3.19259-.301188-.66261.24095h-11.14396c.54214-2.289028 1.02404-4.638295 1.4457-6.746611h17.34843v-4.035919h-34.03424v4.035919h12.10776c-.36143 2.108316-.78309 4.457583-1.32523 6.746611h-8.55374v3.915444h7.65017c-.66261 2.951643-1.32522 5.78281-1.98784 8.192314h-9.9392v4.096156h38.1304v-4.096156z" fill="#e4f4ea" transform="scale(.98945822 1.0106541)"/><rect fill="#e7f5ed" height="90" ry="30.319227" stroke-width=".420772" width="90" x="25.447136" y="83.184448"/><path d="m62.212277 7.499999 3.554307 8.904602 9.567122.628675-7.370438 6.13202 2.358497 9.293145-8.109489-5.114805-8.109489 5.114804 2.358498-9.293144-7.370438-6.132021 9.567121-.628674z" fill="#3cb371" stroke-width=".396874" transform="matrix(.93840962 .16603043 -.17042345 .98670226 37.939196 73.151738)"/><path d="m-12.873615 185.69496c6.902593-2.76882 17.5637656.71579 31.41496-.11246l1.232521-.0737c.234764-.014.818171-.10783 1.750216-.28136 1.91128-1.52792 3.616843-1.57101 5.11669-.12927 1.499847 1.44176 1.542935 2.61815.129264 4.58752-1.199961 1.6032-5.790964 2.64345-13.773008 3.12076l-3.6975644.22111c-8.2027702.72612-15.276744-2.85522-20.6533586-.17765-2.056739 1.06541-4.337715 1.79177-6.842929 3.23741-1.850051.58184-3.283214.25523-4.299491-.97983-.891874-1.12469-.917413-2.5368-.07662-4.23632 3.927088-9.18783 6.491205-17.52845 7.692351-25.02185 1.318529-7.50042 2.296411-13.80244 2.933645-18.90606.747598-5.22803 1.753557-11.06051 3.0178765-17.49747.9371193-2.05868 2.3035991-2.84721 4.0994402-2.36559 1.9132246.47461 2.8156271 1.77538 2.7072086 3.90231-1.8212127 8.94411-3.4006398 17.99157-4.7382824 27.14236-1.2272781 9.02641-3.2315849 18.92199-6.0129189 27.5701z" fill="#3cb371" transform="matrix(.95061396 0 0 .95061396 66.090838 -28.284925)"/><path d="m139.90603 100.08438-11.64762 11.375h16.79314c2.03994 0 4.03091-.20129 5.9559-.58183l-11.05222-10.79317z" fill="#e4f4ea" stroke-width=".209149"/><g transform="matrix(.19833647 0 0 .20073754 21.699046 17.652378)"><path d="m559.05273 466.72461v162.51953l75.58985-75.79492v-86.72461z" fill="#e4f4ea" stroke-width="1.21865"/><path d="m472.67188 533.07812-56.64063 58.70118v.24804l54.58984 56.57422c1.34198-8.07811 2.05079-16.37305 2.05079-24.83789z" fill="#3cb371" stroke-width="1.04819"/><path d="m472.12305 553.6543v75.58984h86.92968l75.38477-75.58984z" fill="#3cb371" stroke-width="1.21865"/></g></g></svg>