<svg height="33.479534mm" viewBox="0 0 133.34872 33.479534" width="133.34872mm" xmlns="http://www.w3.org/2000/svg"><g transform="matrix(.80078638 0 0 .80078638 -73.077872 0)"><g transform="translate(-25.639509 -107.52165)"><path d="m188.47573 108.64326c.59876 0 1.08074.48196 1.08074 1.08065v7.33504c0 .59877-.48198 1.08073-1.08074 1.08073h-.41035v.42129c0 .43068 0 .43929-.0662.52228-.0363.0462-.10229.0948-.14678.10749-.0446.0125-.10973.0149-.14486.008-.0352-.011-.45819-.2557-.94018-.54444l-.85168-.51038h-4.77497c-.5987 0-1.08068-.48204-1.08068-1.08065v-7.33504c0-.59877.48198-1.08073 1.08068-1.08073z" fill="#092f4b" stroke-width=".026504"/><text fill="#fff" font-family="sans-serif" font-size="47.5465" letter-spacing="0" transform="matrix(.14136735 0 0 .14136735 -40.530025 -131.3473)" word-spacing="0"><tspan x="1607.4227" y="1734.0843"><tspan font-family="Almarai" font-weight="bold">ع</tspan></tspan></text></g><g transform="translate(-25.639509 -107.52165)"><path d="m173.05241 107.52189c-.59877 0-1.08074.48204-1.08074 1.08065v7.33504c0 .59877.48197 1.08073 1.08074 1.08073h.41034v.42121c0 .43076 0 .43937.0661.52236.0363.0462.1023.0947.14679.10757.0446.0125.10974.0149.14486.008.0352-.011.4582-.25578.94017-.54467l.8517-.5103h4.77496c.59871 0 1.08069-.48197 1.08069-1.08074v-7.335c0-.59862-.48198-1.08066-1.08069-1.08066z" fill="#008a2e" stroke-width=".026504"/><text fill="#fff" font-family="sans-serif" font-size="40" letter-spacing="0" transform="matrix(.16924881 0 0 .16924881 -92.830135 -177.54357)" word-spacing="0"><tspan x="1579.8457" y="1725.979"><tspan font-family="Quicksand" font-weight="bold">A</tspan></tspan></text></g><path d="m147.41291 0c-.59875 0-1.08064.48243-1.08064 1.08105v1.62635c2.10883.29617 5.85522.58209 9.4045 1.38043 3.21482.7231 6.25624 1.86365 8.18023 2.64812v-4.53377c0-.59869-.48188-1.08073-1.08064-1.08073l-7.00774.008v-.0407c0-.59838-.48194-1.08042-1.08064-1.08042z" fill="#fbfbfb" opacity=".08"/></g><g stroke-width="1.20504" transform="matrix(.67180584 0 0 .67180584 1.792067 60.196679)"><path d="m1.4298869-80.740291c-2.7314114 0-4.0974243 1.28534-4.0974243 3.856096v4.096907h1.4459066c0-2.056561.46595182-3.534569 1.39784743-4.434354.96402687-.899744 2.34596757-1.349789 4.14548337-1.349789h3.4225301v29.643669h6.2657669v-29.643669h10.074321v-2.16886zm32.6801751 8.675956c-2.345798 0-4.402265.530181-6.169649 1.590601-1.735249 1.028302-3.068898 2.442589-4.000789 4.242118-.931896 1.767368-1.397848 3.759615-1.397848 5.976896 0 2.217239.465952 4.225427 1.397848 6.024956.931891 1.767367 2.26554 3.181181 4.000789 4.241601 1.767384 1.028302 3.823851 1.542542 6.169649 1.542542 2.345803 0 4.386342-.514283 6.12159-1.542542 1.767385-1.060463 3.116958-2.474234 4.048849-4.241601.931896-1.799529 1.397847-3.807717 1.397847-6.024956 0-2.217281-.465951-4.209528-1.397847-5.976896-.931891-1.799529-2.281464-3.213816-4.048849-4.242118-1.735248-1.06042-3.775787-1.590601-6.12159-1.590601zm28.245821 0c-2.313662 0-4.337764.755203-6.073014 2.265495-.353478-.642667-.851798-1.092712-1.494482-1.349788-.610554-.289194-1.461802-.433565-2.554366-.433565h-4.772319v1.445906h.482141c1.349635 0 2.233256.401749 2.651001 1.205095.44988.771226.674894 1.976432.674894 3.615283v16.388147h6.266284v-16.195394c0-.514152-.06422-1.285252-.192753-2.313554.996163-.996141 2.425874-1.494482 4.289661-1.494482.706951 0 1.34963.192667 1.928048.578259.578418.353517 1.044374.787622 1.397847 1.301729l2.458248-1.879988c0-.03212-.128435-.288981-.385506-.771013-.257076-.514151-.674736-.980094-1.253154-1.397847-.899755-.642668-2.040754-.964283-3.42253-.964283zm31.37948 0c-2.345802 0-4.402781.530181-6.170166 1.590601-1.735249 1.028302-3.068898 2.442589-4.000789 4.242118-.931892 1.767368-1.397848 3.759615-1.397848 5.976896 0 2.217239.465956 4.225427 1.397848 6.024956.931891 1.767367 2.26554 3.181181 4.000789 4.241601 1.767385 1.028302 3.824364 1.542542 6.170166 1.542542 2.345798 0 4.385829-.514283 6.121073-1.542542 1.767384-1.060463 3.117474-2.474234 4.049364-4.241601.93189-1.799529 1.39785-3.807717 1.39785-6.024956 0-2.217281-.46596-4.209528-1.39785-5.976896-.93189-1.799529-2.28198-3.213816-4.049364-4.242118-1.735244-1.06042-3.775275-1.590601-6.121073-1.590601zm28.486637 0c-2.28154 0-4.30615.771101-6.07354 2.313554h-.19275c-.64268-1.221098-2.00818-1.831412-4.09691-1.831412h-4.7718v1.445906h.48163c1.34964 0 2.23378.401749 2.65151 1.205095.44989.771226.67438 1.976432.67438 3.615283v16.388147h6.26629v-19.183842c.44988-.417753.98005-.771206 1.5906-1.060401.61055-.321355 1.20494-.482141 1.78335-.482141 1.15684 0 2.08874.514239 2.7957 1.542542.70695 1.028302 1.06091 2.651155 1.06091 4.868436v14.315406h6.26577v-14.267347c0-2.056603-.25687-3.599365-.77101-4.627624.41774-.546313.99621-.979858 1.73529-1.301213.73909-.353473 1.54257-.5302 2.41019-.5302 1.15683 0 2.08874.514239 2.7957 1.542542.70695 1.028302 1.0604 2.651155 1.0604 4.868436v14.315406h6.26576v-14.267347c0-5.912694-2.81165-8.869226-8.43514-8.869226-1.67098 0-3.03648.257379-4.09691.77153-1.06043.48199-1.97641 1.140601-2.74763 1.976106-.51415-.642667-1.3654-1.253498-2.55437-1.831929-1.15683-.610549-2.52284-.915707-4.09742-.915707zm36.15128 0c-3.82397 0-6.2344.562536-7.23057 1.687236-.51415.578431-.85167 1.252983-1.01234 2.024166-.12853.771226-.19275 1.703113-.19275 2.795695h2.651c.35348-1.67097.93194-2.811464 1.73529-3.422014.80336-.610548 1.83185-.915706 3.08509-.915706 1.51031 0 2.65131.594417 3.42253 1.783354.77122 1.156861 1.15651 3.133168 1.15651 5.928837h-.72295c-3.3741 0-6.00903.272802-7.90494.819071-1.89592.54627-3.22957 1.349725-4.00079 2.410189-.7391 1.06042-1.10846 2.3941-1.10846 4.000789 0 1.992325.70689 3.582823 2.1208 4.771802 1.44604 1.156819 3.47065 1.735295 6.07353 1.735295 1.34964 0 2.52249-.256861 3.51865-.771013 1.02829-.514107 1.78347-1.14088 2.26549-1.879988h.24081l1.68724 2.16886h4.09691v-13.014193c0-3.374101-.85177-5.896528-2.55488-7.567497-1.67098-1.703131-4.11274-2.554883-7.32617-2.554883zm28.29388 0c-3.05276 0-5.39845.755203-7.0373 2.265495-.35348-.642667-.8518-1.092712-1.49448-1.349788-.61055-.289194-1.4618-.433565-2.55437-.433565h-4.77232v1.445906h.48215c1.34963 0 2.23325.401749 2.651 1.205095.44988.771226.67489 1.976432.67489 3.615283v16.388147h6.26628v-19.521289c1.0283-.803388 2.3938-1.205095 4.09691-1.205095 1.41391 0 2.52254.514239 3.3259 1.542542.83549 1.028302 1.25367 2.651155 1.25367 4.868436v14.315406h6.26576v-14.267347c0-3.052744-.77111-5.286428-2.31355-6.700366-1.51031-1.446012-3.79179-2.16886-6.84454-2.16886zm-119.153452.482142v1.445906h.482141c1.34964 0 2.249176.401771 2.69906 1.205095.449878.771226.674894 1.975958.674894 3.614766v15.183569c0 3.181326-.337521 5.430909-1.012341 6.748425-.642684 1.317518-1.718949 2.120995-3.22926 2.410189v1.205095c2.699273 0 4.787591-.321636 6.265767-.964283 1.510305-.610548 2.587093-1.654946 3.229777-3.133142.67482-1.478194 1.012341-3.566991 1.012341-6.266284v-15.183569c0-1.638808-.128951-2.891879-.386023-3.75946-.25707-.899808-.690664-1.542435-1.301212-1.928048-.610556-.385613-1.494168-.578259-2.651001-.578259zm-33.403646 1.687235c1.638847 0 2.892353.883633 3.759978 2.651001.867624 1.767368 1.301212 4.097127 1.301212 6.989237 0 2.892068-.433588 5.22187-1.301212 6.989238-.867625 1.76741-2.121131 2.651001-3.759978 2.651001-1.638842 0-2.891836-.883591-3.75946-2.651001-.867625-1.767368-1.301729-4.09717-1.301729-6.989238 0-2.89211.434104-5.221869 1.301729-6.989237.867624-1.767368 2.120618-2.651001 3.75946-2.651001zm59.625301 0c1.638847 0 2.891841.883633 3.75946 2.651001.867625 1.767368 1.301213 4.097127 1.301213 6.989237 0 2.892068-.433588 5.22187-1.301213 6.989238-.867619 1.76741-2.120613 2.651001-3.75946 2.651001s-2.892353-.883591-3.759977-2.651001c-.867625-1.767368-1.301213-4.09717-1.301213-6.989238 0-2.89211.433588-5.221869 1.301213-6.989237.867624-1.767368 2.12113-2.651001 3.759977-2.651001zm67.529727 9.881051h.72295v6.024955c-.32134.803344-.85151 1.526709-1.5906 2.169376-.70695.642711-1.54228.963766-2.5063.963766-.99617 0-1.76728-.353453-2.31356-1.0604s-.81959-1.718968-.81959-3.036508c0-1.735249.51425-3.004691 1.54255-3.808036 1.02829-.835506 2.68302-1.253153 4.96455-1.253153z" fill="#f2f2f2"/><path d="m1.4295198-80.740525c-2.73141 0-4.09691 1.285342-4.09691 3.856096v4.096907h1.44591c0-2.056559.46595-3.53457 1.39785-4.434354.96402-.899742 2.34597-1.349789 4.14548-1.349789h3.42201v23.109184c1.98476-.472351 4.0894602-.94864 6.2662902-1.425236v-21.683948h10.07432v-2.16886zm32.6806902 8.676473c-2.34578 0-4.40278.530182-6.17016 1.590601-1.73525 1.028301-3.0684 2.442075-4.00027 4.241601-.9319 1.767367-1.39785 3.759617-1.39785 5.976897 0 .542159.02851 1.07132.08423 1.588533 2.07648-.402597 4.22677-.796365 6.43062-1.183907-.002-.135645-.0078-.266413-.0078-.404626 0-2.892109.43359-5.221872 1.30122-6.989238.86762-1.767365 2.12114-2.651001 3.75997-2.651001 1.63885 0 2.89184.883636 3.75946 2.651001.74045 1.508284 1.16264 3.429829 1.27124 5.757271 2.08284-.308457 4.21165-.604146 6.38049-.887801-.20608-1.385786-.61649-2.673211-1.24075-3.857129-.93189-1.799526-2.28146-3.2133-4.04885-4.241601-1.73523-1.060419-3.77578-1.590601-6.12159-1.590601zm28.24582 0c-2.31365 0-4.33828.755205-6.07353 2.265495-.35348-.642666-.85128-1.092714-1.49396-1.349788-.61055-.289194-1.46233-.434082-2.55488-.434082h-4.77181v1.446423h.48214c1.34964 0 2.23327.40175 2.65101 1.205094.44987.771227.67489 1.975917.67489 3.614767v2.230871c2.05688-.237008 4.14289-.462619 6.26577-.671276v-1.366842c0-.514152-.06422-1.285253-.19276-2.313554.99617-.99614 2.4264-1.493966 4.29018-1.493966.70695 0 1.34963.192668 1.92805.57826.57842.353516 1.04437.787106 1.39785 1.301212l2.45824-1.879472c0-.03212-.12843-.289497-.3855-.771529-.25708-.51415-.67525-.980095-1.25367-1.397847-.89975-.642668-2.04024-.963766-3.42202-.963766zm31.37897 0c-2.34581 0-4.40227.530182-6.16965 1.590601-1.73525 1.028301-3.0689 2.442075-4.00079 4.241601-.14657.277974-.27749.563561-.40101.852662.80938-.02281 1.61691-.04716 2.43241-.0646 1.2343-.02639 2.47603-.04681 3.72329-.06098.18172-.627825.39728-1.211836.65629-1.739429.86762-1.767365 2.12061-2.651001 3.75946-2.651001 1.63884 0 2.89184.883636 3.75946 2.651001.26042.53048.4771 1.117953.65939 1.749764 2.04105.0197 4.08832.05305 6.14588.09922-.12166-.28358-.25042-.563783-.39429-.836642-.9319-1.799526-2.28147-3.2133-4.04885-4.241601-1.73525-1.060419-3.77579-1.590601-6.12159-1.590601zm28.48715 0c-2.28153 0-4.30616.771103-6.07353 2.313554h-.19276c-.64268-1.221097-2.0087-1.831929-4.09742-1.831929h-4.7718v1.446423h.48214c1.34964 0 2.23326.40175 2.651 1.205094.44989.771227.67489 1.975917.67489 3.614767v.10697c2.08859.07268 4.17667.1505 6.26629.245463v-3.148128c.44988-.417753.98005-.771206 1.5906-1.060401.61055-.321354 1.20494-.482141 1.78335-.482141 1.15684 0 2.08874.514241 2.7957 1.542542.55323.804715.88689 1.979055 1.00717 3.51193 2.10361.118934 4.19823.249923 6.28592.38654-.0746-1.545414-.31429-2.761815-.73794-3.609082.41775-.546313.99621-.980375 1.7353-1.301729.73909-.353474 1.54257-.530201 2.41019-.530201 1.15682 0 2.08873.514241 2.79569 1.542542.65643.954816 1.00419 2.429094 1.0511 4.409033 2.11161.158162 4.19845.32429 6.27507.495577-.004-5.904508-2.81503-8.856824-8.43463-8.856824-1.67098 0-3.03699.256862-4.09742.771013-1.06044.481989-1.9759 1.140602-2.74712 1.976106-.51415-.642666-1.36592-1.252983-2.55489-1.831412-1.15682-.610549-2.52232-.915707-4.0969-.915707zm36.15076 0c-3.82396 0-6.23388.56202-7.23005 1.686719-.51414.57843-.85167 1.253499-1.01234 2.024683-.12853.771225-.19275 1.703113-.19275 2.795695h2.651c.35348-1.670969.93194-2.811982 1.73529-3.42253.80336-.610549 1.83134-.915707 3.08457-.915707 1.51031 0 2.65131.594418 3.42253 1.783354.77123 1.15686 1.15704 3.133171 1.15704 5.928837h-.72296c-1.45783 0-2.7692.05404-3.95118.156063 3.75466.363563 7.42497.73573 10.9399 1.11311v-1.027844c0-3.374098-.85126-5.897046-2.55436-7.568014-1.67098-1.703129-4.11326-2.554366-7.32669-2.554366zm28.2944 0c-3.05276 0-5.39898.755205-7.03781 2.265495-.35348-.642666-.85128-1.092714-1.49397-1.349788-.61055-.289194-1.46232-.434082-2.55488-.434082h-4.7718v1.446423h.48214c1.34964 0 2.23325.40175 2.651 1.205094.44988.771227.67489 1.975917.67489 3.614767v5.103564c2.21855.250687 4.19133.491016 6.26577.736389v-8.973095c1.0283-.803387 2.39431-1.205095 4.09742-1.205095 1.41392 0 2.52255.514241 3.3259 1.542542.83549 1.028301 1.25315 2.651158 1.25315 4.868436v4.814177c2.15399.268413 4.37454.543104 6.26629.785482v-5.551599c0-3.052742-.77112-5.285914-2.31356-6.69985-1.51031-1.44601-3.79179-2.16886-6.84454-2.16886zm-119.15397.481625v1.446423h.48214c1.34965 0 2.24969.401772 2.69958 1.205094.44988.771227.67438 1.975959.67438 3.614767v.458887c2.0646-.125345 4.15459-.233694 6.26628-.325562v-.133325c0-1.638808-.12843-2.891879-.3855-3.759461-.25707-.899806-.69067-1.54295-1.30122-1.928564-.61055-.385613-1.49469-.578259-2.65151-.578259z" fill="#fff" opacity=".08"/></g></svg>