<?xml version="1.0" encoding="UTF-8" standalone="no"?>
<!-- Created with Inkscape (http://www.inkscape.org/) -->

<svg
   xmlns:dc="http://purl.org/dc/elements/1.1/"
   xmlns:cc="http://creativecommons.org/ns#"
   xmlns:rdf="http://www.w3.org/1999/02/22-rdf-syntax-ns#"
   xmlns:svg="http://www.w3.org/2000/svg"
   xmlns="http://www.w3.org/2000/svg"
   xmlns:xlink="http://www.w3.org/1999/xlink"
   xmlns:sodipodi="http://sodipodi.sourceforge.net/DTD/sodipodi-0.dtd"
   xmlns:inkscape="http://www.inkscape.org/namespaces/inkscape"
   width="74.483566mm"
   height="85.054764mm"
   viewBox="0 0 263.91815 301.37513"
   id="svg2"
   version="1.1"
   inkscape:version="0.91 r13725"
   sodipodi:docname="aosus-logo.svg"
   inkscape:export-filename="/home/almuez/شعار_أسس_نها ئي.png"
   inkscape:export-xdpi="40.719631"
   inkscape:export-ydpi="40.719631">
  <defs
     id="defs4">
    <linearGradient
       inkscape:collect="always"
       id="linearGradient5715">
      <stop
         style="stop-color:#f9f9f9;stop-opacity:1"
         offset="0"
         id="stop5717" />
      <stop
         style="stop-color:#ececec;stop-opacity:1"
         offset="1"
         id="stop5719" />
    </linearGradient>
    <radialGradient
       inkscape:collect="always"
       xlink:href="#linearGradient5715"
       id="radialGradient5721"
       cx="-169.53061"
       cy="535.27142"
       fx="-169.53061"
       fy="535.27142"
       r="132.04828"
       gradientTransform="matrix(0.93735859,0,0,1.0703948,177.52007,-372.46105)"
       gradientUnits="userSpaceOnUse" />
  </defs>
  <sodipodi:namedview
     id="base"
     pagecolor="#ffffff"
     bordercolor="#666666"
     borderopacity="1.0"
     inkscape:pageopacity="0.0"
     inkscape:pageshadow="2"
     inkscape:zoom="2"
     inkscape:cx="126.86025"
     inkscape:cy="93.95426"
     inkscape:document-units="px"
     inkscape:current-layer="layer1"
     showgrid="false"
     showborder="false"
     inkscape:object-nodes="true"
     inkscape:window-width="1600"
     inkscape:window-height="834"
     inkscape:window-x="0"
     inkscape:window-y="27"
     inkscape:window-maximized="1"
     fit-margin-top="0"
     fit-margin-left="0"
     fit-margin-right="0"
     fit-margin-bottom="0" />
  <metadata
     id="metadata7">
    <rdf:RDF>
      <cc:Work
         rdf:about="">
        <dc:format>image/svg+xml</dc:format>
        <dc:type
           rdf:resource="http://purl.org/dc/dcmitype/StillImage" />
        <dc:title></dc:title>
      </cc:Work>
    </rdf:RDF>
  </metadata>
  <g
     inkscape:label="Layer 1"
     inkscape:groupmode="layer"
     id="layer1"
     transform="translate(-294.42656,180.8531)">
    <text
       xml:space="preserve"
       style="font-style:normal;font-variant:normal;font-weight:normal;font-stretch:normal;font-size:37.18767166px;line-height:125%;font-family:'Droid Arabic Naskh';-inkscape-font-specification:'Droid Arabic Naskh, Normal';text-align:start;letter-spacing:0px;word-spacing:0px;writing-mode:lr-tb;text-anchor:start;fill:#000000;fill-opacity:1;stroke:none;stroke-width:1px;stroke-linecap:butt;stroke-linejoin:miter;stroke-opacity:1"
       x="139.88121"
       y="218.79674"
       id="text4159"
       sodipodi:linespacing="125%"><tspan
         sodipodi:role="line"
         id="tspan4161"
         x="139.88121"
         y="218.79674" /></text>
    <g
       id="g4620"
       transform="matrix(0.53305337,0,0,0.53305337,350.48649,-212.38156)">
      <rect
         y="59.146919"
         x="-105.16754"
         height="282.68759"
         width="247.55318"
         id="rect4202"
         style="opacity:1;fill:url(#radialGradient5721);fill-opacity:1;fill-rule:nonzero;stroke:none;stroke-width:0.40000001;stroke-linecap:butt;stroke-linejoin:miter;stroke-miterlimit:4;stroke-dasharray:none;stroke-dashoffset:0;stroke-opacity:1" />
      <g
         transform="matrix(0.93735859,0,0,0.93735859,53.919377,-293.46191)"
         id="g5535">
        <g
           id="g4204"
           transform="matrix(0.36241679,0,0,0.36241679,-25.336773,368.57974)">
          <text
             sodipodi:linespacing="125%"
             id="text4136"
             y="555.36218"
             x="-19"
             style="font-style:normal;font-variant:normal;font-weight:normal;font-stretch:normal;font-size:90px;line-height:125%;font-family:'Ara Hamah AlHorra';-inkscape-font-specification:'Ara Hamah AlHorra, Normal';text-align:start;letter-spacing:0px;word-spacing:0px;writing-mode:lr-tb;text-anchor:start;fill:#008000;fill-opacity:1;stroke:none;stroke-width:1px;stroke-linecap:butt;stroke-linejoin:miter;stroke-opacity:1"
             xml:space="preserve"><tspan
               y="555.36218"
               x="-19"
               id="tspan4138"
               sodipodi:role="line">مجتمع </tspan></text>
          <path
             id="path4200"
             d="m -53.660505,496.93259 c 0,-5.71538 6.477425,-7.33473 10.382932,-7.33473 l 0,-4.38179 c -12.192801,0 -15.336258,7.52524 -15.336258,13.52639 0,0.8573 0.09526,1.61935 0.381025,2.3814 l 15.336258,0 0,-4.19127 -10.763957,0 z"
             style="font-style:normal;font-variant:normal;font-weight:normal;font-stretch:normal;font-size:medium;line-height:125%;font-family:'Ara Hamah AlHorra';-inkscape-font-specification:'Ara Hamah AlHorra, Normal';text-align:start;letter-spacing:0px;word-spacing:0px;writing-mode:lr-tb;text-anchor:start;fill:#008000;fill-opacity:1;stroke:none;stroke-width:1px;stroke-linecap:butt;stroke-linejoin:miter;stroke-opacity:1"
             inkscape:connector-curvature="0" />
          <path
             id="path4189"
             d="m -43.658598,570.56567 0,-64.10746 -13.812158,0 0,64.10746 13.812158,0 z"
             style="font-style:normal;font-variant:normal;font-weight:normal;font-stretch:normal;font-size:medium;line-height:125%;font-family:'Ara Hamah AlHorra';-inkscape-font-specification:'Ara Hamah AlHorra, Normal';text-align:start;letter-spacing:0px;word-spacing:0px;writing-mode:lr-tb;text-anchor:start;fill:#00112b;fill-opacity:1;stroke:none;stroke-width:1px;stroke-linecap:butt;stroke-linejoin:miter;stroke-opacity:1"
             inkscape:connector-curvature="0" />
          <path
             d="m -128.76783,556.563 0,14.00267 63.535919,0 0,-42.29377 -13.812157,0 0,28.2911 -7.429988,0 0,-25.2429 -13.812154,0 -0.0953,25.2429 -7.6205,0 0,-20.6706 -13.81216,0 -0.0952,20.6706 -6.85845,0 z"
             style="font-style:normal;font-variant:normal;font-weight:normal;font-stretch:normal;font-size:medium;line-height:125%;font-family:'Ara Hamah AlHorra';-inkscape-font-specification:'Ara Hamah AlHorra, Normal';text-align:start;letter-spacing:0px;word-spacing:0px;writing-mode:lr-tb;text-anchor:start;fill:#00112b;fill-opacity:1;stroke:none;stroke-width:1px;stroke-linecap:butt;stroke-linejoin:miter;stroke-opacity:1"
             id="path4191"
             inkscape:connector-curvature="0" />
          <path
             d="m -124.9494,570.56567 0,-14.00267 -6.9537,0 0,-28.19585 -13.81216,0 0,28.19585 -7.33473,0 -0.0953,-25.2429 -13.81216,0 -0.0952,25.2429 -7.6205,0 0,-20.6706 -13.81216,0 0,22.57573 c 0,8.09678 -4.00076,12.1928 -12.09755,12.1928 -8.09678,0 -12.09754,-4.09602 -12.09754,-12.1928 0,-0.66679 0.0953,-1.23833 0.19051,-1.90513 l -14.00267,0 -0.0952,1.90513 c -0.38103,7.23947 2.57192,13.43113 7.6205,18.47971 5.04858,5.04858 11.24024,7.6205 18.38445,7.6205 10.66871,0 18.38446,-4.66755 23.14728,-14.00267 l 52.48619,0 z"
             style="font-style:normal;font-variant:normal;font-weight:normal;font-stretch:normal;font-size:medium;line-height:125%;font-family:'Ara Hamah AlHorra';-inkscape-font-specification:'Ara Hamah AlHorra, Normal';text-align:start;letter-spacing:0px;word-spacing:0px;writing-mode:lr-tb;text-anchor:start;fill:#00112b;fill-opacity:1;stroke:none;stroke-width:1px;stroke-linecap:butt;stroke-linejoin:miter;stroke-opacity:1"
             id="path4193"
             inkscape:connector-curvature="0" />
        </g>
        <g
           transform="matrix(0.6660977,0,0,0.6660977,-313.94409,324.96138)"
           id="g4543">
          <g
             id="g4545">
            <g
               id="g4547">
              <circle
                 cx="408.034"
                 cy="261.77301"
                 r="21.892"
                 id="circle4549"
                 style="fill:#092f4b" />
            </g>
            <g
               id="g4551">
              <path
                 d="m 408.033,284.165 c -12.346,0 -22.391,-10.045 -22.391,-22.392 0,-12.347 10.045,-22.392 22.391,-22.392 12.348,0 22.393,10.045 22.393,22.392 0,12.347 -10.045,22.392 -22.393,22.392 z m 0,-43.783 c -11.795,0 -21.391,9.596 -21.391,21.392 0,11.795 9.596,21.392 21.391,21.392 11.797,0 21.393,-9.597 21.393,-21.392 0,-11.796 -9.596,-21.392 -21.393,-21.392 z"
                 id="path4553"
                 inkscape:connector-curvature="0"
                 style="fill:#092f4b" />
            </g>
          </g>
          <g
             id="g4555">
            <g
               id="g4557">
              <path
                 d="m 408.033,289.387 c -15.249,0 -27.611,-12.363 -27.611,-27.613 0,-15.25 12.362,-27.612 27.611,-27.612 15.252,0 27.614,12.362 27.614,27.612 0,2.474 -0.33,4.868 -0.939,7.149 l 21.005,21.217 c 4.95,-8.301 7.796,-18 7.796,-28.366 0,-30.638 -24.836,-55.475 -55.476,-55.475 -30.637,0 -55.474,24.837 -55.474,55.475 0,30.638 24.837,55.474 55.474,55.474 11.486,0 22.156,-3.49 31.009,-9.468 l -20.331,-20.534 c -3.285,1.377 -6.891,2.141 -10.678,2.141 z"
                 id="path4559"
                 inkscape:connector-curvature="0"
                 style="fill:#008a2e" />
            </g>
          </g>
          <g
             id="g4561">
            <g
               id="g4563">
              <path
                 d="m 433.813,271.671 c -0.519,1.352 -1.142,2.649 -1.856,3.888 l 19.263,19.225 2.78,-2.967 -20.187,-20.146 z"
                 id="path4565"
                 inkscape:connector-curvature="0"
                 style="fill:#092f4b" />
            </g>
            <g
               id="g4567">
              <path
                 d="m 420.945,286.182 19.81,19.77 2.779,-2.967 -19.063,-19.024 c -1.114,0.825 -2.293,1.567 -3.526,2.221 z"
                 id="path4569"
                 inkscape:connector-curvature="0"
                 style="fill:#092f4b" />
            </g>
            <g
               id="g4571">
              <path
                 d="m 425.297,283.317 18.948,18.908 2.779,-2.966 -18.749,-18.712 c -0.923,0.996 -1.918,1.921 -2.978,2.77 z"
                 id="path4573"
                 inkscape:connector-curvature="0"
                 style="fill:#092f4b" />
            </g>
            <g
               id="g4575">
              <path
                 d="m 428.965,279.771 18.769,18.73 2.78,-2.966 -19.105,-19.067 c -0.734,1.164 -1.552,2.267 -2.444,3.303 z"
                 id="path4577"
                 inkscape:connector-curvature="0"
                 style="fill:#092f4b" />
            </g>
          </g>
          <g
             id="g4579">
            <rect
               x="442.36899"
               y="304.69699"
               transform="matrix(0.7071,0.7071,-0.7071,0.7071,347.04,-224.395)"
               width="4.04"
               height="4.04"
               id="rect4581"
               style="fill:#008a2e" />
          </g>
          <g
             id="g4583">
            <rect
               x="445.875"
               y="308.203"
               transform="matrix(0.7072,0.707,-0.707,0.7072,350.4543,-225.8308)"
               width="4.04"
               height="4.04"
               id="rect4585"
               style="fill:#008a2e" />
          </g>
          <g
             id="g4587">
            <rect
               x="452.90799"
               y="315.23599"
               transform="matrix(0.707,0.7072,-0.7072,0.707,357.6724,-228.777)"
               width="4.04"
               height="4.04"
               id="rect4589"
               style="fill:#008a2e" />
          </g>
          <g
             id="g4591">
            <rect
               x="446.02399"
               y="301.077"
               transform="matrix(0.7071,0.7071,-0.7071,0.7071,345.5513,-228.0393)"
               width="4.04"
               height="4.04"
               id="rect4593"
               style="fill:#008a2e" />
          </g>
          <g
             id="g4595">
            <rect
               x="452.91199"
               y="307.96701"
               transform="matrix(0.707,0.7072,-0.7072,0.707,352.5332,-230.9103)"
               width="4.04"
               height="4.04"
               id="rect4597"
               style="fill:#008a2e" />
          </g>
          <g
             id="g4599">
            <rect
               x="460.01901"
               y="315.07401"
               transform="matrix(0.7071,0.7071,-0.7071,0.7071,359.5474,-233.8367)"
               width="4.0409999"
               height="4.04"
               id="rect4601"
               style="fill:#008a2e" />
          </g>
          <g
             id="g4603">
            <rect
               x="449.578"
               y="297.53101"
               transform="matrix(0.707,0.7072,-0.7072,0.707,344.1754,-231.6105)"
               width="4.04"
               height="4.04"
               id="rect4605"
               style="fill:#008a2e" />
          </g>
          <g
             id="g4607">
            <rect
               x="453.172"
               y="293.862"
               transform="matrix(0.7071,0.7071,-0.7071,0.7071,342.5427,-235.2075)"
               width="4.04"
               height="4.04"
               id="rect4609"
               style="fill:#008a2e" />
          </g>
          <g
             id="g4611">
            <rect
               x="453.13501"
               y="301.08801"
               transform="matrix(0.7071,0.7071,-0.7071,0.7071,347.6412,-233.0653)"
               width="4.04"
               height="4.04"
               id="rect4613"
               style="fill:#008a2e" />
          </g>
          <g
             id="g4615">
            <rect
               x="460.026"
               y="307.978"
               transform="matrix(0.7071,0.7071,-0.7071,0.7071,354.5318,-235.9194)"
               width="4.04"
               height="4.04"
               id="rect4617"
               style="fill:#008a2e" />
          </g>
          <g
             id="g4619">
            <rect
               x="456.729"
               y="297.41901"
               transform="matrix(0.707,0.7072,-0.7072,0.707,346.1918,-236.7001)"
               width="4.04"
               height="4.04"
               id="rect4621"
               style="fill:#008a2e" />
          </g>
          <g
             id="g4623">
            <rect
               x="460.21799"
               y="300.90799"
               transform="matrix(0.7071,0.7071,-0.7071,0.7071,349.5886,-238.126)"
               width="4.04"
               height="4.04"
               id="rect4625"
               style="fill:#008a2e" />
          </g>
        </g>
        <path
           inkscape:connector-curvature="0"
           id="path5508"
           style="font-style:normal;font-variant:normal;font-weight:normal;font-stretch:normal;font-size:medium;line-height:125%;font-family:Quicksand;-inkscape-font-specification:'Quicksand, Normal';text-align:start;letter-spacing:0px;word-spacing:0px;writing-mode:lr-tb;text-anchor:start;fill:#008000;fill-opacity:1;stroke:none;stroke-width:1px;stroke-linecap:butt;stroke-linejoin:miter;stroke-opacity:1"
           d="m -89.722611,582.60005 q 0.09293,-0.0929 0.225688,-0.0929 0.132758,0 0.225689,0.0929 0.09293,0.0929 0.09293,0.22569 l 0,5.86791 q 0,0.13276 -0.09293,0.22569 -0.09293,0.0929 -0.225689,0.0929 -0.132758,0 -0.225688,-0.0929 -0.09293,-0.0929 -0.09293,-0.22569 l 0,-0.96913 q -0.424826,0.59741 -1.07534,0.94258 -0.637239,0.34517 -1.367408,0.34517 -1.274477,0 -2.177232,-0.95586 -0.902754,-0.95586 -0.902754,-2.29671 0,-1.34086 0.902754,-2.29672 0.902755,-0.95586 2.177232,-0.95586 0.730169,0 1.367408,0.34518 0.650514,0.34517 1.07534,0.9293 l 0,-0.95586 q 0,-0.13275 0.09293,-0.22569 z m -4.978427,3.15965 q 0,1.08861 0.716894,1.85861 0.730169,0.75672 1.725854,0.75672 1.008961,0 1.725855,-0.75672 0.716893,-0.77 0.716893,-1.85861 0,-1.08862 -0.716893,-1.85862 -0.716894,-0.76999 -1.725855,-0.76999 -0.995685,0 -1.725854,0.76999 -0.716894,0.77 -0.716894,1.85862 z" />
        <path
           inkscape:connector-curvature="0"
           id="path5510"
           style="font-style:normal;font-variant:normal;font-weight:normal;font-stretch:normal;font-size:medium;line-height:125%;font-family:Quicksand;-inkscape-font-specification:'Quicksand, Normal';text-align:start;letter-spacing:0px;word-spacing:0px;writing-mode:lr-tb;text-anchor:start;fill:#008000;fill-opacity:1;stroke:none;stroke-width:1px;stroke-linecap:butt;stroke-linejoin:miter;stroke-opacity:1"
           d="m -77.857362,588.05641 q -0.902754,-0.96913 -0.902754,-2.29671 0,-1.32758 0.902754,-2.28344 0.902755,-0.96914 2.177232,-0.96914 1.274477,0 2.177232,0.96914 0.902754,0.95586 0.902754,2.28344 0,1.32758 -0.902754,2.29671 -0.902755,0.95586 -2.177232,0.95586 -1.274477,0 -2.177232,-0.95586 z m 2.177232,-4.92532 q -0.995685,0 -1.725854,0.76999 -0.716894,0.77 -0.716894,1.85862 0,1.07534 0.716894,1.84533 0.730169,0.77 1.725854,0.77 0.995685,0 1.712579,-0.77 0.730169,-0.76999 0.730169,-1.84533 0,-1.08862 -0.730169,-1.85862 -0.716894,-0.76999 -1.712579,-0.76999 z" />
        <path
           inkscape:connector-curvature="0"
           id="path5512"
           style="font-style:normal;font-variant:normal;font-weight:normal;font-stretch:normal;font-size:medium;line-height:125%;font-family:Quicksand;-inkscape-font-specification:'Quicksand, Normal';text-align:start;letter-spacing:0px;word-spacing:0px;writing-mode:lr-tb;text-anchor:start;fill:#008000;fill-opacity:1;stroke:none;stroke-width:1px;stroke-linecap:butt;stroke-linejoin:miter;stroke-opacity:1"
           d="m -62.582719,588.08296 q -0.225689,-0.19914 -0.03983,-0.42482 0.07965,-0.10621 0.212413,-0.11949 0.132758,-0.0133 0.238965,0.0797 1.035512,0.75672 1.885164,0.75672 0.849651,0 1.340856,-0.39827 0.491205,-0.3319 0.477929,-0.77 0,-0.45138 -0.438102,-0.79655 -0.424825,-0.34517 -1.393959,-0.50448 l -0.02655,-0.0133 q -1.035512,-0.18586 -1.473614,-0.50448 -0.703617,-0.41155 -0.703617,-1.16827 0,-0.75672 0.703617,-1.27447 0.637239,-0.43811 1.593097,-0.43811 0.384998,0 0.769996,0.13276 0.398274,0.11948 0.597411,0.23897 0.212413,0.1062 0.57086,0.33189 0.106206,0.0797 0.132758,0.21241 0.02655,0.13276 -0.03983,0.23897 -0.06638,0.10621 -0.199137,0.13276 -0.132758,0.0265 -0.238965,-0.0398 -0.331895,-0.22569 -0.50448,-0.31862 -0.15931,-0.10621 -0.477929,-0.21241 -0.31862,-0.11948 -0.610687,-0.11948 -0.769997,0 -1.208098,0.35844 -0.438102,0.34517 -0.438102,0.73017 0,0.385 0.371723,0.67707 0.464653,0.31862 1.32758,0.45137 l 0.02655,0 q 0.862927,0.13276 1.57982,0.53104 0.730169,0.47793 0.730169,1.28775 0,0.79655 -0.730169,1.34086 -0.716893,0.53103 -1.632924,0.53103 -1.261201,-0.0133 -2.40292,-0.92931 z" />
        <path
           inkscape:connector-curvature="0"
           id="path5514"
           style="font-style:normal;font-variant:normal;font-weight:normal;font-stretch:normal;font-size:medium;line-height:125%;font-family:Quicksand;-inkscape-font-specification:'Quicksand, Normal';text-align:start;letter-spacing:0px;word-spacing:0px;writing-mode:lr-tb;text-anchor:start;fill:#008000;fill-opacity:1;stroke:none;stroke-width:1px;stroke-linecap:butt;stroke-linejoin:miter;stroke-opacity:1"
           d="m -47.783519,586.35711 0,-3.54464 q 0,-0.13276 0.09293,-0.22569 0.09293,-0.0929 0.225689,-0.0929 0.132758,0 0.225688,0.0929 0.09293,0.0929 0.09293,0.22569 l 0,3.54464 q 0,0.83637 0.584135,1.42051 0.584136,0.58413 1.407235,0.59741 0.836376,-0.0133 1.420511,-0.59741 0.597412,-0.58414 0.597412,-1.42051 l 0,-3.54464 q 0,-0.13276 0.09293,-0.22569 0.106207,-0.0929 0.238965,-0.0929 0.132758,0 0.225688,0.0929 0.09293,0.0929 0.09293,0.22569 l 0,3.54464 q 0,1.10189 -0.783272,1.88516 -0.769997,0.77 -1.871889,0.77 -1.101891,0 -1.871888,-0.77 -0.769997,-0.78327 -0.769997,-1.88516 z" />
        <path
           inkscape:connector-curvature="0"
           id="path5516"
           style="font-style:normal;font-variant:normal;font-weight:normal;font-stretch:normal;font-size:medium;line-height:125%;font-family:Quicksand;-inkscape-font-specification:'Quicksand, Normal';text-align:start;letter-spacing:0px;word-spacing:0px;writing-mode:lr-tb;text-anchor:start;fill:#008000;fill-opacity:1;stroke:none;stroke-width:1px;stroke-linecap:butt;stroke-linejoin:miter;stroke-opacity:1"
           d="m -31.96021,588.08296 q -0.225689,-0.19914 -0.03983,-0.42482 0.07966,-0.10621 0.212413,-0.11949 0.132758,-0.0133 0.238965,0.0797 1.035512,0.75672 1.885164,0.75672 0.849651,0 1.340856,-0.39827 0.491205,-0.3319 0.477929,-0.77 0,-0.45138 -0.438102,-0.79655 -0.424825,-0.34517 -1.393959,-0.50448 l -0.02655,-0.0133 q -1.035512,-0.18586 -1.473614,-0.50448 -0.703617,-0.41155 -0.703617,-1.16827 0,-0.75672 0.703617,-1.27447 0.637239,-0.43811 1.593097,-0.43811 0.384998,0 0.769996,0.13276 0.398274,0.11948 0.597411,0.23897 0.212413,0.1062 0.57086,0.33189 0.106206,0.0797 0.132758,0.21241 0.02655,0.13276 -0.03983,0.23897 -0.06638,0.10621 -0.199137,0.13276 -0.132758,0.0265 -0.238965,-0.0398 -0.331895,-0.22569 -0.50448,-0.31862 -0.15931,-0.10621 -0.477929,-0.21241 -0.31862,-0.11948 -0.610687,-0.11948 -0.769997,0 -1.208098,0.35844 -0.438102,0.34517 -0.438102,0.73017 0,0.385 0.371723,0.67707 0.464653,0.31862 1.32758,0.45137 l 0.02655,0 q 0.862927,0.13276 1.57982,0.53104 0.730169,0.47793 0.730169,1.28775 0,0.79655 -0.730169,1.34086 -0.716893,0.53103 -1.632924,0.53103 -1.261201,-0.0133 -2.40292,-0.92931 z" />
        <path
           inkscape:connector-curvature="0"
           id="path5518"
           style="font-style:normal;font-variant:normal;font-weight:normal;font-stretch:normal;font-size:medium;line-height:125%;font-family:Quicksand;-inkscape-font-specification:'Quicksand, Normal';text-align:start;letter-spacing:0px;word-spacing:0px;writing-mode:lr-tb;text-anchor:start;fill:#000000;fill-opacity:1;stroke:none;stroke-width:1px;stroke-linecap:butt;stroke-linejoin:miter;stroke-opacity:1"
           d="m -20.981535,588.82641 q -0.185861,-0.19914 -0.185861,-0.47793 0,-0.27879 0.185861,-0.46466 0.199137,-0.19913 0.477929,-0.19913 0.278792,0 0.464653,0.19913 0.199137,0.18587 0.199137,0.46466 0,0.27879 -0.199137,0.47793 -0.185861,0.18586 -0.464653,0.18586 -0.278792,0 -0.477929,-0.18586 z" />
        <path
           inkscape:connector-curvature="0"
           id="path5520"
           style="font-style:normal;font-variant:normal;font-weight:normal;font-stretch:normal;font-size:medium;line-height:125%;font-family:Quicksand;-inkscape-font-specification:'Quicksand, Normal';text-align:start;letter-spacing:0px;word-spacing:0px;writing-mode:lr-tb;text-anchor:start;fill:#00112b;fill-opacity:1;stroke:none;stroke-width:1px;stroke-linecap:butt;stroke-linejoin:miter;stroke-opacity:1"
           d="m -9.3780679,588.05641 q -0.9027551,-0.96913 -0.9027551,-2.29671 0,-1.32758 0.9027551,-2.28344 0.9027547,-0.96914 2.1772318,-0.96914 1.2744771,0 2.1772318,0.96914 0.9027546,0.95586 0.9027546,2.28344 0,1.32758 -0.9027546,2.29671 -0.9027547,0.95586 -2.1772318,0.95586 -1.2744771,0 -2.1772318,-0.95586 z m 2.1772318,-4.92532 q -0.9956853,0 -1.7258545,0.76999 -0.7168934,0.77 -0.7168934,1.85862 0,1.07534 0.7168934,1.84533 0.7301692,0.77 1.7258545,0.77 0.9956853,0 1.7125787,-0.77 0.7301691,-0.76999 0.7301691,-1.84533 0,-1.08862 -0.7301691,-1.85862 -0.7168934,-0.76999 -1.7125787,-0.76999 z" />
        <path
           inkscape:connector-curvature="0"
           id="path5522"
           style="font-style:normal;font-variant:normal;font-weight:normal;font-stretch:normal;font-size:medium;line-height:125%;font-family:Quicksand;-inkscape-font-specification:'Quicksand, Normal';text-align:start;letter-spacing:0px;word-spacing:0px;writing-mode:lr-tb;text-anchor:start;fill:#00112b;fill-opacity:1;stroke:none;stroke-width:1px;stroke-linecap:butt;stroke-linejoin:miter;stroke-opacity:1"
           d="m 6.3081208,588.69365 0,-5.85463 q 0,-0.13276 0.092931,-0.22569 0.092931,-0.0929 0.2256887,-0.0929 0.132758,0 0.2256886,0.0929 0.092931,0.0929 0.092931,0.22569 l 0,1.43379 q 0.053103,-0.10621 0.092931,-0.15931 1.0222369,-1.5931 2.6020575,-1.5931 0.132758,0 0.2256887,0.0929 0.092931,0.0929 0.092931,0.22569 0,0.13276 -0.092931,0.22569 -0.092931,0.0929 -0.2256887,0.0929 -1.0620643,0 -1.8851641,1.06206 -0.4779289,0.63724 -0.7832724,1.51344 -0.026552,0.0531 -0.026552,0.10621 l 0,2.8543 q 0,0.13276 -0.092931,0.22569 -0.092931,0.0929 -0.2256886,0.0929 -0.132758,0 -0.2256887,-0.0929 -0.092931,-0.0929 -0.092931,-0.22569 z" />
        <path
           inkscape:connector-curvature="0"
           id="path5524"
           style="font-style:normal;font-variant:normal;font-weight:normal;font-stretch:normal;font-size:medium;line-height:125%;font-family:Quicksand;-inkscape-font-specification:'Quicksand, Normal';text-align:start;letter-spacing:0px;word-spacing:0px;writing-mode:lr-tb;text-anchor:start;fill:#00112b;fill-opacity:1;stroke:none;stroke-width:1px;stroke-linecap:butt;stroke-linejoin:miter;stroke-opacity:1"
           d="m 25.810485,582.82574 0,5.66877 q 0,1.2612 -0.902755,2.15068 -0.889479,0.90276 -2.163956,0.90276 -0.650514,0 -1.354132,-0.30535 -0.265516,-0.18586 -0.132758,-0.42482 0.146034,-0.30535 0.424826,-0.14604 0.50448,0.23897 1.062064,0.23897 1.008961,0 1.712579,-0.70362 0.716893,-0.70362 0.716893,-1.71258 l 0,-0.79655 q -0.41155,0.59741 -1.048788,0.94259 -0.637239,0.33189 -1.380684,0.33189 -1.274477,0 -2.163956,-0.94258 -0.889479,-0.95586 -0.889479,-2.28344 0,-1.34086 0.889479,-2.28344 0.902755,-0.95586 2.163956,-0.95586 0.730169,0 1.367408,0.34518 0.650514,0.34517 1.062064,0.9293 l 0,-0.95586 q 0,-0.13275 0.09293,-0.22569 0.106206,-0.0929 0.225689,-0.0929 0.132758,0 0.225688,0.0929 0.09293,0.0929 0.09293,0.22569 z m -5.482907,2.92068 q 0,1.07534 0.703618,1.84534 0.716893,0.75672 1.712578,0.75672 1.008961,0 1.712579,-0.75672 0.716893,-0.77 0.716893,-1.85862 0,-1.08861 -0.716893,-1.83206 -0.703618,-0.75672 -1.712579,-0.75672 -0.995685,0 -1.712578,0.75672 -0.703618,0.75672 -0.703618,1.84534 z" />
      </g>
    </g>
    <g
       id="g4682"
       transform="matrix(0.53305337,0,0,0.53305337,350.48649,-212.38156)">
      <rect
         style="opacity:1;fill:#1a1a1a;fill-opacity:1;fill-rule:nonzero;stroke:none;stroke-width:0.40000001;stroke-linecap:butt;stroke-linejoin:miter;stroke-miterlimit:4;stroke-dasharray:none;stroke-dashoffset:0;stroke-opacity:1"
         id="rect5595"
         width="247.55318"
         height="282.68759"
         x="142.38568"
         y="59.146919" />
      <g
         style="opacity:0.93999999;fill:#ffffff"
         id="g5597"
         transform="matrix(0.93735859,0,0,0.93735859,301.47257,-293.46191)">
        <g
           style="fill:#ffffff"
           transform="matrix(0.36241679,0,0,0.36241679,-25.336773,368.57974)"
           id="g5599">
          <text
             xml:space="preserve"
             style="font-style:normal;font-variant:normal;font-weight:normal;font-stretch:normal;font-size:90px;line-height:125%;font-family:'Ara Hamah AlHorra';-inkscape-font-specification:'Ara Hamah AlHorra, Normal';text-align:start;letter-spacing:0px;word-spacing:0px;writing-mode:lr-tb;text-anchor:start;fill:#ffffff;fill-opacity:1;stroke:none;stroke-width:1px;stroke-linecap:butt;stroke-linejoin:miter;stroke-opacity:1"
             x="-19"
             y="555.36218"
             id="text5601"
             sodipodi:linespacing="125%"><tspan
               sodipodi:role="line"
               id="tspan5603"
               x="-19"
               y="555.36218">مجتمع </tspan></text>
          <path
             inkscape:connector-curvature="0"
             style="font-style:normal;font-variant:normal;font-weight:normal;font-stretch:normal;font-size:medium;line-height:125%;font-family:'Ara Hamah AlHorra';-inkscape-font-specification:'Ara Hamah AlHorra, Normal';text-align:start;letter-spacing:0px;word-spacing:0px;writing-mode:lr-tb;text-anchor:start;fill:#ffffff;fill-opacity:1;stroke:none;stroke-width:1px;stroke-linecap:butt;stroke-linejoin:miter;stroke-opacity:1"
             d="m -53.660505,496.93259 c 0,-5.71538 6.477425,-7.33473 10.382932,-7.33473 l 0,-4.38179 c -12.192801,0 -15.336258,7.52524 -15.336258,13.52639 0,0.8573 0.09526,1.61935 0.381025,2.3814 l 15.336258,0 0,-4.19127 -10.763957,0 z"
             id="path5605" />
          <path
             inkscape:connector-curvature="0"
             style="font-style:normal;font-variant:normal;font-weight:normal;font-stretch:normal;font-size:medium;line-height:125%;font-family:'Ara Hamah AlHorra';-inkscape-font-specification:'Ara Hamah AlHorra, Normal';text-align:start;letter-spacing:0px;word-spacing:0px;writing-mode:lr-tb;text-anchor:start;fill:#ffffff;fill-opacity:1;stroke:none;stroke-width:1px;stroke-linecap:butt;stroke-linejoin:miter;stroke-opacity:1"
             d="m -43.658598,570.56567 0,-64.10746 -13.812158,0 0,64.10746 13.812158,0 z"
             id="path5607" />
          <path
             inkscape:connector-curvature="0"
             id="path5609"
             style="font-style:normal;font-variant:normal;font-weight:normal;font-stretch:normal;font-size:medium;line-height:125%;font-family:'Ara Hamah AlHorra';-inkscape-font-specification:'Ara Hamah AlHorra, Normal';text-align:start;letter-spacing:0px;word-spacing:0px;writing-mode:lr-tb;text-anchor:start;fill:#ffffff;fill-opacity:1;stroke:none;stroke-width:1px;stroke-linecap:butt;stroke-linejoin:miter;stroke-opacity:1"
             d="m -128.76783,556.563 0,14.00267 63.535919,0 0,-42.29377 -13.812157,0 0,28.2911 -7.429988,0 0,-25.2429 -13.812154,0 -0.0953,25.2429 -7.6205,0 0,-20.6706 -13.81216,0 -0.0952,20.6706 -6.85845,0 z" />
          <path
             inkscape:connector-curvature="0"
             id="path5611"
             style="font-style:normal;font-variant:normal;font-weight:normal;font-stretch:normal;font-size:medium;line-height:125%;font-family:'Ara Hamah AlHorra';-inkscape-font-specification:'Ara Hamah AlHorra, Normal';text-align:start;letter-spacing:0px;word-spacing:0px;writing-mode:lr-tb;text-anchor:start;fill:#ffffff;fill-opacity:1;stroke:none;stroke-width:1px;stroke-linecap:butt;stroke-linejoin:miter;stroke-opacity:1"
             d="m -124.9494,570.56567 0,-14.00267 -6.9537,0 0,-28.19585 -13.81216,0 0,28.19585 -7.33473,0 -0.0953,-25.2429 -13.81216,0 -0.0952,25.2429 -7.6205,0 0,-20.6706 -13.81216,0 0,22.57573 c 0,8.09678 -4.00076,12.1928 -12.09755,12.1928 -8.09678,0 -12.09754,-4.09602 -12.09754,-12.1928 0,-0.66679 0.0953,-1.23833 0.19051,-1.90513 l -14.00267,0 -0.0952,1.90513 c -0.38103,7.23947 2.57192,13.43113 7.6205,18.47971 5.04858,5.04858 11.24024,7.6205 18.38445,7.6205 10.66871,0 18.38446,-4.66755 23.14728,-14.00267 l 52.48619,0 z" />
        </g>
        <g
           style="fill:#ffffff"
           id="g5613"
           transform="matrix(0.6660977,0,0,0.6660977,-313.94409,324.96138)">
          <g
             style="fill:#ffffff"
             id="g5615">
            <g
               style="fill:#ffffff"
               id="g5617">
              <circle
                 style="fill:#ffffff"
                 id="circle5619"
                 r="21.892"
                 cy="261.77301"
                 cx="408.034" />
            </g>
            <g
               style="fill:#ffffff"
               id="g5621">
              <path
                 style="fill:#ffffff"
                 inkscape:connector-curvature="0"
                 id="path5623"
                 d="m 408.033,284.165 c -12.346,0 -22.391,-10.045 -22.391,-22.392 0,-12.347 10.045,-22.392 22.391,-22.392 12.348,0 22.393,10.045 22.393,22.392 0,12.347 -10.045,22.392 -22.393,22.392 z m 0,-43.783 c -11.795,0 -21.391,9.596 -21.391,21.392 0,11.795 9.596,21.392 21.391,21.392 11.797,0 21.393,-9.597 21.393,-21.392 0,-11.796 -9.596,-21.392 -21.393,-21.392 z" />
            </g>
          </g>
          <g
             style="fill:#ffffff"
             id="g5625">
            <g
               style="fill:#ffffff"
               id="g5627">
              <path
                 style="fill:#ffffff"
                 inkscape:connector-curvature="0"
                 id="path5629"
                 d="m 408.033,289.387 c -15.249,0 -27.611,-12.363 -27.611,-27.613 0,-15.25 12.362,-27.612 27.611,-27.612 15.252,0 27.614,12.362 27.614,27.612 0,2.474 -0.33,4.868 -0.939,7.149 l 21.005,21.217 c 4.95,-8.301 7.796,-18 7.796,-28.366 0,-30.638 -24.836,-55.475 -55.476,-55.475 -30.637,0 -55.474,24.837 -55.474,55.475 0,30.638 24.837,55.474 55.474,55.474 11.486,0 22.156,-3.49 31.009,-9.468 l -20.331,-20.534 c -3.285,1.377 -6.891,2.141 -10.678,2.141 z" />
            </g>
          </g>
          <g
             style="fill:#ffffff"
             id="g5631">
            <g
               style="fill:#ffffff"
               id="g5633">
              <path
                 style="fill:#ffffff"
                 inkscape:connector-curvature="0"
                 id="path5635"
                 d="m 433.813,271.671 c -0.519,1.352 -1.142,2.649 -1.856,3.888 l 19.263,19.225 2.78,-2.967 -20.187,-20.146 z" />
            </g>
            <g
               style="fill:#ffffff"
               id="g5637">
              <path
                 style="fill:#ffffff"
                 inkscape:connector-curvature="0"
                 id="path5639"
                 d="m 420.945,286.182 19.81,19.77 2.779,-2.967 -19.063,-19.024 c -1.114,0.825 -2.293,1.567 -3.526,2.221 z" />
            </g>
            <g
               style="fill:#ffffff"
               id="g5641">
              <path
                 style="fill:#ffffff"
                 inkscape:connector-curvature="0"
                 id="path5643"
                 d="m 425.297,283.317 18.948,18.908 2.779,-2.966 -18.749,-18.712 c -0.923,0.996 -1.918,1.921 -2.978,2.77 z" />
            </g>
            <g
               style="fill:#ffffff"
               id="g5645">
              <path
                 style="fill:#ffffff"
                 inkscape:connector-curvature="0"
                 id="path5647"
                 d="m 428.965,279.771 18.769,18.73 2.78,-2.966 -19.105,-19.067 c -0.734,1.164 -1.552,2.267 -2.444,3.303 z" />
            </g>
          </g>
          <g
             style="fill:#ffffff"
             id="g5649">
            <rect
               style="fill:#ffffff"
               id="rect5651"
               height="4.04"
               width="4.04"
               transform="matrix(0.7071,0.7071,-0.7071,0.7071,347.04,-224.395)"
               y="304.69699"
               x="442.36899" />
          </g>
          <g
             style="fill:#ffffff"
             id="g5653">
            <rect
               style="fill:#ffffff"
               id="rect5655"
               height="4.04"
               width="4.04"
               transform="matrix(0.7072,0.707,-0.707,0.7072,350.4543,-225.8308)"
               y="308.203"
               x="445.875" />
          </g>
          <g
             style="fill:#ffffff"
             id="g5657">
            <rect
               style="fill:#ffffff"
               id="rect5659"
               height="4.04"
               width="4.04"
               transform="matrix(0.707,0.7072,-0.7072,0.707,357.6724,-228.777)"
               y="315.23599"
               x="452.90799" />
          </g>
          <g
             style="fill:#ffffff"
             id="g5661">
            <rect
               style="fill:#ffffff"
               id="rect5663"
               height="4.04"
               width="4.04"
               transform="matrix(0.7071,0.7071,-0.7071,0.7071,345.5513,-228.0393)"
               y="301.077"
               x="446.02399" />
          </g>
          <g
             style="fill:#ffffff"
             id="g5665">
            <rect
               style="fill:#ffffff"
               id="rect5667"
               height="4.04"
               width="4.04"
               transform="matrix(0.707,0.7072,-0.7072,0.707,352.5332,-230.9103)"
               y="307.96701"
               x="452.91199" />
          </g>
          <g
             style="fill:#ffffff"
             id="g5669">
            <rect
               style="fill:#ffffff"
               id="rect5671"
               height="4.04"
               width="4.0409999"
               transform="matrix(0.7071,0.7071,-0.7071,0.7071,359.5474,-233.8367)"
               y="315.07401"
               x="460.01901" />
          </g>
          <g
             style="fill:#ffffff"
             id="g5673">
            <rect
               style="fill:#ffffff"
               id="rect5675"
               height="4.04"
               width="4.04"
               transform="matrix(0.707,0.7072,-0.7072,0.707,344.1754,-231.6105)"
               y="297.53101"
               x="449.578" />
          </g>
          <g
             style="fill:#ffffff"
             id="g5677">
            <rect
               style="fill:#ffffff"
               id="rect5679"
               height="4.04"
               width="4.04"
               transform="matrix(0.7071,0.7071,-0.7071,0.7071,342.5427,-235.2075)"
               y="293.862"
               x="453.172" />
          </g>
          <g
             style="fill:#ffffff"
             id="g5681">
            <rect
               style="fill:#ffffff"
               id="rect5683"
               height="4.04"
               width="4.04"
               transform="matrix(0.7071,0.7071,-0.7071,0.7071,347.6412,-233.0653)"
               y="301.08801"
               x="453.13501" />
          </g>
          <g
             style="fill:#ffffff"
             id="g5685">
            <rect
               style="fill:#ffffff"
               id="rect5687"
               height="4.04"
               width="4.04"
               transform="matrix(0.7071,0.7071,-0.7071,0.7071,354.5318,-235.9194)"
               y="307.978"
               x="460.026" />
          </g>
          <g
             style="fill:#ffffff"
             id="g5689">
            <rect
               style="fill:#ffffff"
               id="rect5691"
               height="4.04"
               width="4.04"
               transform="matrix(0.707,0.7072,-0.7072,0.707,346.1918,-236.7001)"
               y="297.41901"
               x="456.729" />
          </g>
          <g
             style="fill:#ffffff"
             id="g5693">
            <rect
               style="fill:#ffffff"
               id="rect5695"
               height="4.04"
               width="4.04"
               transform="matrix(0.7071,0.7071,-0.7071,0.7071,349.5886,-238.126)"
               y="300.90799"
               x="460.21799" />
          </g>
        </g>
        <path
           d="m -89.722611,582.60005 q 0.09293,-0.0929 0.225688,-0.0929 0.132758,0 0.225689,0.0929 0.09293,0.0929 0.09293,0.22569 l 0,5.86791 q 0,0.13276 -0.09293,0.22569 -0.09293,0.0929 -0.225689,0.0929 -0.132758,0 -0.225688,-0.0929 -0.09293,-0.0929 -0.09293,-0.22569 l 0,-0.96913 q -0.424826,0.59741 -1.07534,0.94258 -0.637239,0.34517 -1.367408,0.34517 -1.274477,0 -2.177232,-0.95586 -0.902754,-0.95586 -0.902754,-2.29671 0,-1.34086 0.902754,-2.29672 0.902755,-0.95586 2.177232,-0.95586 0.730169,0 1.367408,0.34518 0.650514,0.34517 1.07534,0.9293 l 0,-0.95586 q 0,-0.13275 0.09293,-0.22569 z m -4.978427,3.15965 q 0,1.08861 0.716894,1.85861 0.730169,0.75672 1.725854,0.75672 1.008961,0 1.725855,-0.75672 0.716893,-0.77 0.716893,-1.85861 0,-1.08862 -0.716893,-1.85862 -0.716894,-0.76999 -1.725855,-0.76999 -0.995685,0 -1.725854,0.76999 -0.716894,0.77 -0.716894,1.85862 z"
           style="font-style:normal;font-variant:normal;font-weight:normal;font-stretch:normal;font-size:medium;line-height:125%;font-family:Quicksand;-inkscape-font-specification:'Quicksand, Normal';text-align:start;letter-spacing:0px;word-spacing:0px;writing-mode:lr-tb;text-anchor:start;fill:#ffffff;fill-opacity:1;stroke:none;stroke-width:1px;stroke-linecap:butt;stroke-linejoin:miter;stroke-opacity:1"
           id="path5697"
           inkscape:connector-curvature="0" />
        <path
           d="m -77.857362,588.05641 q -0.902754,-0.96913 -0.902754,-2.29671 0,-1.32758 0.902754,-2.28344 0.902755,-0.96914 2.177232,-0.96914 1.274477,0 2.177232,0.96914 0.902754,0.95586 0.902754,2.28344 0,1.32758 -0.902754,2.29671 -0.902755,0.95586 -2.177232,0.95586 -1.274477,0 -2.177232,-0.95586 z m 2.177232,-4.92532 q -0.995685,0 -1.725854,0.76999 -0.716894,0.77 -0.716894,1.85862 0,1.07534 0.716894,1.84533 0.730169,0.77 1.725854,0.77 0.995685,0 1.712579,-0.77 0.730169,-0.76999 0.730169,-1.84533 0,-1.08862 -0.730169,-1.85862 -0.716894,-0.76999 -1.712579,-0.76999 z"
           style="font-style:normal;font-variant:normal;font-weight:normal;font-stretch:normal;font-size:medium;line-height:125%;font-family:Quicksand;-inkscape-font-specification:'Quicksand, Normal';text-align:start;letter-spacing:0px;word-spacing:0px;writing-mode:lr-tb;text-anchor:start;fill:#ffffff;fill-opacity:1;stroke:none;stroke-width:1px;stroke-linecap:butt;stroke-linejoin:miter;stroke-opacity:1"
           id="path5699"
           inkscape:connector-curvature="0" />
        <path
           d="m -62.582719,588.08296 q -0.225689,-0.19914 -0.03983,-0.42482 0.07965,-0.10621 0.212413,-0.11949 0.132758,-0.0133 0.238965,0.0797 1.035512,0.75672 1.885164,0.75672 0.849651,0 1.340856,-0.39827 0.491205,-0.3319 0.477929,-0.77 0,-0.45138 -0.438102,-0.79655 -0.424825,-0.34517 -1.393959,-0.50448 l -0.02655,-0.0133 q -1.035512,-0.18586 -1.473614,-0.50448 -0.703617,-0.41155 -0.703617,-1.16827 0,-0.75672 0.703617,-1.27447 0.637239,-0.43811 1.593097,-0.43811 0.384998,0 0.769996,0.13276 0.398274,0.11948 0.597411,0.23897 0.212413,0.1062 0.57086,0.33189 0.106206,0.0797 0.132758,0.21241 0.02655,0.13276 -0.03983,0.23897 -0.06638,0.10621 -0.199137,0.13276 -0.132758,0.0265 -0.238965,-0.0398 -0.331895,-0.22569 -0.50448,-0.31862 -0.15931,-0.10621 -0.477929,-0.21241 -0.31862,-0.11948 -0.610687,-0.11948 -0.769997,0 -1.208098,0.35844 -0.438102,0.34517 -0.438102,0.73017 0,0.385 0.371723,0.67707 0.464653,0.31862 1.32758,0.45137 l 0.02655,0 q 0.862927,0.13276 1.57982,0.53104 0.730169,0.47793 0.730169,1.28775 0,0.79655 -0.730169,1.34086 -0.716893,0.53103 -1.632924,0.53103 -1.261201,-0.0133 -2.40292,-0.92931 z"
           style="font-style:normal;font-variant:normal;font-weight:normal;font-stretch:normal;font-size:medium;line-height:125%;font-family:Quicksand;-inkscape-font-specification:'Quicksand, Normal';text-align:start;letter-spacing:0px;word-spacing:0px;writing-mode:lr-tb;text-anchor:start;fill:#ffffff;fill-opacity:1;stroke:none;stroke-width:1px;stroke-linecap:butt;stroke-linejoin:miter;stroke-opacity:1"
           id="path5701"
           inkscape:connector-curvature="0" />
        <path
           d="m -47.783519,586.35711 0,-3.54464 q 0,-0.13276 0.09293,-0.22569 0.09293,-0.0929 0.225689,-0.0929 0.132758,0 0.225688,0.0929 0.09293,0.0929 0.09293,0.22569 l 0,3.54464 q 0,0.83637 0.584135,1.42051 0.584136,0.58413 1.407235,0.59741 0.836376,-0.0133 1.420511,-0.59741 0.597412,-0.58414 0.597412,-1.42051 l 0,-3.54464 q 0,-0.13276 0.09293,-0.22569 0.106207,-0.0929 0.238965,-0.0929 0.132758,0 0.225688,0.0929 0.09293,0.0929 0.09293,0.22569 l 0,3.54464 q 0,1.10189 -0.783272,1.88516 -0.769997,0.77 -1.871889,0.77 -1.101891,0 -1.871888,-0.77 -0.769997,-0.78327 -0.769997,-1.88516 z"
           style="font-style:normal;font-variant:normal;font-weight:normal;font-stretch:normal;font-size:medium;line-height:125%;font-family:Quicksand;-inkscape-font-specification:'Quicksand, Normal';text-align:start;letter-spacing:0px;word-spacing:0px;writing-mode:lr-tb;text-anchor:start;fill:#ffffff;fill-opacity:1;stroke:none;stroke-width:1px;stroke-linecap:butt;stroke-linejoin:miter;stroke-opacity:1"
           id="path5703"
           inkscape:connector-curvature="0" />
        <path
           d="m -31.96021,588.08296 q -0.225689,-0.19914 -0.03983,-0.42482 0.07966,-0.10621 0.212413,-0.11949 0.132758,-0.0133 0.238965,0.0797 1.035512,0.75672 1.885164,0.75672 0.849651,0 1.340856,-0.39827 0.491205,-0.3319 0.477929,-0.77 0,-0.45138 -0.438102,-0.79655 -0.424825,-0.34517 -1.393959,-0.50448 l -0.02655,-0.0133 q -1.035512,-0.18586 -1.473614,-0.50448 -0.703617,-0.41155 -0.703617,-1.16827 0,-0.75672 0.703617,-1.27447 0.637239,-0.43811 1.593097,-0.43811 0.384998,0 0.769996,0.13276 0.398274,0.11948 0.597411,0.23897 0.212413,0.1062 0.57086,0.33189 0.106206,0.0797 0.132758,0.21241 0.02655,0.13276 -0.03983,0.23897 -0.06638,0.10621 -0.199137,0.13276 -0.132758,0.0265 -0.238965,-0.0398 -0.331895,-0.22569 -0.50448,-0.31862 -0.15931,-0.10621 -0.477929,-0.21241 -0.31862,-0.11948 -0.610687,-0.11948 -0.769997,0 -1.208098,0.35844 -0.438102,0.34517 -0.438102,0.73017 0,0.385 0.371723,0.67707 0.464653,0.31862 1.32758,0.45137 l 0.02655,0 q 0.862927,0.13276 1.57982,0.53104 0.730169,0.47793 0.730169,1.28775 0,0.79655 -0.730169,1.34086 -0.716893,0.53103 -1.632924,0.53103 -1.261201,-0.0133 -2.40292,-0.92931 z"
           style="font-style:normal;font-variant:normal;font-weight:normal;font-stretch:normal;font-size:medium;line-height:125%;font-family:Quicksand;-inkscape-font-specification:'Quicksand, Normal';text-align:start;letter-spacing:0px;word-spacing:0px;writing-mode:lr-tb;text-anchor:start;fill:#ffffff;fill-opacity:1;stroke:none;stroke-width:1px;stroke-linecap:butt;stroke-linejoin:miter;stroke-opacity:1"
           id="path5705"
           inkscape:connector-curvature="0" />
        <path
           d="m -20.981535,588.82641 q -0.185861,-0.19914 -0.185861,-0.47793 0,-0.27879 0.185861,-0.46466 0.199137,-0.19913 0.477929,-0.19913 0.278792,0 0.464653,0.19913 0.199137,0.18587 0.199137,0.46466 0,0.27879 -0.199137,0.47793 -0.185861,0.18586 -0.464653,0.18586 -0.278792,0 -0.477929,-0.18586 z"
           style="font-style:normal;font-variant:normal;font-weight:normal;font-stretch:normal;font-size:medium;line-height:125%;font-family:Quicksand;-inkscape-font-specification:'Quicksand, Normal';text-align:start;letter-spacing:0px;word-spacing:0px;writing-mode:lr-tb;text-anchor:start;fill:#ffffff;fill-opacity:1;stroke:none;stroke-width:1px;stroke-linecap:butt;stroke-linejoin:miter;stroke-opacity:1"
           id="path5707"
           inkscape:connector-curvature="0" />
        <path
           d="m -9.3780679,588.05641 q -0.9027551,-0.96913 -0.9027551,-2.29671 0,-1.32758 0.9027551,-2.28344 0.9027547,-0.96914 2.1772318,-0.96914 1.2744771,0 2.1772318,0.96914 0.9027546,0.95586 0.9027546,2.28344 0,1.32758 -0.9027546,2.29671 -0.9027547,0.95586 -2.1772318,0.95586 -1.2744771,0 -2.1772318,-0.95586 z m 2.1772318,-4.92532 q -0.9956853,0 -1.7258545,0.76999 -0.7168934,0.77 -0.7168934,1.85862 0,1.07534 0.7168934,1.84533 0.7301692,0.77 1.7258545,0.77 0.9956853,0 1.7125787,-0.77 0.7301691,-0.76999 0.7301691,-1.84533 0,-1.08862 -0.7301691,-1.85862 -0.7168934,-0.76999 -1.7125787,-0.76999 z"
           style="font-style:normal;font-variant:normal;font-weight:normal;font-stretch:normal;font-size:medium;line-height:125%;font-family:Quicksand;-inkscape-font-specification:'Quicksand, Normal';text-align:start;letter-spacing:0px;word-spacing:0px;writing-mode:lr-tb;text-anchor:start;fill:#ffffff;fill-opacity:1;stroke:none;stroke-width:1px;stroke-linecap:butt;stroke-linejoin:miter;stroke-opacity:1"
           id="path5709"
           inkscape:connector-curvature="0" />
        <path
           d="m 6.3081208,588.69365 0,-5.85463 q 0,-0.13276 0.092931,-0.22569 0.092931,-0.0929 0.2256887,-0.0929 0.132758,0 0.2256886,0.0929 0.092931,0.0929 0.092931,0.22569 l 0,1.43379 q 0.053103,-0.10621 0.092931,-0.15931 1.0222369,-1.5931 2.6020575,-1.5931 0.132758,0 0.2256887,0.0929 0.092931,0.0929 0.092931,0.22569 0,0.13276 -0.092931,0.22569 -0.092931,0.0929 -0.2256887,0.0929 -1.0620643,0 -1.8851641,1.06206 -0.4779289,0.63724 -0.7832724,1.51344 -0.026552,0.0531 -0.026552,0.10621 l 0,2.8543 q 0,0.13276 -0.092931,0.22569 -0.092931,0.0929 -0.2256886,0.0929 -0.132758,0 -0.2256887,-0.0929 -0.092931,-0.0929 -0.092931,-0.22569 z"
           style="font-style:normal;font-variant:normal;font-weight:normal;font-stretch:normal;font-size:medium;line-height:125%;font-family:Quicksand;-inkscape-font-specification:'Quicksand, Normal';text-align:start;letter-spacing:0px;word-spacing:0px;writing-mode:lr-tb;text-anchor:start;fill:#ffffff;fill-opacity:1;stroke:none;stroke-width:1px;stroke-linecap:butt;stroke-linejoin:miter;stroke-opacity:1"
           id="path5711"
           inkscape:connector-curvature="0" />
        <path
           d="m 25.810485,582.82574 0,5.66877 q 0,1.2612 -0.902755,2.15068 -0.889479,0.90276 -2.163956,0.90276 -0.650514,0 -1.354132,-0.30535 -0.265516,-0.18586 -0.132758,-0.42482 0.146034,-0.30535 0.424826,-0.14604 0.50448,0.23897 1.062064,0.23897 1.008961,0 1.712579,-0.70362 0.716893,-0.70362 0.716893,-1.71258 l 0,-0.79655 q -0.41155,0.59741 -1.048788,0.94259 -0.637239,0.33189 -1.380684,0.33189 -1.274477,0 -2.163956,-0.94258 -0.889479,-0.95586 -0.889479,-2.28344 0,-1.34086 0.889479,-2.28344 0.902755,-0.95586 2.163956,-0.95586 0.730169,0 1.367408,0.34518 0.650514,0.34517 1.062064,0.9293 l 0,-0.95586 q 0,-0.13275 0.09293,-0.22569 0.106206,-0.0929 0.225689,-0.0929 0.132758,0 0.225688,0.0929 0.09293,0.0929 0.09293,0.22569 z m -5.482907,2.92068 q 0,1.07534 0.703618,1.84534 0.716893,0.75672 1.712578,0.75672 1.008961,0 1.712579,-0.75672 0.716893,-0.77 0.716893,-1.85862 0,-1.08861 -0.716893,-1.83206 -0.703618,-0.75672 -1.712579,-0.75672 -0.995685,0 -1.712578,0.75672 -0.703618,0.75672 -0.703618,1.84534 z"
           style="font-style:normal;font-variant:normal;font-weight:normal;font-stretch:normal;font-size:medium;line-height:125%;font-family:Quicksand;-inkscape-font-specification:'Quicksand, Normal';text-align:start;letter-spacing:0px;word-spacing:0px;writing-mode:lr-tb;text-anchor:start;fill:#ffffff;fill-opacity:1;stroke:none;stroke-width:1px;stroke-linecap:butt;stroke-linejoin:miter;stroke-opacity:1"
           id="path5713"
           inkscape:connector-curvature="0" />
      </g>
    </g>
    <g
       id="g4806"
       transform="matrix(0.53305337,0,0,0.53305337,86.568411,-61.693977)">
      <rect
         y="59.146919"
         x="637.49194"
         height="282.68759"
         width="247.55318"
         id="rect5723"
         style="opacity:1;fill:#00003c;fill-opacity:1;fill-rule:nonzero;stroke:none;stroke-width:0.40000001;stroke-linecap:butt;stroke-linejoin:miter;stroke-miterlimit:4;stroke-dasharray:none;stroke-dashoffset:0;stroke-opacity:1" />
      <g
         transform="matrix(0.93735859,0,0,0.93735859,796.57891,-293.46191)"
         id="g5725"
         style="opacity:0.93999999;fill:#ffffff;fill-opacity:1">
        <g
           id="g5727"
           transform="matrix(0.36241679,0,0,0.36241679,-25.336773,368.57974)"
           style="fill:#ffffff;fill-opacity:1">
          <text
             sodipodi:linespacing="125%"
             id="text5729"
             y="555.36218"
             x="-19"
             style="font-style:normal;font-variant:normal;font-weight:normal;font-stretch:normal;font-size:90px;line-height:125%;font-family:'Ara Hamah AlHorra';-inkscape-font-specification:'Ara Hamah AlHorra, Normal';text-align:start;letter-spacing:0px;word-spacing:0px;writing-mode:lr-tb;text-anchor:start;fill:#ffffff;fill-opacity:1;stroke:none;stroke-width:1px;stroke-linecap:butt;stroke-linejoin:miter;stroke-opacity:1"
             xml:space="preserve"><tspan
               y="555.36218"
               x="-19"
               id="tspan5731"
               sodipodi:role="line">مجتمع </tspan></text>
          <path
             id="path5733"
             d="m -53.660505,496.93259 c 0,-5.71538 6.477425,-7.33473 10.382932,-7.33473 l 0,-4.38179 c -12.192801,0 -15.336258,7.52524 -15.336258,13.52639 0,0.8573 0.09526,1.61935 0.381025,2.3814 l 15.336258,0 0,-4.19127 -10.763957,0 z"
             style="font-style:normal;font-variant:normal;font-weight:normal;font-stretch:normal;font-size:medium;line-height:125%;font-family:'Ara Hamah AlHorra';-inkscape-font-specification:'Ara Hamah AlHorra, Normal';text-align:start;letter-spacing:0px;word-spacing:0px;writing-mode:lr-tb;text-anchor:start;fill:#ffffff;fill-opacity:1;stroke:none;stroke-width:1px;stroke-linecap:butt;stroke-linejoin:miter;stroke-opacity:1"
             inkscape:connector-curvature="0" />
          <path
             id="path5735"
             d="m -43.658598,570.56567 0,-64.10746 -13.812158,0 0,64.10746 13.812158,0 z"
             style="font-style:normal;font-variant:normal;font-weight:normal;font-stretch:normal;font-size:medium;line-height:125%;font-family:'Ara Hamah AlHorra';-inkscape-font-specification:'Ara Hamah AlHorra, Normal';text-align:start;letter-spacing:0px;word-spacing:0px;writing-mode:lr-tb;text-anchor:start;fill:#ffffff;fill-opacity:1;stroke:none;stroke-width:1px;stroke-linecap:butt;stroke-linejoin:miter;stroke-opacity:1"
             inkscape:connector-curvature="0" />
          <path
             d="m -128.76783,556.563 0,14.00267 63.535919,0 0,-42.29377 -13.812157,0 0,28.2911 -7.429988,0 0,-25.2429 -13.812154,0 -0.0953,25.2429 -7.6205,0 0,-20.6706 -13.81216,0 -0.0952,20.6706 -6.85845,0 z"
             style="font-style:normal;font-variant:normal;font-weight:normal;font-stretch:normal;font-size:medium;line-height:125%;font-family:'Ara Hamah AlHorra';-inkscape-font-specification:'Ara Hamah AlHorra, Normal';text-align:start;letter-spacing:0px;word-spacing:0px;writing-mode:lr-tb;text-anchor:start;fill:#ffffff;fill-opacity:1;stroke:none;stroke-width:1px;stroke-linecap:butt;stroke-linejoin:miter;stroke-opacity:1"
             id="path5737"
             inkscape:connector-curvature="0" />
          <path
             d="m -124.9494,570.56567 0,-14.00267 -6.9537,0 0,-28.19585 -13.81216,0 0,28.19585 -7.33473,0 -0.0953,-25.2429 -13.81216,0 -0.0952,25.2429 -7.6205,0 0,-20.6706 -13.81216,0 0,22.57573 c 0,8.09678 -4.00076,12.1928 -12.09755,12.1928 -8.09678,0 -12.09754,-4.09602 -12.09754,-12.1928 0,-0.66679 0.0953,-1.23833 0.19051,-1.90513 l -14.00267,0 -0.0952,1.90513 c -0.38103,7.23947 2.57192,13.43113 7.6205,18.47971 5.04858,5.04858 11.24024,7.6205 18.38445,7.6205 10.66871,0 18.38446,-4.66755 23.14728,-14.00267 l 52.48619,0 z"
             style="font-style:normal;font-variant:normal;font-weight:normal;font-stretch:normal;font-size:medium;line-height:125%;font-family:'Ara Hamah AlHorra';-inkscape-font-specification:'Ara Hamah AlHorra, Normal';text-align:start;letter-spacing:0px;word-spacing:0px;writing-mode:lr-tb;text-anchor:start;fill:#ffffff;fill-opacity:1;stroke:none;stroke-width:1px;stroke-linecap:butt;stroke-linejoin:miter;stroke-opacity:1"
             id="path5739"
             inkscape:connector-curvature="0" />
        </g>
        <g
           transform="matrix(0.6660977,0,0,0.6660977,-313.94409,324.96138)"
           id="g5741"
           style="fill:#ffffff;fill-opacity:1">
          <g
             id="g5743"
             style="fill:#ffffff;fill-opacity:1">
            <g
               id="g5745"
               style="fill:#ffffff;fill-opacity:1">
              <circle
                 cx="408.034"
                 cy="261.77301"
                 r="21.892"
                 id="circle5747"
                 style="fill:#ffffff;fill-opacity:1" />
            </g>
            <g
               id="g5749"
               style="fill:#ffffff;fill-opacity:1">
              <path
                 d="m 408.033,284.165 c -12.346,0 -22.391,-10.045 -22.391,-22.392 0,-12.347 10.045,-22.392 22.391,-22.392 12.348,0 22.393,10.045 22.393,22.392 0,12.347 -10.045,22.392 -22.393,22.392 z m 0,-43.783 c -11.795,0 -21.391,9.596 -21.391,21.392 0,11.795 9.596,21.392 21.391,21.392 11.797,0 21.393,-9.597 21.393,-21.392 0,-11.796 -9.596,-21.392 -21.393,-21.392 z"
                 id="path5751"
                 inkscape:connector-curvature="0"
                 style="fill:#ffffff;fill-opacity:1" />
            </g>
          </g>
          <g
             id="g5753"
             style="fill:#ffffff;fill-opacity:1">
            <g
               id="g5755"
               style="fill:#ffffff;fill-opacity:1">
              <path
                 d="m 408.033,289.387 c -15.249,0 -27.611,-12.363 -27.611,-27.613 0,-15.25 12.362,-27.612 27.611,-27.612 15.252,0 27.614,12.362 27.614,27.612 0,2.474 -0.33,4.868 -0.939,7.149 l 21.005,21.217 c 4.95,-8.301 7.796,-18 7.796,-28.366 0,-30.638 -24.836,-55.475 -55.476,-55.475 -30.637,0 -55.474,24.837 -55.474,55.475 0,30.638 24.837,55.474 55.474,55.474 11.486,0 22.156,-3.49 31.009,-9.468 l -20.331,-20.534 c -3.285,1.377 -6.891,2.141 -10.678,2.141 z"
                 id="path5757"
                 inkscape:connector-curvature="0"
                 style="fill:#ffffff;fill-opacity:1" />
            </g>
          </g>
          <g
             id="g5759"
             style="fill:#ffffff;fill-opacity:1">
            <g
               id="g5761"
               style="fill:#ffffff;fill-opacity:1">
              <path
                 d="m 433.813,271.671 c -0.519,1.352 -1.142,2.649 -1.856,3.888 l 19.263,19.225 2.78,-2.967 -20.187,-20.146 z"
                 id="path5763"
                 inkscape:connector-curvature="0"
                 style="fill:#ffffff;fill-opacity:1" />
            </g>
            <g
               id="g5765"
               style="fill:#ffffff;fill-opacity:1">
              <path
                 d="m 420.945,286.182 19.81,19.77 2.779,-2.967 -19.063,-19.024 c -1.114,0.825 -2.293,1.567 -3.526,2.221 z"
                 id="path5767"
                 inkscape:connector-curvature="0"
                 style="fill:#ffffff;fill-opacity:1" />
            </g>
            <g
               id="g5769"
               style="fill:#ffffff;fill-opacity:1">
              <path
                 d="m 425.297,283.317 18.948,18.908 2.779,-2.966 -18.749,-18.712 c -0.923,0.996 -1.918,1.921 -2.978,2.77 z"
                 id="path5771"
                 inkscape:connector-curvature="0"
                 style="fill:#ffffff;fill-opacity:1" />
            </g>
            <g
               id="g5773"
               style="fill:#ffffff;fill-opacity:1">
              <path
                 d="m 428.965,279.771 18.769,18.73 2.78,-2.966 -19.105,-19.067 c -0.734,1.164 -1.552,2.267 -2.444,3.303 z"
                 id="path5775"
                 inkscape:connector-curvature="0"
                 style="fill:#ffffff;fill-opacity:1" />
            </g>
          </g>
          <g
             id="g5777"
             style="fill:#ffffff;fill-opacity:1">
            <rect
               x="442.36899"
               y="304.69699"
               transform="matrix(0.7071,0.7071,-0.7071,0.7071,347.04,-224.395)"
               width="4.04"
               height="4.04"
               id="rect5779"
               style="fill:#ffffff;fill-opacity:1" />
          </g>
          <g
             id="g5781"
             style="fill:#ffffff;fill-opacity:1">
            <rect
               x="445.875"
               y="308.203"
               transform="matrix(0.7072,0.707,-0.707,0.7072,350.4543,-225.8308)"
               width="4.04"
               height="4.04"
               id="rect5783"
               style="fill:#ffffff;fill-opacity:1" />
          </g>
          <g
             id="g5785"
             style="fill:#ffffff;fill-opacity:1">
            <rect
               x="452.90799"
               y="315.23599"
               transform="matrix(0.707,0.7072,-0.7072,0.707,357.6724,-228.777)"
               width="4.04"
               height="4.04"
               id="rect5787"
               style="fill:#ffffff;fill-opacity:1" />
          </g>
          <g
             id="g5789"
             style="fill:#ffffff;fill-opacity:1">
            <rect
               x="446.02399"
               y="301.077"
               transform="matrix(0.7071,0.7071,-0.7071,0.7071,345.5513,-228.0393)"
               width="4.04"
               height="4.04"
               id="rect5791"
               style="fill:#ffffff;fill-opacity:1" />
          </g>
          <g
             id="g5793"
             style="fill:#ffffff;fill-opacity:1">
            <rect
               x="452.91199"
               y="307.96701"
               transform="matrix(0.707,0.7072,-0.7072,0.707,352.5332,-230.9103)"
               width="4.04"
               height="4.04"
               id="rect5795"
               style="fill:#ffffff;fill-opacity:1" />
          </g>
          <g
             id="g5797"
             style="fill:#ffffff;fill-opacity:1">
            <rect
               x="460.01901"
               y="315.07401"
               transform="matrix(0.7071,0.7071,-0.7071,0.7071,359.5474,-233.8367)"
               width="4.0409999"
               height="4.04"
               id="rect5799"
               style="fill:#ffffff;fill-opacity:1" />
          </g>
          <g
             id="g5801"
             style="fill:#ffffff;fill-opacity:1">
            <rect
               x="449.578"
               y="297.53101"
               transform="matrix(0.707,0.7072,-0.7072,0.707,344.1754,-231.6105)"
               width="4.04"
               height="4.04"
               id="rect5803"
               style="fill:#ffffff;fill-opacity:1" />
          </g>
          <g
             id="g5805"
             style="fill:#ffffff;fill-opacity:1">
            <rect
               x="453.172"
               y="293.862"
               transform="matrix(0.7071,0.7071,-0.7071,0.7071,342.5427,-235.2075)"
               width="4.04"
               height="4.04"
               id="rect5807"
               style="fill:#ffffff;fill-opacity:1" />
          </g>
          <g
             id="g5809"
             style="fill:#ffffff;fill-opacity:1">
            <rect
               x="453.13501"
               y="301.08801"
               transform="matrix(0.7071,0.7071,-0.7071,0.7071,347.6412,-233.0653)"
               width="4.04"
               height="4.04"
               id="rect5811"
               style="fill:#ffffff;fill-opacity:1" />
          </g>
          <g
             id="g5813"
             style="fill:#ffffff;fill-opacity:1">
            <rect
               x="460.026"
               y="307.978"
               transform="matrix(0.7071,0.7071,-0.7071,0.7071,354.5318,-235.9194)"
               width="4.04"
               height="4.04"
               id="rect5815"
               style="fill:#ffffff;fill-opacity:1" />
          </g>
          <g
             id="g5817"
             style="fill:#ffffff;fill-opacity:1">
            <rect
               x="456.729"
               y="297.41901"
               transform="matrix(0.707,0.7072,-0.7072,0.707,346.1918,-236.7001)"
               width="4.04"
               height="4.04"
               id="rect5819"
               style="fill:#ffffff;fill-opacity:1" />
          </g>
          <g
             id="g5821"
             style="fill:#ffffff;fill-opacity:1">
            <rect
               x="460.21799"
               y="300.90799"
               transform="matrix(0.7071,0.7071,-0.7071,0.7071,349.5886,-238.126)"
               width="4.04"
               height="4.04"
               id="rect5823"
               style="fill:#ffffff;fill-opacity:1" />
          </g>
        </g>
        <path
           inkscape:connector-curvature="0"
           id="path5825"
           style="font-style:normal;font-variant:normal;font-weight:normal;font-stretch:normal;font-size:medium;line-height:125%;font-family:Quicksand;-inkscape-font-specification:'Quicksand, Normal';text-align:start;letter-spacing:0px;word-spacing:0px;writing-mode:lr-tb;text-anchor:start;fill:#ffffff;fill-opacity:1;stroke:none;stroke-width:1px;stroke-linecap:butt;stroke-linejoin:miter;stroke-opacity:1"
           d="m -89.722611,582.60005 q 0.09293,-0.0929 0.225688,-0.0929 0.132758,0 0.225689,0.0929 0.09293,0.0929 0.09293,0.22569 l 0,5.86791 q 0,0.13276 -0.09293,0.22569 -0.09293,0.0929 -0.225689,0.0929 -0.132758,0 -0.225688,-0.0929 -0.09293,-0.0929 -0.09293,-0.22569 l 0,-0.96913 q -0.424826,0.59741 -1.07534,0.94258 -0.637239,0.34517 -1.367408,0.34517 -1.274477,0 -2.177232,-0.95586 -0.902754,-0.95586 -0.902754,-2.29671 0,-1.34086 0.902754,-2.29672 0.902755,-0.95586 2.177232,-0.95586 0.730169,0 1.367408,0.34518 0.650514,0.34517 1.07534,0.9293 l 0,-0.95586 q 0,-0.13275 0.09293,-0.22569 z m -4.978427,3.15965 q 0,1.08861 0.716894,1.85861 0.730169,0.75672 1.725854,0.75672 1.008961,0 1.725855,-0.75672 0.716893,-0.77 0.716893,-1.85861 0,-1.08862 -0.716893,-1.85862 -0.716894,-0.76999 -1.725855,-0.76999 -0.995685,0 -1.725854,0.76999 -0.716894,0.77 -0.716894,1.85862 z" />
        <path
           inkscape:connector-curvature="0"
           id="path5827"
           style="font-style:normal;font-variant:normal;font-weight:normal;font-stretch:normal;font-size:medium;line-height:125%;font-family:Quicksand;-inkscape-font-specification:'Quicksand, Normal';text-align:start;letter-spacing:0px;word-spacing:0px;writing-mode:lr-tb;text-anchor:start;fill:#ffffff;fill-opacity:1;stroke:none;stroke-width:1px;stroke-linecap:butt;stroke-linejoin:miter;stroke-opacity:1"
           d="m -77.857362,588.05641 q -0.902754,-0.96913 -0.902754,-2.29671 0,-1.32758 0.902754,-2.28344 0.902755,-0.96914 2.177232,-0.96914 1.274477,0 2.177232,0.96914 0.902754,0.95586 0.902754,2.28344 0,1.32758 -0.902754,2.29671 -0.902755,0.95586 -2.177232,0.95586 -1.274477,0 -2.177232,-0.95586 z m 2.177232,-4.92532 q -0.995685,0 -1.725854,0.76999 -0.716894,0.77 -0.716894,1.85862 0,1.07534 0.716894,1.84533 0.730169,0.77 1.725854,0.77 0.995685,0 1.712579,-0.77 0.730169,-0.76999 0.730169,-1.84533 0,-1.08862 -0.730169,-1.85862 -0.716894,-0.76999 -1.712579,-0.76999 z" />
        <path
           inkscape:connector-curvature="0"
           id="path5829"
           style="font-style:normal;font-variant:normal;font-weight:normal;font-stretch:normal;font-size:medium;line-height:125%;font-family:Quicksand;-inkscape-font-specification:'Quicksand, Normal';text-align:start;letter-spacing:0px;word-spacing:0px;writing-mode:lr-tb;text-anchor:start;fill:#ffffff;fill-opacity:1;stroke:none;stroke-width:1px;stroke-linecap:butt;stroke-linejoin:miter;stroke-opacity:1"
           d="m -62.582719,588.08296 q -0.225689,-0.19914 -0.03983,-0.42482 0.07965,-0.10621 0.212413,-0.11949 0.132758,-0.0133 0.238965,0.0797 1.035512,0.75672 1.885164,0.75672 0.849651,0 1.340856,-0.39827 0.491205,-0.3319 0.477929,-0.77 0,-0.45138 -0.438102,-0.79655 -0.424825,-0.34517 -1.393959,-0.50448 l -0.02655,-0.0133 q -1.035512,-0.18586 -1.473614,-0.50448 -0.703617,-0.41155 -0.703617,-1.16827 0,-0.75672 0.703617,-1.27447 0.637239,-0.43811 1.593097,-0.43811 0.384998,0 0.769996,0.13276 0.398274,0.11948 0.597411,0.23897 0.212413,0.1062 0.57086,0.33189 0.106206,0.0797 0.132758,0.21241 0.02655,0.13276 -0.03983,0.23897 -0.06638,0.10621 -0.199137,0.13276 -0.132758,0.0265 -0.238965,-0.0398 -0.331895,-0.22569 -0.50448,-0.31862 -0.15931,-0.10621 -0.477929,-0.21241 -0.31862,-0.11948 -0.610687,-0.11948 -0.769997,0 -1.208098,0.35844 -0.438102,0.34517 -0.438102,0.73017 0,0.385 0.371723,0.67707 0.464653,0.31862 1.32758,0.45137 l 0.02655,0 q 0.862927,0.13276 1.57982,0.53104 0.730169,0.47793 0.730169,1.28775 0,0.79655 -0.730169,1.34086 -0.716893,0.53103 -1.632924,0.53103 -1.261201,-0.0133 -2.40292,-0.92931 z" />
        <path
           inkscape:connector-curvature="0"
           id="path5831"
           style="font-style:normal;font-variant:normal;font-weight:normal;font-stretch:normal;font-size:medium;line-height:125%;font-family:Quicksand;-inkscape-font-specification:'Quicksand, Normal';text-align:start;letter-spacing:0px;word-spacing:0px;writing-mode:lr-tb;text-anchor:start;fill:#ffffff;fill-opacity:1;stroke:none;stroke-width:1px;stroke-linecap:butt;stroke-linejoin:miter;stroke-opacity:1"
           d="m -47.783519,586.35711 0,-3.54464 q 0,-0.13276 0.09293,-0.22569 0.09293,-0.0929 0.225689,-0.0929 0.132758,0 0.225688,0.0929 0.09293,0.0929 0.09293,0.22569 l 0,3.54464 q 0,0.83637 0.584135,1.42051 0.584136,0.58413 1.407235,0.59741 0.836376,-0.0133 1.420511,-0.59741 0.597412,-0.58414 0.597412,-1.42051 l 0,-3.54464 q 0,-0.13276 0.09293,-0.22569 0.106207,-0.0929 0.238965,-0.0929 0.132758,0 0.225688,0.0929 0.09293,0.0929 0.09293,0.22569 l 0,3.54464 q 0,1.10189 -0.783272,1.88516 -0.769997,0.77 -1.871889,0.77 -1.101891,0 -1.871888,-0.77 -0.769997,-0.78327 -0.769997,-1.88516 z" />
        <path
           inkscape:connector-curvature="0"
           id="path5833"
           style="font-style:normal;font-variant:normal;font-weight:normal;font-stretch:normal;font-size:medium;line-height:125%;font-family:Quicksand;-inkscape-font-specification:'Quicksand, Normal';text-align:start;letter-spacing:0px;word-spacing:0px;writing-mode:lr-tb;text-anchor:start;fill:#ffffff;fill-opacity:1;stroke:none;stroke-width:1px;stroke-linecap:butt;stroke-linejoin:miter;stroke-opacity:1"
           d="m -31.96021,588.08296 q -0.225689,-0.19914 -0.03983,-0.42482 0.07966,-0.10621 0.212413,-0.11949 0.132758,-0.0133 0.238965,0.0797 1.035512,0.75672 1.885164,0.75672 0.849651,0 1.340856,-0.39827 0.491205,-0.3319 0.477929,-0.77 0,-0.45138 -0.438102,-0.79655 -0.424825,-0.34517 -1.393959,-0.50448 l -0.02655,-0.0133 q -1.035512,-0.18586 -1.473614,-0.50448 -0.703617,-0.41155 -0.703617,-1.16827 0,-0.75672 0.703617,-1.27447 0.637239,-0.43811 1.593097,-0.43811 0.384998,0 0.769996,0.13276 0.398274,0.11948 0.597411,0.23897 0.212413,0.1062 0.57086,0.33189 0.106206,0.0797 0.132758,0.21241 0.02655,0.13276 -0.03983,0.23897 -0.06638,0.10621 -0.199137,0.13276 -0.132758,0.0265 -0.238965,-0.0398 -0.331895,-0.22569 -0.50448,-0.31862 -0.15931,-0.10621 -0.477929,-0.21241 -0.31862,-0.11948 -0.610687,-0.11948 -0.769997,0 -1.208098,0.35844 -0.438102,0.34517 -0.438102,0.73017 0,0.385 0.371723,0.67707 0.464653,0.31862 1.32758,0.45137 l 0.02655,0 q 0.862927,0.13276 1.57982,0.53104 0.730169,0.47793 0.730169,1.28775 0,0.79655 -0.730169,1.34086 -0.716893,0.53103 -1.632924,0.53103 -1.261201,-0.0133 -2.40292,-0.92931 z" />
        <path
           inkscape:connector-curvature="0"
           id="path5835"
           style="font-style:normal;font-variant:normal;font-weight:normal;font-stretch:normal;font-size:medium;line-height:125%;font-family:Quicksand;-inkscape-font-specification:'Quicksand, Normal';text-align:start;letter-spacing:0px;word-spacing:0px;writing-mode:lr-tb;text-anchor:start;fill:#ffffff;fill-opacity:1;stroke:none;stroke-width:1px;stroke-linecap:butt;stroke-linejoin:miter;stroke-opacity:1"
           d="m -20.981535,588.82641 q -0.185861,-0.19914 -0.185861,-0.47793 0,-0.27879 0.185861,-0.46466 0.199137,-0.19913 0.477929,-0.19913 0.278792,0 0.464653,0.19913 0.199137,0.18587 0.199137,0.46466 0,0.27879 -0.199137,0.47793 -0.185861,0.18586 -0.464653,0.18586 -0.278792,0 -0.477929,-0.18586 z" />
        <path
           inkscape:connector-curvature="0"
           id="path5837"
           style="font-style:normal;font-variant:normal;font-weight:normal;font-stretch:normal;font-size:medium;line-height:125%;font-family:Quicksand;-inkscape-font-specification:'Quicksand, Normal';text-align:start;letter-spacing:0px;word-spacing:0px;writing-mode:lr-tb;text-anchor:start;fill:#ffffff;fill-opacity:1;stroke:none;stroke-width:1px;stroke-linecap:butt;stroke-linejoin:miter;stroke-opacity:1"
           d="m -9.3780679,588.05641 q -0.9027551,-0.96913 -0.9027551,-2.29671 0,-1.32758 0.9027551,-2.28344 0.9027547,-0.96914 2.1772318,-0.96914 1.2744771,0 2.1772318,0.96914 0.9027546,0.95586 0.9027546,2.28344 0,1.32758 -0.9027546,2.29671 -0.9027547,0.95586 -2.1772318,0.95586 -1.2744771,0 -2.1772318,-0.95586 z m 2.1772318,-4.92532 q -0.9956853,0 -1.7258545,0.76999 -0.7168934,0.77 -0.7168934,1.85862 0,1.07534 0.7168934,1.84533 0.7301692,0.77 1.7258545,0.77 0.9956853,0 1.7125787,-0.77 0.7301691,-0.76999 0.7301691,-1.84533 0,-1.08862 -0.7301691,-1.85862 -0.7168934,-0.76999 -1.7125787,-0.76999 z" />
        <path
           inkscape:connector-curvature="0"
           id="path5839"
           style="font-style:normal;font-variant:normal;font-weight:normal;font-stretch:normal;font-size:medium;line-height:125%;font-family:Quicksand;-inkscape-font-specification:'Quicksand, Normal';text-align:start;letter-spacing:0px;word-spacing:0px;writing-mode:lr-tb;text-anchor:start;fill:#ffffff;fill-opacity:1;stroke:none;stroke-width:1px;stroke-linecap:butt;stroke-linejoin:miter;stroke-opacity:1"
           d="m 6.3081208,588.69365 0,-5.85463 q 0,-0.13276 0.092931,-0.22569 0.092931,-0.0929 0.2256887,-0.0929 0.132758,0 0.2256886,0.0929 0.092931,0.0929 0.092931,0.22569 l 0,1.43379 q 0.053103,-0.10621 0.092931,-0.15931 1.0222369,-1.5931 2.6020575,-1.5931 0.132758,0 0.2256887,0.0929 0.092931,0.0929 0.092931,0.22569 0,0.13276 -0.092931,0.22569 -0.092931,0.0929 -0.2256887,0.0929 -1.0620643,0 -1.8851641,1.06206 -0.4779289,0.63724 -0.7832724,1.51344 -0.026552,0.0531 -0.026552,0.10621 l 0,2.8543 q 0,0.13276 -0.092931,0.22569 -0.092931,0.0929 -0.2256886,0.0929 -0.132758,0 -0.2256887,-0.0929 -0.092931,-0.0929 -0.092931,-0.22569 z" />
        <path
           inkscape:connector-curvature="0"
           id="path5841"
           style="font-style:normal;font-variant:normal;font-weight:normal;font-stretch:normal;font-size:medium;line-height:125%;font-family:Quicksand;-inkscape-font-specification:'Quicksand, Normal';text-align:start;letter-spacing:0px;word-spacing:0px;writing-mode:lr-tb;text-anchor:start;fill:#ffffff;fill-opacity:1;stroke:none;stroke-width:1px;stroke-linecap:butt;stroke-linejoin:miter;stroke-opacity:1"
           d="m 25.810485,582.82574 0,5.66877 q 0,1.2612 -0.902755,2.15068 -0.889479,0.90276 -2.163956,0.90276 -0.650514,0 -1.354132,-0.30535 -0.265516,-0.18586 -0.132758,-0.42482 0.146034,-0.30535 0.424826,-0.14604 0.50448,0.23897 1.062064,0.23897 1.008961,0 1.712579,-0.70362 0.716893,-0.70362 0.716893,-1.71258 l 0,-0.79655 q -0.41155,0.59741 -1.048788,0.94259 -0.637239,0.33189 -1.380684,0.33189 -1.274477,0 -2.163956,-0.94258 -0.889479,-0.95586 -0.889479,-2.28344 0,-1.34086 0.889479,-2.28344 0.902755,-0.95586 2.163956,-0.95586 0.730169,0 1.367408,0.34518 0.650514,0.34517 1.062064,0.9293 l 0,-0.95586 q 0,-0.13275 0.09293,-0.22569 0.106206,-0.0929 0.225689,-0.0929 0.132758,0 0.225688,0.0929 0.09293,0.0929 0.09293,0.22569 z m -5.482907,2.92068 q 0,1.07534 0.703618,1.84534 0.716893,0.75672 1.712578,0.75672 1.008961,0 1.712579,-0.75672 0.716893,-0.77 0.716893,-1.85862 0,-1.08861 -0.716893,-1.83206 -0.703618,-0.75672 -1.712579,-0.75672 -0.995685,0 -1.712578,0.75672 -0.703618,0.75672 -0.703618,1.84534 z" />
      </g>
    </g>
    <g
       id="g4744"
       transform="matrix(0.53305337,0,0,0.53305337,86.568332,-61.693977)">
      <rect
         style="opacity:1;fill:#2ca089;fill-opacity:1;fill-rule:nonzero;stroke:none;stroke-width:0.40000001;stroke-linecap:butt;stroke-linejoin:miter;stroke-miterlimit:4;stroke-dasharray:none;stroke-dashoffset:0;stroke-opacity:1"
         id="rect5843"
         width="247.55318"
         height="282.68759"
         x="389.93887"
         y="59.146919" />
      <g
         style="opacity:0.93999999;fill:#ffffff;fill-opacity:0.95375725"
         id="g5845"
         transform="matrix(0.93735859,0,0,0.93735859,549.02576,-293.46191)">
        <g
           style="fill:#ffffff;fill-opacity:0.95375725"
           transform="matrix(0.36241679,0,0,0.36241679,-25.336773,368.57974)"
           id="g5847">
          <text
             xml:space="preserve"
             style="font-style:normal;font-variant:normal;font-weight:normal;font-stretch:normal;font-size:90px;line-height:125%;font-family:'Ara Hamah AlHorra';-inkscape-font-specification:'Ara Hamah AlHorra, Normal';text-align:start;letter-spacing:0px;word-spacing:0px;writing-mode:lr-tb;text-anchor:start;fill:#ffffff;fill-opacity:0.95375725;stroke:none;stroke-width:1px;stroke-linecap:butt;stroke-linejoin:miter;stroke-opacity:1"
             x="-19"
             y="555.36218"
             id="text5849"
             sodipodi:linespacing="125%"><tspan
               sodipodi:role="line"
               id="tspan5851"
               x="-19"
               y="555.36218">مجتمع </tspan></text>
          <path
             inkscape:connector-curvature="0"
             style="font-style:normal;font-variant:normal;font-weight:normal;font-stretch:normal;font-size:medium;line-height:125%;font-family:'Ara Hamah AlHorra';-inkscape-font-specification:'Ara Hamah AlHorra, Normal';text-align:start;letter-spacing:0px;word-spacing:0px;writing-mode:lr-tb;text-anchor:start;fill:#ffffff;fill-opacity:0.95375725;stroke:none;stroke-width:1px;stroke-linecap:butt;stroke-linejoin:miter;stroke-opacity:1"
             d="m -53.660505,496.93259 c 0,-5.71538 6.477425,-7.33473 10.382932,-7.33473 l 0,-4.38179 c -12.192801,0 -15.336258,7.52524 -15.336258,13.52639 0,0.8573 0.09526,1.61935 0.381025,2.3814 l 15.336258,0 0,-4.19127 -10.763957,0 z"
             id="path5853" />
          <path
             inkscape:connector-curvature="0"
             style="font-style:normal;font-variant:normal;font-weight:normal;font-stretch:normal;font-size:medium;line-height:125%;font-family:'Ara Hamah AlHorra';-inkscape-font-specification:'Ara Hamah AlHorra, Normal';text-align:start;letter-spacing:0px;word-spacing:0px;writing-mode:lr-tb;text-anchor:start;fill:#ffffff;fill-opacity:0.95375725;stroke:none;stroke-width:1px;stroke-linecap:butt;stroke-linejoin:miter;stroke-opacity:1"
             d="m -43.658598,570.56567 0,-64.10746 -13.812158,0 0,64.10746 13.812158,0 z"
             id="path5855" />
          <path
             inkscape:connector-curvature="0"
             id="path5857"
             style="font-style:normal;font-variant:normal;font-weight:normal;font-stretch:normal;font-size:medium;line-height:125%;font-family:'Ara Hamah AlHorra';-inkscape-font-specification:'Ara Hamah AlHorra, Normal';text-align:start;letter-spacing:0px;word-spacing:0px;writing-mode:lr-tb;text-anchor:start;fill:#ffffff;fill-opacity:0.95375725;stroke:none;stroke-width:1px;stroke-linecap:butt;stroke-linejoin:miter;stroke-opacity:1"
             d="m -128.76783,556.563 0,14.00267 63.535919,0 0,-42.29377 -13.812157,0 0,28.2911 -7.429988,0 0,-25.2429 -13.812154,0 -0.0953,25.2429 -7.6205,0 0,-20.6706 -13.81216,0 -0.0952,20.6706 -6.85845,0 z" />
          <path
             inkscape:connector-curvature="0"
             id="path5859"
             style="font-style:normal;font-variant:normal;font-weight:normal;font-stretch:normal;font-size:medium;line-height:125%;font-family:'Ara Hamah AlHorra';-inkscape-font-specification:'Ara Hamah AlHorra, Normal';text-align:start;letter-spacing:0px;word-spacing:0px;writing-mode:lr-tb;text-anchor:start;fill:#ffffff;fill-opacity:0.95375725;stroke:none;stroke-width:1px;stroke-linecap:butt;stroke-linejoin:miter;stroke-opacity:1"
             d="m -124.9494,570.56567 0,-14.00267 -6.9537,0 0,-28.19585 -13.81216,0 0,28.19585 -7.33473,0 -0.0953,-25.2429 -13.81216,0 -0.0952,25.2429 -7.6205,0 0,-20.6706 -13.81216,0 0,22.57573 c 0,8.09678 -4.00076,12.1928 -12.09755,12.1928 -8.09678,0 -12.09754,-4.09602 -12.09754,-12.1928 0,-0.66679 0.0953,-1.23833 0.19051,-1.90513 l -14.00267,0 -0.0952,1.90513 c -0.38103,7.23947 2.57192,13.43113 7.6205,18.47971 5.04858,5.04858 11.24024,7.6205 18.38445,7.6205 10.66871,0 18.38446,-4.66755 23.14728,-14.00267 l 52.48619,0 z" />
        </g>
        <g
           style="fill:#ffffff;fill-opacity:0.95375725"
           id="g5861"
           transform="matrix(0.6660977,0,0,0.6660977,-313.94409,324.96138)">
          <g
             style="fill:#ffffff;fill-opacity:0.95375725"
             id="g5863">
            <g
               style="fill:#ffffff;fill-opacity:0.95375725"
               id="g5865">
              <circle
                 style="fill:#ffffff;fill-opacity:0.95375725"
                 id="circle5867"
                 r="21.892"
                 cy="261.77301"
                 cx="408.034" />
            </g>
            <g
               style="fill:#ffffff;fill-opacity:0.95375725"
               id="g5869">
              <path
                 style="fill:#ffffff;fill-opacity:0.95375725"
                 inkscape:connector-curvature="0"
                 id="path5871"
                 d="m 408.033,284.165 c -12.346,0 -22.391,-10.045 -22.391,-22.392 0,-12.347 10.045,-22.392 22.391,-22.392 12.348,0 22.393,10.045 22.393,22.392 0,12.347 -10.045,22.392 -22.393,22.392 z m 0,-43.783 c -11.795,0 -21.391,9.596 -21.391,21.392 0,11.795 9.596,21.392 21.391,21.392 11.797,0 21.393,-9.597 21.393,-21.392 0,-11.796 -9.596,-21.392 -21.393,-21.392 z" />
            </g>
          </g>
          <g
             style="fill:#ffffff;fill-opacity:0.95375725"
             id="g5873">
            <g
               style="fill:#ffffff;fill-opacity:0.95375725"
               id="g5875">
              <path
                 style="fill:#ffffff;fill-opacity:0.95375725"
                 inkscape:connector-curvature="0"
                 id="path5877"
                 d="m 408.033,289.387 c -15.249,0 -27.611,-12.363 -27.611,-27.613 0,-15.25 12.362,-27.612 27.611,-27.612 15.252,0 27.614,12.362 27.614,27.612 0,2.474 -0.33,4.868 -0.939,7.149 l 21.005,21.217 c 4.95,-8.301 7.796,-18 7.796,-28.366 0,-30.638 -24.836,-55.475 -55.476,-55.475 -30.637,0 -55.474,24.837 -55.474,55.475 0,30.638 24.837,55.474 55.474,55.474 11.486,0 22.156,-3.49 31.009,-9.468 l -20.331,-20.534 c -3.285,1.377 -6.891,2.141 -10.678,2.141 z" />
            </g>
          </g>
          <g
             style="fill:#ffffff;fill-opacity:0.95375725"
             id="g5879">
            <g
               style="fill:#ffffff;fill-opacity:0.95375725"
               id="g5881">
              <path
                 style="fill:#ffffff;fill-opacity:0.95375725"
                 inkscape:connector-curvature="0"
                 id="path5883"
                 d="m 433.813,271.671 c -0.519,1.352 -1.142,2.649 -1.856,3.888 l 19.263,19.225 2.78,-2.967 -20.187,-20.146 z" />
            </g>
            <g
               style="fill:#ffffff;fill-opacity:0.95375725"
               id="g5885">
              <path
                 style="fill:#ffffff;fill-opacity:0.95375725"
                 inkscape:connector-curvature="0"
                 id="path5887"
                 d="m 420.945,286.182 19.81,19.77 2.779,-2.967 -19.063,-19.024 c -1.114,0.825 -2.293,1.567 -3.526,2.221 z" />
            </g>
            <g
               style="fill:#ffffff;fill-opacity:0.95375725"
               id="g5889">
              <path
                 style="fill:#ffffff;fill-opacity:0.95375725"
                 inkscape:connector-curvature="0"
                 id="path5891"
                 d="m 425.297,283.317 18.948,18.908 2.779,-2.966 -18.749,-18.712 c -0.923,0.996 -1.918,1.921 -2.978,2.77 z" />
            </g>
            <g
               style="fill:#ffffff;fill-opacity:0.95375725"
               id="g5893">
              <path
                 style="fill:#ffffff;fill-opacity:0.95375725"
                 inkscape:connector-curvature="0"
                 id="path5895"
                 d="m 428.965,279.771 18.769,18.73 2.78,-2.966 -19.105,-19.067 c -0.734,1.164 -1.552,2.267 -2.444,3.303 z" />
            </g>
          </g>
          <g
             style="fill:#ffffff;fill-opacity:0.95375725"
             id="g5897">
            <rect
               style="fill:#ffffff;fill-opacity:0.95375725"
               id="rect5899"
               height="4.04"
               width="4.04"
               transform="matrix(0.7071,0.7071,-0.7071,0.7071,347.04,-224.395)"
               y="304.69699"
               x="442.36899" />
          </g>
          <g
             style="fill:#ffffff;fill-opacity:0.95375725"
             id="g5901">
            <rect
               style="fill:#ffffff;fill-opacity:0.95375725"
               id="rect5903"
               height="4.04"
               width="4.04"
               transform="matrix(0.7072,0.707,-0.707,0.7072,350.4543,-225.8308)"
               y="308.203"
               x="445.875" />
          </g>
          <g
             style="fill:#ffffff;fill-opacity:0.95375725"
             id="g5905">
            <rect
               style="fill:#ffffff;fill-opacity:0.95375725"
               id="rect5907"
               height="4.04"
               width="4.04"
               transform="matrix(0.707,0.7072,-0.7072,0.707,357.6724,-228.777)"
               y="315.23599"
               x="452.90799" />
          </g>
          <g
             style="fill:#ffffff;fill-opacity:0.95375725"
             id="g5909">
            <rect
               style="fill:#ffffff;fill-opacity:0.95375725"
               id="rect5911"
               height="4.04"
               width="4.04"
               transform="matrix(0.7071,0.7071,-0.7071,0.7071,345.5513,-228.0393)"
               y="301.077"
               x="446.02399" />
          </g>
          <g
             style="fill:#ffffff;fill-opacity:0.95375725"
             id="g5913">
            <rect
               style="fill:#ffffff;fill-opacity:0.95375725"
               id="rect5915"
               height="4.04"
               width="4.04"
               transform="matrix(0.707,0.7072,-0.7072,0.707,352.5332,-230.9103)"
               y="307.96701"
               x="452.91199" />
          </g>
          <g
             style="fill:#ffffff;fill-opacity:0.95375725"
             id="g5917">
            <rect
               style="fill:#ffffff;fill-opacity:0.95375725"
               id="rect5919"
               height="4.04"
               width="4.0409999"
               transform="matrix(0.7071,0.7071,-0.7071,0.7071,359.5474,-233.8367)"
               y="315.07401"
               x="460.01901" />
          </g>
          <g
             style="fill:#ffffff;fill-opacity:0.95375725"
             id="g5921">
            <rect
               style="fill:#ffffff;fill-opacity:0.95375725"
               id="rect5923"
               height="4.04"
               width="4.04"
               transform="matrix(0.707,0.7072,-0.7072,0.707,344.1754,-231.6105)"
               y="297.53101"
               x="449.578" />
          </g>
          <g
             style="fill:#ffffff;fill-opacity:0.95375725"
             id="g5925">
            <rect
               style="fill:#ffffff;fill-opacity:0.95375725"
               id="rect5927"
               height="4.04"
               width="4.04"
               transform="matrix(0.7071,0.7071,-0.7071,0.7071,342.5427,-235.2075)"
               y="293.862"
               x="453.172" />
          </g>
          <g
             style="fill:#ffffff;fill-opacity:0.95375725"
             id="g5929">
            <rect
               style="fill:#ffffff;fill-opacity:0.95375725"
               id="rect5931"
               height="4.04"
               width="4.04"
               transform="matrix(0.7071,0.7071,-0.7071,0.7071,347.6412,-233.0653)"
               y="301.08801"
               x="453.13501" />
          </g>
          <g
             style="fill:#ffffff;fill-opacity:0.95375725"
             id="g5933">
            <rect
               style="fill:#ffffff;fill-opacity:0.95375725"
               id="rect5935"
               height="4.04"
               width="4.04"
               transform="matrix(0.7071,0.7071,-0.7071,0.7071,354.5318,-235.9194)"
               y="307.978"
               x="460.026" />
          </g>
          <g
             style="fill:#ffffff;fill-opacity:0.95375725"
             id="g5937">
            <rect
               style="fill:#ffffff;fill-opacity:0.95375725"
               id="rect5939"
               height="4.04"
               width="4.04"
               transform="matrix(0.707,0.7072,-0.7072,0.707,346.1918,-236.7001)"
               y="297.41901"
               x="456.729" />
          </g>
          <g
             style="fill:#ffffff;fill-opacity:0.95375725"
             id="g5941">
            <rect
               style="fill:#ffffff;fill-opacity:0.95375725"
               id="rect5943"
               height="4.04"
               width="4.04"
               transform="matrix(0.7071,0.7071,-0.7071,0.7071,349.5886,-238.126)"
               y="300.90799"
               x="460.21799" />
          </g>
        </g>
        <path
           d="m -89.722611,582.60005 q 0.09293,-0.0929 0.225688,-0.0929 0.132758,0 0.225689,0.0929 0.09293,0.0929 0.09293,0.22569 l 0,5.86791 q 0,0.13276 -0.09293,0.22569 -0.09293,0.0929 -0.225689,0.0929 -0.132758,0 -0.225688,-0.0929 -0.09293,-0.0929 -0.09293,-0.22569 l 0,-0.96913 q -0.424826,0.59741 -1.07534,0.94258 -0.637239,0.34517 -1.367408,0.34517 -1.274477,0 -2.177232,-0.95586 -0.902754,-0.95586 -0.902754,-2.29671 0,-1.34086 0.902754,-2.29672 0.902755,-0.95586 2.177232,-0.95586 0.730169,0 1.367408,0.34518 0.650514,0.34517 1.07534,0.9293 l 0,-0.95586 q 0,-0.13275 0.09293,-0.22569 z m -4.978427,3.15965 q 0,1.08861 0.716894,1.85861 0.730169,0.75672 1.725854,0.75672 1.008961,0 1.725855,-0.75672 0.716893,-0.77 0.716893,-1.85861 0,-1.08862 -0.716893,-1.85862 -0.716894,-0.76999 -1.725855,-0.76999 -0.995685,0 -1.725854,0.76999 -0.716894,0.77 -0.716894,1.85862 z"
           style="font-style:normal;font-variant:normal;font-weight:normal;font-stretch:normal;font-size:medium;line-height:125%;font-family:Quicksand;-inkscape-font-specification:'Quicksand, Normal';text-align:start;letter-spacing:0px;word-spacing:0px;writing-mode:lr-tb;text-anchor:start;fill:#ffffff;fill-opacity:0.95375725;stroke:none;stroke-width:1px;stroke-linecap:butt;stroke-linejoin:miter;stroke-opacity:1"
           id="path5945"
           inkscape:connector-curvature="0" />
        <path
           d="m -77.857362,588.05641 q -0.902754,-0.96913 -0.902754,-2.29671 0,-1.32758 0.902754,-2.28344 0.902755,-0.96914 2.177232,-0.96914 1.274477,0 2.177232,0.96914 0.902754,0.95586 0.902754,2.28344 0,1.32758 -0.902754,2.29671 -0.902755,0.95586 -2.177232,0.95586 -1.274477,0 -2.177232,-0.95586 z m 2.177232,-4.92532 q -0.995685,0 -1.725854,0.76999 -0.716894,0.77 -0.716894,1.85862 0,1.07534 0.716894,1.84533 0.730169,0.77 1.725854,0.77 0.995685,0 1.712579,-0.77 0.730169,-0.76999 0.730169,-1.84533 0,-1.08862 -0.730169,-1.85862 -0.716894,-0.76999 -1.712579,-0.76999 z"
           style="font-style:normal;font-variant:normal;font-weight:normal;font-stretch:normal;font-size:medium;line-height:125%;font-family:Quicksand;-inkscape-font-specification:'Quicksand, Normal';text-align:start;letter-spacing:0px;word-spacing:0px;writing-mode:lr-tb;text-anchor:start;fill:#ffffff;fill-opacity:0.95375725;stroke:none;stroke-width:1px;stroke-linecap:butt;stroke-linejoin:miter;stroke-opacity:1"
           id="path5947"
           inkscape:connector-curvature="0" />
        <path
           d="m -62.582719,588.08296 q -0.225689,-0.19914 -0.03983,-0.42482 0.07965,-0.10621 0.212413,-0.11949 0.132758,-0.0133 0.238965,0.0797 1.035512,0.75672 1.885164,0.75672 0.849651,0 1.340856,-0.39827 0.491205,-0.3319 0.477929,-0.77 0,-0.45138 -0.438102,-0.79655 -0.424825,-0.34517 -1.393959,-0.50448 l -0.02655,-0.0133 q -1.035512,-0.18586 -1.473614,-0.50448 -0.703617,-0.41155 -0.703617,-1.16827 0,-0.75672 0.703617,-1.27447 0.637239,-0.43811 1.593097,-0.43811 0.384998,0 0.769996,0.13276 0.398274,0.11948 0.597411,0.23897 0.212413,0.1062 0.57086,0.33189 0.106206,0.0797 0.132758,0.21241 0.02655,0.13276 -0.03983,0.23897 -0.06638,0.10621 -0.199137,0.13276 -0.132758,0.0265 -0.238965,-0.0398 -0.331895,-0.22569 -0.50448,-0.31862 -0.15931,-0.10621 -0.477929,-0.21241 -0.31862,-0.11948 -0.610687,-0.11948 -0.769997,0 -1.208098,0.35844 -0.438102,0.34517 -0.438102,0.73017 0,0.385 0.371723,0.67707 0.464653,0.31862 1.32758,0.45137 l 0.02655,0 q 0.862927,0.13276 1.57982,0.53104 0.730169,0.47793 0.730169,1.28775 0,0.79655 -0.730169,1.34086 -0.716893,0.53103 -1.632924,0.53103 -1.261201,-0.0133 -2.40292,-0.92931 z"
           style="font-style:normal;font-variant:normal;font-weight:normal;font-stretch:normal;font-size:medium;line-height:125%;font-family:Quicksand;-inkscape-font-specification:'Quicksand, Normal';text-align:start;letter-spacing:0px;word-spacing:0px;writing-mode:lr-tb;text-anchor:start;fill:#ffffff;fill-opacity:0.95375725;stroke:none;stroke-width:1px;stroke-linecap:butt;stroke-linejoin:miter;stroke-opacity:1"
           id="path5949"
           inkscape:connector-curvature="0" />
        <path
           d="m -47.783519,586.35711 0,-3.54464 q 0,-0.13276 0.09293,-0.22569 0.09293,-0.0929 0.225689,-0.0929 0.132758,0 0.225688,0.0929 0.09293,0.0929 0.09293,0.22569 l 0,3.54464 q 0,0.83637 0.584135,1.42051 0.584136,0.58413 1.407235,0.59741 0.836376,-0.0133 1.420511,-0.59741 0.597412,-0.58414 0.597412,-1.42051 l 0,-3.54464 q 0,-0.13276 0.09293,-0.22569 0.106207,-0.0929 0.238965,-0.0929 0.132758,0 0.225688,0.0929 0.09293,0.0929 0.09293,0.22569 l 0,3.54464 q 0,1.10189 -0.783272,1.88516 -0.769997,0.77 -1.871889,0.77 -1.101891,0 -1.871888,-0.77 -0.769997,-0.78327 -0.769997,-1.88516 z"
           style="font-style:normal;font-variant:normal;font-weight:normal;font-stretch:normal;font-size:medium;line-height:125%;font-family:Quicksand;-inkscape-font-specification:'Quicksand, Normal';text-align:start;letter-spacing:0px;word-spacing:0px;writing-mode:lr-tb;text-anchor:start;fill:#ffffff;fill-opacity:0.95375725;stroke:none;stroke-width:1px;stroke-linecap:butt;stroke-linejoin:miter;stroke-opacity:1"
           id="path5951"
           inkscape:connector-curvature="0" />
        <path
           d="m -31.96021,588.08296 q -0.225689,-0.19914 -0.03983,-0.42482 0.07966,-0.10621 0.212413,-0.11949 0.132758,-0.0133 0.238965,0.0797 1.035512,0.75672 1.885164,0.75672 0.849651,0 1.340856,-0.39827 0.491205,-0.3319 0.477929,-0.77 0,-0.45138 -0.438102,-0.79655 -0.424825,-0.34517 -1.393959,-0.50448 l -0.02655,-0.0133 q -1.035512,-0.18586 -1.473614,-0.50448 -0.703617,-0.41155 -0.703617,-1.16827 0,-0.75672 0.703617,-1.27447 0.637239,-0.43811 1.593097,-0.43811 0.384998,0 0.769996,0.13276 0.398274,0.11948 0.597411,0.23897 0.212413,0.1062 0.57086,0.33189 0.106206,0.0797 0.132758,0.21241 0.02655,0.13276 -0.03983,0.23897 -0.06638,0.10621 -0.199137,0.13276 -0.132758,0.0265 -0.238965,-0.0398 -0.331895,-0.22569 -0.50448,-0.31862 -0.15931,-0.10621 -0.477929,-0.21241 -0.31862,-0.11948 -0.610687,-0.11948 -0.769997,0 -1.208098,0.35844 -0.438102,0.34517 -0.438102,0.73017 0,0.385 0.371723,0.67707 0.464653,0.31862 1.32758,0.45137 l 0.02655,0 q 0.862927,0.13276 1.57982,0.53104 0.730169,0.47793 0.730169,1.28775 0,0.79655 -0.730169,1.34086 -0.716893,0.53103 -1.632924,0.53103 -1.261201,-0.0133 -2.40292,-0.92931 z"
           style="font-style:normal;font-variant:normal;font-weight:normal;font-stretch:normal;font-size:medium;line-height:125%;font-family:Quicksand;-inkscape-font-specification:'Quicksand, Normal';text-align:start;letter-spacing:0px;word-spacing:0px;writing-mode:lr-tb;text-anchor:start;fill:#ffffff;fill-opacity:0.95375725;stroke:none;stroke-width:1px;stroke-linecap:butt;stroke-linejoin:miter;stroke-opacity:1"
           id="path5953"
           inkscape:connector-curvature="0" />
        <path
           d="m -20.981535,588.82641 q -0.185861,-0.19914 -0.185861,-0.47793 0,-0.27879 0.185861,-0.46466 0.199137,-0.19913 0.477929,-0.19913 0.278792,0 0.464653,0.19913 0.199137,0.18587 0.199137,0.46466 0,0.27879 -0.199137,0.47793 -0.185861,0.18586 -0.464653,0.18586 -0.278792,0 -0.477929,-0.18586 z"
           style="font-style:normal;font-variant:normal;font-weight:normal;font-stretch:normal;font-size:medium;line-height:125%;font-family:Quicksand;-inkscape-font-specification:'Quicksand, Normal';text-align:start;letter-spacing:0px;word-spacing:0px;writing-mode:lr-tb;text-anchor:start;fill:#ffffff;fill-opacity:0.95375725;stroke:none;stroke-width:1px;stroke-linecap:butt;stroke-linejoin:miter;stroke-opacity:1"
           id="path5955"
           inkscape:connector-curvature="0" />
        <path
           d="m -9.3780679,588.05641 q -0.9027551,-0.96913 -0.9027551,-2.29671 0,-1.32758 0.9027551,-2.28344 0.9027547,-0.96914 2.1772318,-0.96914 1.2744771,0 2.1772318,0.96914 0.9027546,0.95586 0.9027546,2.28344 0,1.32758 -0.9027546,2.29671 -0.9027547,0.95586 -2.1772318,0.95586 -1.2744771,0 -2.1772318,-0.95586 z m 2.1772318,-4.92532 q -0.9956853,0 -1.7258545,0.76999 -0.7168934,0.77 -0.7168934,1.85862 0,1.07534 0.7168934,1.84533 0.7301692,0.77 1.7258545,0.77 0.9956853,0 1.7125787,-0.77 0.7301691,-0.76999 0.7301691,-1.84533 0,-1.08862 -0.7301691,-1.85862 -0.7168934,-0.76999 -1.7125787,-0.76999 z"
           style="font-style:normal;font-variant:normal;font-weight:normal;font-stretch:normal;font-size:medium;line-height:125%;font-family:Quicksand;-inkscape-font-specification:'Quicksand, Normal';text-align:start;letter-spacing:0px;word-spacing:0px;writing-mode:lr-tb;text-anchor:start;fill:#ffffff;fill-opacity:0.95375725;stroke:none;stroke-width:1px;stroke-linecap:butt;stroke-linejoin:miter;stroke-opacity:1"
           id="path5957"
           inkscape:connector-curvature="0" />
        <path
           d="m 6.3081208,588.69365 0,-5.85463 q 0,-0.13276 0.092931,-0.22569 0.092931,-0.0929 0.2256887,-0.0929 0.132758,0 0.2256886,0.0929 0.092931,0.0929 0.092931,0.22569 l 0,1.43379 q 0.053103,-0.10621 0.092931,-0.15931 1.0222369,-1.5931 2.6020575,-1.5931 0.132758,0 0.2256887,0.0929 0.092931,0.0929 0.092931,0.22569 0,0.13276 -0.092931,0.22569 -0.092931,0.0929 -0.2256887,0.0929 -1.0620643,0 -1.8851641,1.06206 -0.4779289,0.63724 -0.7832724,1.51344 -0.026552,0.0531 -0.026552,0.10621 l 0,2.8543 q 0,0.13276 -0.092931,0.22569 -0.092931,0.0929 -0.2256886,0.0929 -0.132758,0 -0.2256887,-0.0929 -0.092931,-0.0929 -0.092931,-0.22569 z"
           style="font-style:normal;font-variant:normal;font-weight:normal;font-stretch:normal;font-size:medium;line-height:125%;font-family:Quicksand;-inkscape-font-specification:'Quicksand, Normal';text-align:start;letter-spacing:0px;word-spacing:0px;writing-mode:lr-tb;text-anchor:start;fill:#ffffff;fill-opacity:0.95375725;stroke:none;stroke-width:1px;stroke-linecap:butt;stroke-linejoin:miter;stroke-opacity:1"
           id="path5959"
           inkscape:connector-curvature="0" />
        <path
           d="m 25.810485,582.82574 0,5.66877 q 0,1.2612 -0.902755,2.15068 -0.889479,0.90276 -2.163956,0.90276 -0.650514,0 -1.354132,-0.30535 -0.265516,-0.18586 -0.132758,-0.42482 0.146034,-0.30535 0.424826,-0.14604 0.50448,0.23897 1.062064,0.23897 1.008961,0 1.712579,-0.70362 0.716893,-0.70362 0.716893,-1.71258 l 0,-0.79655 q -0.41155,0.59741 -1.048788,0.94259 -0.637239,0.33189 -1.380684,0.33189 -1.274477,0 -2.163956,-0.94258 -0.889479,-0.95586 -0.889479,-2.28344 0,-1.34086 0.889479,-2.28344 0.902755,-0.95586 2.163956,-0.95586 0.730169,0 1.367408,0.34518 0.650514,0.34517 1.062064,0.9293 l 0,-0.95586 q 0,-0.13275 0.09293,-0.22569 0.106206,-0.0929 0.225689,-0.0929 0.132758,0 0.225688,0.0929 0.09293,0.0929 0.09293,0.22569 z m -5.482907,2.92068 q 0,1.07534 0.703618,1.84534 0.716893,0.75672 1.712578,0.75672 1.008961,0 1.712579,-0.75672 0.716893,-0.77 0.716893,-1.85862 0,-1.08861 -0.716893,-1.83206 -0.703618,-0.75672 -1.712579,-0.75672 -0.995685,0 -1.712578,0.75672 -0.703618,0.75672 -0.703618,1.84534 z"
           style="font-style:normal;font-variant:normal;font-weight:normal;font-stretch:normal;font-size:medium;line-height:125%;font-family:Quicksand;-inkscape-font-specification:'Quicksand, Normal';text-align:start;letter-spacing:0px;word-spacing:0px;writing-mode:lr-tb;text-anchor:start;fill:#ffffff;fill-opacity:0.95375725;stroke:none;stroke-width:1px;stroke-linecap:butt;stroke-linejoin:miter;stroke-opacity:1"
           id="path5961"
           inkscape:connector-curvature="0" />
      </g>
    </g>
  </g>
</svg>
