<?xml version="1.0" standalone="no"?>
<!DOCTYPE svg PUBLIC "-//W3C//DTD SVG 20010904//EN" "http://www.w3.org/TR/2001/REC-SVG-20010904/DTD/svg10.dtd">
<!-- Created using Krita: https://krita.org -->
<svg xmlns="http://www.w3.org/2000/svg" 
    xmlns:xlink="http://www.w3.org/1999/xlink"
    xmlns:krita="http://krita.org/namespaces/svg/krita"
    xmlns:sodipodi="http://sodipodi.sourceforge.net/DTD/sodipodi-0.dtd"
    width="211.248pt"
    height="241.2pt"
    viewBox="0 0 211.248 241.2">
<defs/>
<text id="text4159" krita:useRichText="true" krita:textVersion="2" transform="matrix(0.800001363611793 0 0 0.800001363611793 -233.525649428367 154.812458660499)" fill="#000000" stroke-opacity="0" stroke="#000000" stroke-width="0" stroke-linecap="square" stroke-linejoin="bevel" font-family="Droid Arabic Naskh" font-size="49.5835622133333" font-stretch="normal" letter-spacing="0" word-spacing="0"><tspan x="139.88121" y="218.79674"></tspan></text><g id="g4543" transform="matrix(1.73272693922761 0 0 1.73272693922761 -602.760157755918 -331.547911589519)" fill="none">
  <g id="g4545" fill="none">
   <g id="g4547" fill="none">
    <circle id="circle4549" transform="translate(386.142, 239.88101)" r="21.892" cx="21.892" cy="21.892" fill="#092f4b" stroke-opacity="0" stroke="#000000" stroke-width="0" stroke-linecap="square" stroke-linejoin="bevel"/>
   </g>
   <g id="g4551" fill="none">
    <path id="path4553" transform="translate(385.642, 239.381)" fill="#092f4b" stroke-opacity="0" stroke="#000000" stroke-width="0" stroke-linecap="square" stroke-linejoin="bevel" d="M22.391 44.784C10.045 44.784 0 34.739 0 22.392C0 10.045 10.045 0 22.391 0C34.739 0 44.784 10.045 44.784 22.392C44.784 34.739 34.739 44.784 22.391 44.784ZM22.391 1.001C10.596 1.001 1 10.597 1 22.393C1 34.188 10.596 43.785 22.391 43.785C34.188 43.785 43.784 34.188 43.784 22.393C43.784 10.597 34.188 1.001 22.391 1.001Z" sodipodi:nodetypes="cccccccccc"/>
   </g>
  </g>
  <g id="g4555" fill="none">
   <g id="g4557" fill="none">
    <path id="path4559" transform="translate(352.559, 206.299)" fill="#008a2e" stroke-opacity="0" stroke="#000000" stroke-width="0" stroke-linecap="square" stroke-linejoin="bevel" d="M55.474 83.088C40.225 83.088 27.863 70.725 27.863 55.475C27.863 40.225 40.225 27.863 55.474 27.863C70.726 27.863 83.088 40.225 83.088 55.475C83.088 57.949 82.758 60.343 82.149 62.624L103.154 83.841C108.104 75.54 110.95 65.841 110.95 55.475C110.95 24.837 86.114 0 55.474 0C24.837 0 0 24.837 0 55.475C0 86.113 24.837 110.949 55.474 110.949C66.96 110.949 77.63 107.459 86.483 101.481L66.152 80.947C62.867 82.324 59.261 83.088 55.474 83.088Z" sodipodi:nodetypes="ccccccccccccc"/>
   </g>
  </g>
  <g id="g4561" fill="none">
   <g id="g4563" fill="none">
    <path id="path4565" transform="translate(431.957, 271.671)" fill="#092f4b" stroke-opacity="0" stroke="#000000" stroke-width="0" stroke-linecap="square" stroke-linejoin="bevel" d="M1.856 0C1.337 1.352 0.714 2.649 0 3.888L19.263 23.113L22.043 20.146Z" sodipodi:nodetypes="ccccc"/>
   </g>
   <g id="g4567" fill="none">
    <path id="path4569" transform="translate(420.945, 283.961)" fill="#092f4b" stroke-opacity="0" stroke="#000000" stroke-width="0" stroke-linecap="square" stroke-linejoin="bevel" d="M0 2.221L19.81 21.991L22.589 19.024L3.526 0C2.412 0.825 1.233 1.567 0 2.221Z" sodipodi:nodetypes="ccccc"/>
   </g>
   <g id="g4571" fill="none">
    <path id="path4573" transform="translate(425.297, 280.547)" fill="#092f4b" stroke-opacity="0" stroke="#000000" stroke-width="0" stroke-linecap="square" stroke-linejoin="bevel" d="M0 2.77L18.948 21.678L21.727 18.712L2.978 0C2.055 0.996 1.06 1.921 0 2.77Z" sodipodi:nodetypes="ccccc"/>
   </g>
   <g id="g4575" fill="none">
    <path id="path4577" transform="translate(428.965, 276.468)" fill="#092f4b" stroke-opacity="0" stroke="#000000" stroke-width="0" stroke-linecap="square" stroke-linejoin="bevel" d="M0 3.303L18.769 22.033L21.549 19.067L2.444 0C1.71 1.164 0.892 2.267 0 3.303Z" sodipodi:nodetypes="ccccc"/>
   </g>
  </g>
  <g id="g4579" fill="none">
   <rect id="rect4581" transform="matrix(0.7071 0.7071 -0.7071 0.7071 444.3878712 303.855354458)" fill="#008a2e" stroke-opacity="0" stroke="#000000" stroke-width="0" stroke-linecap="square" stroke-linejoin="bevel" width="4.04" height="4.04"/>
  </g>
  <g id="g4583" fill="none">
   <rect id="rect4585" transform="matrix(0.7072 0.707 -0.707 0.7072 447.877579 307.3639866)" fill="#008a2e" stroke-opacity="0" stroke="#000000" stroke-width="0" stroke-linecap="square" stroke-linejoin="bevel" width="4.04" height="4.04"/>
  </g>
  <g id="g4587" fill="none">
   <rect id="rect4589" transform="matrix(0.707 0.7072 -0.7072 0.707 454.943456802 314.391375458)" fill="#008a2e" stroke-opacity="0" stroke="#000000" stroke-width="0" stroke-linecap="square" stroke-linejoin="bevel" width="4.04" height="4.04"/>
  </g>
  <g id="g4591" fill="none">
   <rect id="rect4593" transform="matrix(0.7071 0.7071 -0.7071 0.7071 448.043316629 300.235810029)" fill="#008a2e" stroke-opacity="0" stroke="#000000" stroke-width="0" stroke-linecap="square" stroke-linejoin="bevel" width="4.04" height="4.04"/>
  </g>
  <g id="g4595" fill="none">
   <rect id="rect4597" transform="matrix(0.707 0.7072 -0.7072 0.707 454.947707458 307.121735398)" fill="#008a2e" stroke-opacity="0" stroke="#000000" stroke-width="0" stroke-linecap="square" stroke-linejoin="bevel" width="4.04" height="4.04"/>
  </g>
  <g id="g4599" fill="none">
   <rect id="rect4601" transform="matrix(0.7071 0.7071 -0.7071 0.7071 462.0380095 314.231574442)" fill="#008a2e" stroke-opacity="0" stroke="#000000" stroke-width="0" stroke-linecap="square" stroke-linejoin="bevel" width="4.0409999" height="4.04"/>
  </g>
  <g id="g4603" fill="none">
   <rect id="rect4605" transform="matrix(0.707 0.7072 -0.7072 0.707 451.613115728 296.68548567)" fill="#008a2e" stroke-opacity="0" stroke="#000000" stroke-width="0" stroke-linecap="square" stroke-linejoin="bevel" width="4.04" height="4.04"/>
  </g>
  <g id="g4607" fill="none">
   <rect id="rect4609" transform="matrix(0.7071 0.7071 -0.7071 0.7071 455.190801 293.0202414)" fill="#008a2e" stroke-opacity="0" stroke="#000000" stroke-width="0" stroke-linecap="square" stroke-linejoin="bevel" width="4.04" height="4.04"/>
  </g>
  <g id="g4611" fill="none">
   <rect id="rect4613" transform="matrix(0.7071 0.7071 -0.7071 0.7071 455.1536337 300.245797442)" fill="#008a2e" stroke-opacity="0" stroke="#000000" stroke-width="0" stroke-linecap="square" stroke-linejoin="bevel" width="4.04" height="4.04"/>
  </g>
  <g id="g4615" fill="none">
   <rect id="rect4617" transform="matrix(0.7071 0.7071 -0.7071 0.7071 462.0449408 307.1362284)" fill="#008a2e" stroke-opacity="0" stroke="#000000" stroke-width="0" stroke-linecap="square" stroke-linejoin="bevel" width="4.04" height="4.04"/>
  </g>
  <g id="g4619" fill="none">
   <rect id="rect4621" transform="matrix(0.707 0.7072 -0.7072 0.707 458.764479128 296.57388887)" fill="#008a2e" stroke-opacity="0" stroke="#000000" stroke-width="0" stroke-linecap="square" stroke-linejoin="bevel" width="4.04" height="4.04"/>
  </g>
  <g id="g4623" fill="none">
   <rect id="rect4625" transform="matrix(0.7071 0.7071 -0.7071 0.7071 462.236701 300.066180458)" fill="#008a2e" stroke-opacity="0" stroke="#000000" stroke-width="0" stroke-linecap="square" stroke-linejoin="bevel" width="4.04" height="4.04"/>
  </g>
 </g>
</svg>
