<?xml version="1.0" encoding="UTF-8" standalone="no"?>
<!-- Created with Inkscape (http://www.inkscape.org/) -->

<svg
   id="svg2"
   version="1.1"
   inkscape:version="1.4.3 (0d15f75042, 2025-12-25)"
   xml:space="preserve"
   width="182.3295"
   height="189.41876"
   viewBox="0 0 182.3295 189.41876"
   sodipodi:docname="logo-dark.svg"
   xmlns:inkscape="http://www.inkscape.org/namespaces/inkscape"
   xmlns:sodipodi="http://sodipodi.sourceforge.net/DTD/sodipodi-0.dtd"
   xmlns="http://www.w3.org/2000/svg"
   xmlns:svg="http://www.w3.org/2000/svg"
   xmlns:rdf="http://www.w3.org/1999/02/22-rdf-syntax-ns#"
   xmlns:cc="http://creativecommons.org/ns#"
   xmlns:dc="http://purl.org/dc/elements/1.1/"><title
     id="title3482">aosus.org</title><metadata
     id="metadata8"><rdf:RDF><cc:Work
         rdf:about=""><dc:format>image/svg+xml</dc:format><dc:type
           rdf:resource="http://purl.org/dc/dcmitype/StillImage" /><dc:title>aosus.org</dc:title></cc:Work></rdf:RDF></metadata><defs
     id="defs6"><clipPath
       clipPathUnits="userSpaceOnUse"
       id="clipPath68"><path
         d="M 0,422.979 H 1310.934 V 0 H 0 Z"
         id="path70"
         inkscape:connector-curvature="0" /></clipPath></defs><sodipodi:namedview
     pagecolor="#000000"
     bordercolor="#666666"
     borderopacity="1"
     objecttolerance="10"
     gridtolerance="10"
     guidetolerance="10"
     inkscape:pageopacity="0"
     inkscape:pageshadow="2"
     inkscape:window-width="3440"
     inkscape:window-height="1371"
     id="namedview4"
     showgrid="false"
     inkscape:zoom="3.6908149"
     inkscape:cx="47.956889"
     inkscape:cy="108.37715"
     inkscape:window-x="0"
     inkscape:window-y="0"
     inkscape:window-maximized="1"
     inkscape:current-layer="g10"
     inkscape:showpageshadow="2"
     inkscape:pagecheckerboard="0"
     inkscape:deskcolor="#d1d1d1"
     inkscape:antialias-rendering="true" /><g
     id="g10"
     inkscape:groupmode="layer"
     inkscape:label="aosus_final6 copy"
     transform="matrix(1.25,0,0,-1.25,-1088.2193,362.12613)"><g
       id="g12"
       transform="translate(1005.1246,176.9119)"><path
         d="m 0,0 -3.535,-3.535 -3.449,3.449 3.535,3.535 z"
         style="fill:#0e8b44;fill-opacity:1;fill-rule:nonzero;stroke:none"
         id="path14"
         inkscape:connector-curvature="0" /></g><g
       id="g16"
       transform="translate(998.986,170.887)"><path
         d="m 0,0 -3.535,-3.535 -3.449,3.449 3.535,3.535 z"
         style="fill:#0e8b44;fill-opacity:1;fill-rule:nonzero;stroke:none"
         id="path18"
         inkscape:connector-curvature="0" /></g><g
       id="g20"
       transform="translate(992.8842,164.7789)"><path
         d="m 0,0 -3.535,-3.535 -3.449,3.449 3.535,3.535 z"
         style="fill:#0e8b44;fill-opacity:1;fill-rule:nonzero;stroke:none"
         id="path22"
         inkscape:connector-curvature="0" /></g><g
       id="g24"
       transform="translate(986.7832,158.6725)"><path
         d="m 0,0 -3.535,-3.535 -3.449,3.449 3.535,3.535 z"
         style="fill:#0e8b44;fill-opacity:1;fill-rule:nonzero;stroke:none"
         id="path26"
         inkscape:connector-curvature="0" /></g><g
       id="g28"
       transform="translate(1010.7819,171.2547)"><path
         d="m 0,0 -3.535,-3.535 -3.449,3.449 3.535,3.535 z"
         style="fill:#0e8b44;fill-opacity:1;fill-rule:nonzero;stroke:none"
         id="path30"
         inkscape:connector-curvature="0" /></g><g
       id="g32"
       transform="translate(1004.6431,165.2298)"><path
         d="m 0,0 -3.535,-3.535 -3.449,3.449 3.535,3.535 z"
         style="fill:#0e8b44;fill-opacity:1;fill-rule:nonzero;stroke:none"
         id="path34"
         inkscape:connector-curvature="0" /></g><g
       id="g36"
       transform="translate(992.4404,153.0153)"><path
         d="m 0,0 -3.535,-3.535 -3.449,3.449 3.535,3.535 z"
         style="fill:#0e8b44;fill-opacity:1;fill-rule:nonzero;stroke:none"
         id="path38"
         inkscape:connector-curvature="0" /></g><g
       id="g40"
       transform="translate(1016.439,165.5975)"><path
         d="m 0,0 -3.535,-3.535 -3.449,3.449 3.535,3.535 z"
         style="fill:#0e8b44;fill-opacity:1;fill-rule:nonzero;stroke:none"
         id="path42"
         inkscape:connector-curvature="0" /></g><g
       id="g44"
       transform="translate(1004.1986,153.4645)"><path
         d="m 0,0 -3.535,-3.535 -3.449,3.449 3.535,3.535 z"
         style="fill:#0e8b44;fill-opacity:1;fill-rule:nonzero;stroke:none"
         id="path46"
         inkscape:connector-curvature="0" /></g><g
       id="g48"
       transform="translate(998.0976,147.3581)"><path
         d="m 0,0 -3.535,-3.535 -3.449,3.449 3.535,3.535 z"
         style="fill:#0e8b44;fill-opacity:1;fill-rule:nonzero;stroke:none"
         id="path50"
         inkscape:connector-curvature="0" /></g><g
       id="g52"
       transform="translate(1015.9576,153.9153)"><path
         d="m 0,0 -3.535,-3.535 -3.449,3.449 3.535,3.535 z"
         style="fill:#0e8b44;fill-opacity:1;fill-rule:nonzero;stroke:none"
         id="path54"
         inkscape:connector-curvature="0" /></g><g
       id="g56"
       transform="translate(1003.7548,141.7009)"><path
         d="m 0,0 -3.535,-3.535 -3.449,3.449 3.535,3.535 z"
         style="fill:#0e8b44;fill-opacity:1;fill-rule:nonzero;stroke:none"
         id="path58"
         inkscape:connector-curvature="0" /></g><g
       id="g60"
       transform="translate(1015.5131,142.1501)"><path
         d="m 0,0 -3.535,-3.535 -3.449,3.449 3.535,3.535 z"
         style="fill:#0e8b44;fill-opacity:1;fill-rule:nonzero;stroke:none"
         id="path62"
         inkscape:connector-curvature="0" /></g><g
       id="g64"
       style="display:inline"><g
         id="g66"
         clip-path="url(#clipPath68)"
         style="display:inline"><g
           id="g72"
           transform="translate(919.3231,240.9226)"><path
             d="m 0,0 c -10.365,-10.365 -10.365,-27.316 0,-37.803 10.365,-10.366 27.316,-10.366 37.803,0 10.366,10.365 10.366,27.316 0,37.803 C 27.316,10.365 10.487,10.365 0,0"
             style="fill:#082f4b;fill-opacity:1;fill-rule:nonzero;stroke:none"
             id="path74"
             inkscape:connector-curvature="0" /></g><g
           id="g76"
           transform="translate(996.3928,178.6083)"
           style="fill:#ffffff"><path
             d="m 0,0 3.536,3.536 -28.535,28.536 c -0.61,-1.586 -1.463,-3.171 -2.317,-4.634 z"
             style="fill:#ffffff;fill-opacity:1;fill-rule:nonzero;stroke:none"
             id="path78"
             inkscape:connector-curvature="0" /></g><g
           id="g80"
           transform="translate(990.2955,172.511)"><path
             d="M 0,0 3.536,3.536 -23.17,30.243 c -0.975,-1.342 -1.951,-2.683 -3.17,-3.903 z"
             style="fill:#ffffff;fill-opacity:1;fill-rule:nonzero;stroke:none"
             id="path82"
             inkscape:connector-curvature="0" /></g><g
           id="g84"
           transform="translate(984.1982,166.4138)"
           style="fill:#ffffff"><path
             d="m 0,0 3.536,3.536 -26.462,26.341 c -1.219,-1.098 -2.561,-2.195 -3.902,-3.171 z"
             style="fill:#ffffff;fill-opacity:1;fill-rule:nonzero;stroke:none"
             id="path86"
             inkscape:connector-curvature="0" /></g><g
           id="g88"
           transform="translate(978.101,160.3165)"
           style="fill:#ffffff"><path
             d="m 0,0 3.536,3.536 -27.315,27.316 c -1.464,-0.853 -3.049,-1.707 -4.634,-2.317 z"
             style="fill:#ffffff;fill-opacity:1;fill-rule:nonzero;stroke:none"
             id="path90"
             inkscape:connector-curvature="0" /></g><circle
           cx="937.88519"
           cy="222.35997"
           r="42.850266"
           style="display:inline;fill:#ffffff;fill-opacity:1;stroke:none;stroke-width:1.01541"
           id="path96" /><path
           d="m 919.75431,240.77019 c -10.365,-10.365 -10.365,-27.316 0,-37.803 10.365,-10.366 27.31601,-10.366 37.80301,0 10.366,10.365 10.366,27.316 0,37.803 -10.487,10.365 -27.316,10.365 -37.80301,0"
           style="display:inline;fill:#082f4b;fill-opacity:1;fill-rule:nonzero;stroke:none"
           id="path74-6"
           inkscape:connector-curvature="0" /></g></g><g
       id="g92"
       transform="translate(890.4219,269.8238)"
       style="display:inline"><path
         d="m 0,0 c -26.462,-26.462 -26.462,-69.265 0,-95.727 21.706,-21.707 54.51,-25.609 80.24,-11.585 l -7.438,7.438 -0.976,0.976 -10.853,10.853 c -14.756,-4.878 -31.706,-1.463 -43.535,10.366 -16.706,16.706 -16.706,43.656 0,60.241 16.707,16.706 43.657,16.706 60.241,0 11.829,-11.829 15.244,-28.779 10.366,-43.535 l 10.731,-10.731 0.976,-0.976 7.316,-7.316 C 121.092,-54.388 117.19,-21.584 95.484,0.244 69.265,26.462 26.34,26.462 0,0"
         style="fill:#0e8b44;fill-opacity:1;fill-rule:nonzero;stroke:none"
         id="path94"
         inkscape:connector-curvature="0" /></g></g></svg>
