<svg xmlns:inkscape="http://www.inkscape.org/namespaces/inkscape" xmlns:sodipodi="http://sodipodi.sourceforge.net/DTD/sodipodi-0.dtd" xmlns:xlink="http://www.w3.org/1999/xlink" xmlns="http://www.w3.org/2000/svg" xmlns:svg="http://www.w3.org/2000/svg" width="1920" height="1080" viewBox="0 0 508 285.75" id="svg5" inkscape:version="1.2.1 (9c6d41e410, 2022-07-14)" sodipodi:docname="aosus-preview.svg" inkscape:export-filename="/home/faris/Pictures/aosus-preview.jpeg" inkscape:export-xdpi="79.606735" inkscape:export-ydpi="79.606735"><defs id="defs2"><rect x="429.68452" y="907.24009" width="1520.3687" height="79.764585" id="rect17451"></rect><linearGradient inkscape:collect="always" id="linearGradient4610"><stop style="stop-color:#00ff37;stop-opacity:1" offset="0" id="stop4606"></stop><stop style="stop-color:#008073;stop-opacity:1" offset="1" id="stop4608"></stop></linearGradient><linearGradient inkscape:collect="always" id="linearGradient1411"><stop style="stop-color:#00805d;stop-opacity:1" offset="0" id="stop1407"></stop><stop style="stop-color:#000080;stop-opacity:1" offset="1" id="stop1409"></stop></linearGradient><linearGradient inkscape:collect="always" xlink:href="#linearGradient1411" id="linearGradient1413" x1="0" y1="0" x2="508" y2="285.75" gradientUnits="userSpaceOnUse"></linearGradient><linearGradient inkscape:collect="always" xlink:href="#linearGradient4610" id="linearGradient4612" x1="0" y1="0" x2="508" y2="285.75" gradientUnits="userSpaceOnUse" gradientTransform="scale(1,1.0012106)"></linearGradient><filter inkscape:collect="always" style="color-interpolation-filters:sRGB" id="filter10346" x="-0.078845528" y="-0.14016983" width="1.1576911" height="1.2803397"><feGaussianBlur inkscape:collect="always" stdDeviation="17.384345" id="feGaussianBlur10348"></feGaussianBlur></filter><rect x="503.6559" y="-1995.8342" width="76.938277" height="136.18029" id="rect146527"></rect><rect x="177.80033" y="-2338.5341" width="71.266364" height="116.26786" id="rect141081"></rect><marker style="overflow:visible" id="Tail" refX="0.0" refY="0.0" orient="auto" inkscape:stockid="Tail" inkscape:isstock="true"><g transform="scale(-1.2)" id="g41606"><path style="fill:none;fill-rule:evenodd;stroke:context-stroke;stroke-width:0.8;stroke-linecap:round" d="M -3.8048674,-3.9585227 L 0.54352094,0" id="path41594"></path><path style="fill:none;fill-rule:evenodd;stroke:context-stroke;stroke-width:0.8;stroke-linecap:round" d="M -1.2866832,-3.9585227 L 3.0617053,0" id="path41596"></path><path style="fill:none;fill-rule:evenodd;stroke:context-stroke;stroke-width:0.8;stroke-linecap:round" d="M 1.3053582,-3.9585227 L 5.6537466,0" id="path41598"></path><path style="fill:none;fill-rule:evenodd;stroke:context-stroke;stroke-width:0.8;stroke-linecap:round" d="M -3.8048674,4.1775838 L 0.54352094,0.21974226" id="path41600"></path><path style="fill:none;fill-rule:evenodd;stroke:context-stroke;stroke-width:0.8;stroke-linecap:round" d="M -1.2866832,4.1775838 L 3.0617053,0.21974226" id="path41602"></path><path style="fill:none;fill-rule:evenodd;stroke:context-stroke;stroke-width:0.8;stroke-linecap:round" d="M 1.3053582,4.1775838 L 5.6537466,0.21974226" id="path41604"></path></g></marker><marker style="overflow:visible;" id="Arrow2Lend" refX="0.0" refY="0.0" orient="auto" inkscape:stockid="Arrow2Lend" inkscape:isstock="true"><path transform="scale(1.1) rotate(180) translate(1,0)" d="M 8.7185878,4.0337352 L -2.2072895,0.016013256 L 8.7185884,-4.0017078 C 6.9730900,-1.6296469 6.9831476,1.6157441 8.7185878,4.0337352 z " style="fill-rule:evenodd;fill:context-stroke;stroke-width:0.62500000;stroke-linejoin:round;" id="path41579"></path></marker><marker style="overflow:visible" id="SquareL" refX="0.0" refY="0.0" orient="auto" inkscape:stockid="SquareL" inkscape:isstock="true"><path transform="scale(0.8)" style="fill-rule:evenodd;fill:context-stroke;stroke:context-stroke;stroke-width:1.0pt" d="M -5.0,-5.0 L -5.0,5.0 L 5.0,5.0 L 5.0,-5.0 L -5.0,-5.0 z " id="path41628"></path></marker><marker style="overflow:visible" id="DotL" refX="0.0" refY="0.0" orient="auto" inkscape:stockid="DotL" inkscape:isstock="true"><path transform="scale(0.8) translate(7.4, 1)" style="fill-rule:evenodd;fill:context-stroke;stroke:context-stroke;stroke-width:1.0pt" d="M -2.5,-1.0 C -2.5,1.7600000 -4.7400000,4.0 -7.5,4.0 C -10.260000,4.0 -12.5,1.7600000 -12.5,-1.0 C -12.5,-3.7600000 -10.260000,-6.0 -7.5,-6.0 C -4.7400000,-6.0 -2.5,-3.7600000 -2.5,-1.0 z " id="path41619"></path></marker><marker style="overflow:visible;" id="Arrow1Lend" refX="0.0" refY="0.0" orient="auto" inkscape:stockid="Arrow1Lend" inkscape:isstock="true"><path transform="scale(0.8) rotate(180) translate(12.5,0)" style="fill-rule:evenodd;fill:context-stroke;stroke:context-stroke;stroke-width:1.0pt;" d="M 0.0,0.0 L 5.0,-5.0 L -12.5,0.0 L 5.0,5.0 L 0.0,0.0 z " id="path41561"></path></marker><filter inkscape:collect="always" style="color-interpolation-filters:sRGB" id="filter12854" x="-0.03031912" y="-0.079312818" width="1.0606382" height="1.1586256"><feGaussianBlur inkscape:collect="always" stdDeviation="0.57375021" id="feGaussianBlur12856"></feGaussianBlur></filter><rect x="429.68452" y="907.24009" width="1520.3687" height="79.764585" id="rect8101"></rect><filter style="color-interpolation-filters:sRGB;" inkscape:label="Blur" id="filter98609" x="-0.11436497" y="-2.9859299" width="1.2287299" height="6.9718598"><feGaussianBlur stdDeviation="10 10" id="feGaussianBlur98607"></feGaussianBlur><feGaussianBlur id="feGaussianBlur98631" stdDeviation="10 10"></feGaussianBlur></filter></defs><g inkscape:label="Layer 1" inkscape:groupmode="layer" id="layer1"><text xml:space="preserve" style="font-style:normal;font-weight:normal;font-size:10.5833px;line-height:1.25;font-family:sans-serif;fill:#000000;fill-opacity:1;stroke:none;stroke-width:0.264583" x="392.10852" y="-312.17267" id="text155091"><tspan sodipodi:role="line" id="tspan155089" style="stroke-width:0.264583" x="392.10852" y="-312.17267"></tspan></text><path style="fill:url(#linearGradient1413);fill-opacity:1;stroke:none;stroke-width:0.264583px;stroke-linecap:butt;stroke-linejoin:miter;stroke-opacity:1" d="M 0,285.75 507.99999,0 H 0 Z" id="path1012"></path><path style="opacity:0.377674;mix-blend-mode:normal;fill:#000000;fill-opacity:1;stroke:none;stroke-width:0.275607px;stroke-linecap:butt;stroke-linejoin:miter;stroke-opacity:1;filter:url(#filter10346)" d="M -12.174183,291.70312 H 516.99249 V -5.953125 c 0,0 -69.03212,15.633858 -99.21875,33.072918 -22.2326,12.84395 -34.20005,40.57915 -57.60507,51.13663 -25.96221,11.71098 -59.62297,-2.93203 -84.8138,10.35726 -24.135,12.732267 -30.81449,47.187037 -54.06708,61.467317 -17.12301,10.5159 -40.64318,5.58927 -58.37687,15.039 -17.09462,9.10919 -26.10901,29.92628 -43.41639,38.62443 -17.38283,8.73607 -40.365955,2.00518 -57.149484,11.84362 -14.080178,8.25374 -18.814604,27.48758 -32.090974,36.9804 -5.646294,4.03719 -13.812229,3.57281 -19.296026,7.82811 -10.25094381,7.95448 -23.132229,31.30656 -23.132229,31.30656 z" id="path5684" sodipodi:nodetypes="cccaaaaaaaaac"></path><path style="fill:url(#linearGradient4612);fill-opacity:1;stroke:none;stroke-width:0.264743px;stroke-linecap:butt;stroke-linejoin:miter;stroke-opacity:1" d="M 2.3595991e-6,286.09593 H 507.99999 V 0 c 0,0 -66.27084,15.02668 -95.25,31.788439 -21.34329,12.345127 -32.83205,39.003141 -55.30086,49.150601 -24.92373,11.25615 -57.23805,-2.818158 -81.42125,9.954997 -23.1696,12.237783 -28.89861,46.536303 -51.90439,59.080073 -17.85625,9.73602 -42.33683,-0.47411 -60.3305,9.00492 -17.01331,8.96259 -22.84166,32.32657 -39.3158,42.24762 -19.32444,11.63758 -46.572516,5.04375 -65.338375,17.56419 C 46.707301,227.08505 42.477933,243.89868 31.75,254.3075 24.227112,261.6066 12.972277,264.6733 6.2835481,272.7455 3.146279,276.53168 2.3595991e-6,286.09593 2.3595991e-6,286.09593 Z" id="path1014" sodipodi:nodetypes="cccaaaaaaaaac"></path><g id="g12816" transform="matrix(7.5449475,0,0,7.5449475,-504.91156,-872.32881)" inkscape:export-filename="/home/amr/path26513.png" inkscape:export-xdpi="273.29999" inkscape:export-ydpi="273.29999" style="opacity:0.252665;fill:#1a1a1a;filter:url(#filter12854)"><g id="g12802" transform="matrix(0.15255503,0,0,0.15255503,52.341515,94.401356)" style="fill:#1a1a1a"><g id="g12800" style="fill:#1a1a1a"><g id="g12726" style="fill:#1a1a1a"><g id="g12720" style="fill:#1a1a1a"><path id="circle12718" d="m 429.926,261.77301 a 21.892,21.892 0 0 1 -21.892,21.892 21.892,21.892 0 0 1 -21.892,-21.892 21.892,21.892 0 0 1 21.892,-21.892 21.892,21.892 0 0 1 21.892,21.892 z"></path></g><g id="g12724" style="fill:#1a1a1a"><path fill="#092f4b" d="m 408.033,284.165 c -12.346,0 -22.391,-10.045 -22.391,-22.392 0,-12.347 10.045,-22.392 22.391,-22.392 12.348,0 22.393,10.045 22.393,22.392 0,12.347 -10.045,22.392 -22.393,22.392 z m 0,-43.783 c -11.795,0 -21.391,9.596 -21.391,21.392 0,11.795 9.596,21.392 21.391,21.392 11.797,0 21.393,-9.597 21.393,-21.392 0,-11.796 -9.596,-21.392 -21.393,-21.392 z" id="path12722" style="fill:#1a1a1a"></path></g></g><g id="g12732" style="fill:#1a1a1a"><g id="g12730" style="fill:#1a1a1a"><path fill="#008a2e" d="m 408.033,289.387 c -15.249,0 -27.611,-12.363 -27.611,-27.613 0,-15.25 12.362,-27.612 27.611,-27.612 15.252,0 27.614,12.362 27.614,27.612 0,2.474 -0.33,4.868 -0.939,7.149 l 21.005,21.217 c 4.95,-8.301 7.796,-18 7.796,-28.366 0,-30.638 -24.836,-55.475 -55.476,-55.475 -30.637,0 -55.474,24.837 -55.474,55.475 0,30.638 24.837,55.474 55.474,55.474 11.486,0 22.156,-3.49 31.009,-9.468 l -20.331,-20.534 c -3.285,1.377 -6.891,2.141 -10.678,2.141 z" id="path12728" style="fill:#1a1a1a"></path></g></g><g id="g12750" style="fill:#1a1a1a"><g id="g12736" style="fill:#1a1a1a"><path fill="#092f4b" d="m 433.813,271.671 c -0.519,1.352 -1.142,2.649 -1.856,3.888 l 19.263,19.225 2.78,-2.967 z" id="path12734" style="fill:#1a1a1a"></path></g><g id="g12740" style="fill:#1a1a1a"><path fill="#092f4b" d="m 420.945,286.182 19.81,19.77 2.779,-2.967 -19.063,-19.024 c -1.114,0.825 -2.293,1.567 -3.526,2.221 z" id="path12738" style="fill:#1a1a1a"></path></g><g id="g12744" style="fill:#1a1a1a"><path fill="#092f4b" d="m 425.297,283.317 18.948,18.908 2.779,-2.966 -18.749,-18.712 c -0.923,0.996 -1.918,1.921 -2.978,2.77 z" id="path12742" style="fill:#1a1a1a"></path></g><g id="g12748" style="fill:#1a1a1a"><path fill="#092f4b" d="m 428.965,279.771 18.769,18.73 2.78,-2.966 -19.105,-19.067 c -0.734,1.164 -1.552,2.267 -2.444,3.303 z" id="path12746" style="fill:#1a1a1a"></path></g></g><g id="g12754" style="fill:#1a1a1a"><path id="rect12752" transform="matrix(0.7071,0.7071,-0.7071,0.7071,347.04,-224.395)" d="m 442.36899,304.69699 h 4.04 v 4.04 h -4.04 z"></path></g><g id="g12758" style="fill:#1a1a1a"><path id="rect12756" transform="matrix(0.7072,0.707,-0.707,0.7072,350.4543,-225.8308)" d="m 445.875,308.203 h 4.04 v 4.04 h -4.04 z"></path></g><g id="g12762" style="fill:#1a1a1a"><path id="rect12760" transform="matrix(0.707,0.7072,-0.7072,0.707,357.6724,-228.777)" d="m 452.90799,315.23599 h 4.04 v 4.04 h -4.04 z"></path></g><g id="g12766" style="fill:#1a1a1a"><path id="rect12764" transform="matrix(0.7071,0.7071,-0.7071,0.7071,345.5513,-228.0393)" d="m 446.02399,301.077 h 4.04 v 4.04 h -4.04 z"></path></g><g id="g12770" style="fill:#1a1a1a"><path id="rect12768" transform="matrix(0.707,0.7072,-0.7072,0.707,352.5332,-230.9103)" d="m 452.91199,307.96701 h 4.04 v 4.04 h -4.04 z"></path></g><g id="g12774" style="fill:#1a1a1a"><path id="rect12772" transform="matrix(0.7071,0.7071,-0.7071,0.7071,359.5474,-233.8367)" d="m 460.01901,315.07401 h 4.041 v 4.04 h -4.041 z"></path></g><g id="g12778" style="fill:#1a1a1a"><path id="rect12776" transform="matrix(0.707,0.7072,-0.7072,0.707,344.1754,-231.6105)" d="m 449.578,297.53101 h 4.04 v 4.04 h -4.04 z"></path></g><g id="g12782" style="fill:#1a1a1a"><path id="rect12780" transform="matrix(0.7071,0.7071,-0.7071,0.7071,342.5427,-235.2075)" d="m 453.172,293.862 h 4.04 v 4.04 h -4.04 z"></path></g><g id="g12786" style="fill:#1a1a1a"><path id="rect12784" transform="matrix(0.7071,0.7071,-0.7071,0.7071,347.6412,-233.0653)" d="m 453.13501,301.08801 h 4.04 v 4.04 h -4.04 z"></path></g><g id="g12790" style="fill:#1a1a1a"><path id="rect12788" transform="matrix(0.7071,0.7071,-0.7071,0.7071,354.5318,-235.9194)" d="m 460.026,307.978 h 4.04 v 4.04 h -4.04 z"></path></g><g id="g12794" style="fill:#1a1a1a"><path id="rect12792" transform="matrix(0.707,0.7072,-0.7072,0.707,346.1918,-236.7001)" d="m 456.729,297.41901 h 4.04 v 4.04 h -4.04 z"></path></g><g id="g12798" style="fill:#1a1a1a"><path id="rect12796" transform="matrix(0.7071,0.7071,-0.7071,0.7071,349.5886,-238.126)" d="m 460.21799,300.90799 h 4.04 v 4.04 h -4.04 z"></path></g></g></g><g id="g12814" transform="matrix(0.14098464,0,0,0.14098464,31.242951,86.593407)" style="fill:#1a1a1a"><g id="g12810" style="fill:#1a1a1a"><path fill="#092f4b" d="m 430.649,375.224 h -51.556 c -4.68,9.172 -12.258,13.758 -22.738,13.758 -7.051,0 -13.068,-2.496 -18.059,-7.488 -5.365,-5.365 -7.859,-11.414 -7.486,-18.152 l 0.094,-1.871 h 13.754 c -0.125,0.873 -0.186,1.496 -0.186,1.871 0,7.984 3.96,11.98 11.883,11.98 7.921,0 11.883,-3.996 11.883,-11.98 v -22.175 h 13.566 v 20.304 h 7.486 l 0.094,-24.793 h 13.57 l 0.092,24.793 h 7.207 v -27.696 h 13.563 v 27.696 h 6.832 v 13.753 z" id="path12804" style="fill:#1a1a1a"></path><path fill="#092f4b" d="m 426.905,361.47 h 6.736 l 0.094,-20.304 h 13.567 v 20.304 h 7.485 l 0.095,-24.793 h 13.565 v 24.793 h 7.3 v -27.788 h 13.568 v 41.542 H 426.904 V 361.47 Z" id="path12806" style="fill:#1a1a1a"></path><path fill="#092f4b" d="m 510.367,375.224 h -13.568 v -62.969 h 13.568 z" id="path12808" style="fill:#1a1a1a"></path></g><path fill="#008a2e" d="m 500.542,302.897 h 10.573 v 4.117 h -15.063 c -0.25,-0.686 -0.376,-1.465 -0.376,-2.34 0,-3.617 1.155,-6.736 3.462,-9.357 2.308,-2.619 6.176,-3.931 11.603,-3.931 v 4.305 c -2.494,0 -4.819,0.579 -6.973,1.732 -2.151,1.154 -3.226,2.98 -3.226,5.474 z" id="path12812" style="fill:#1a1a1a"></path></g></g><g id="g2284" transform="matrix(7.5449475,0,0,7.5449475,-504.91156,-872.32881)" inkscape:export-filename="/home/amr/path26513.png" inkscape:export-xdpi="273.29999" inkscape:export-ydpi="273.29999"><g id="g1221" transform="matrix(0.15255503,0,0,0.15255503,52.341515,94.401356)"><g id="g1219"><g id="g1145"><g id="g1139"><path id="circle1137" style="fill:#ffffff" d="m 429.926,261.77301 a 21.892,21.892 0 0 1 -21.892,21.892 21.892,21.892 0 0 1 -21.892,-21.892 21.892,21.892 0 0 1 21.892,-21.892 21.892,21.892 0 0 1 21.892,21.892 z"></path></g><g id="g1143"><path fill="#092f4b" d="m 408.033,284.165 c -12.346,0 -22.391,-10.045 -22.391,-22.392 0,-12.347 10.045,-22.392 22.391,-22.392 12.348,0 22.393,10.045 22.393,22.392 0,12.347 -10.045,22.392 -22.393,22.392 z m 0,-43.783 c -11.795,0 -21.391,9.596 -21.391,21.392 0,11.795 9.596,21.392 21.391,21.392 11.797,0 21.393,-9.597 21.393,-21.392 0,-11.796 -9.596,-21.392 -21.393,-21.392 z" id="path1141" style="fill:#ffffff"></path></g></g><g id="g1151"><g id="g1149"><path fill="#008a2e" d="m 408.033,289.387 c -15.249,0 -27.611,-12.363 -27.611,-27.613 0,-15.25 12.362,-27.612 27.611,-27.612 15.252,0 27.614,12.362 27.614,27.612 0,2.474 -0.33,4.868 -0.939,7.149 l 21.005,21.217 c 4.95,-8.301 7.796,-18 7.796,-28.366 0,-30.638 -24.836,-55.475 -55.476,-55.475 -30.637,0 -55.474,24.837 -55.474,55.475 0,30.638 24.837,55.474 55.474,55.474 11.486,0 22.156,-3.49 31.009,-9.468 l -20.331,-20.534 c -3.285,1.377 -6.891,2.141 -10.678,2.141 z" id="path1147" style="fill:#ffffff"></path></g></g><g id="g1169"><g id="g1155"><path fill="#092f4b" d="m 433.813,271.671 c -0.519,1.352 -1.142,2.649 -1.856,3.888 l 19.263,19.225 2.78,-2.967 z" id="path1153" style="fill:#ffffff"></path></g><g id="g1159"><path fill="#092f4b" d="m 420.945,286.182 19.81,19.77 2.779,-2.967 -19.063,-19.024 c -1.114,0.825 -2.293,1.567 -3.526,2.221 z" id="path1157" style="fill:#ffffff"></path></g><g id="g1163"><path fill="#092f4b" d="m 425.297,283.317 18.948,18.908 2.779,-2.966 -18.749,-18.712 c -0.923,0.996 -1.918,1.921 -2.978,2.77 z" id="path1161" style="fill:#ffffff"></path></g><g id="g1167"><path fill="#092f4b" d="m 428.965,279.771 18.769,18.73 2.78,-2.966 -19.105,-19.067 c -0.734,1.164 -1.552,2.267 -2.444,3.303 z" id="path1165" style="fill:#ffffff"></path></g></g><g id="g1173"><path id="rect1171" style="fill:#ffffff" transform="matrix(0.7071,0.7071,-0.7071,0.7071,347.04,-224.395)" d="m 442.36899,304.69699 h 4.04 v 4.04 h -4.04 z"></path></g><g id="g1177"><path id="rect1175" style="fill:#ffffff" transform="matrix(0.7072,0.707,-0.707,0.7072,350.4543,-225.8308)" d="m 445.875,308.203 h 4.04 v 4.04 h -4.04 z"></path></g><g id="g1181"><path id="rect1179" style="fill:#ffffff" transform="matrix(0.707,0.7072,-0.7072,0.707,357.6724,-228.777)" d="m 452.90799,315.23599 h 4.04 v 4.04 h -4.04 z"></path></g><g id="g1185"><path id="rect1183" style="fill:#ffffff" transform="matrix(0.7071,0.7071,-0.7071,0.7071,345.5513,-228.0393)" d="m 446.02399,301.077 h 4.04 v 4.04 h -4.04 z"></path></g><g id="g1189"><path id="rect1187" style="fill:#ffffff" transform="matrix(0.707,0.7072,-0.7072,0.707,352.5332,-230.9103)" d="m 452.91199,307.96701 h 4.04 v 4.04 h -4.04 z"></path></g><g id="g1193"><path id="rect1191" style="fill:#ffffff" transform="matrix(0.7071,0.7071,-0.7071,0.7071,359.5474,-233.8367)" d="m 460.01901,315.07401 h 4.041 v 4.04 h -4.041 z"></path></g><g id="g1197"><path id="rect1195" style="fill:#ffffff" transform="matrix(0.707,0.7072,-0.7072,0.707,344.1754,-231.6105)" d="m 449.578,297.53101 h 4.04 v 4.04 h -4.04 z"></path></g><g id="g1201"><path id="rect1199" style="fill:#ffffff" transform="matrix(0.7071,0.7071,-0.7071,0.7071,342.5427,-235.2075)" d="m 453.172,293.862 h 4.04 v 4.04 h -4.04 z"></path></g><g id="g1205"><path id="rect1203" style="fill:#ffffff" transform="matrix(0.7071,0.7071,-0.7071,0.7071,347.6412,-233.0653)" d="m 453.13501,301.08801 h 4.04 v 4.04 h -4.04 z"></path></g><g id="g1209"><path id="rect1207" style="fill:#ffffff" transform="matrix(0.7071,0.7071,-0.7071,0.7071,354.5318,-235.9194)" d="m 460.026,307.978 h 4.04 v 4.04 h -4.04 z"></path></g><g id="g1213"><path id="rect1211" style="fill:#ffffff" transform="matrix(0.707,0.7072,-0.7072,0.707,346.1918,-236.7001)" d="m 456.729,297.41901 h 4.04 v 4.04 h -4.04 z"></path></g><g id="g1217"><path id="rect1215" style="fill:#ffffff" transform="matrix(0.7071,0.7071,-0.7071,0.7071,349.5886,-238.126)" d="m 460.21799,300.90799 h 4.04 v 4.04 h -4.04 z"></path></g></g></g><g id="g1233" transform="matrix(0.14098464,0,0,0.14098464,31.242951,86.593407)" style="fill:#ffffff"><g id="g1229" style="fill:#ffffff"><path fill="#092f4b" d="m 430.649,375.224 h -51.556 c -4.68,9.172 -12.258,13.758 -22.738,13.758 -7.051,0 -13.068,-2.496 -18.059,-7.488 -5.365,-5.365 -7.859,-11.414 -7.486,-18.152 l 0.094,-1.871 h 13.754 c -0.125,0.873 -0.186,1.496 -0.186,1.871 0,7.984 3.96,11.98 11.883,11.98 7.921,0 11.883,-3.996 11.883,-11.98 v -22.175 h 13.566 v 20.304 h 7.486 l 0.094,-24.793 h 13.57 l 0.092,24.793 h 7.207 v -27.696 h 13.563 v 27.696 h 6.832 v 13.753 z" id="path1223" style="fill:#ffffff"></path><path fill="#092f4b" d="m 426.905,361.47 h 6.736 l 0.094,-20.304 h 13.567 v 20.304 h 7.485 l 0.095,-24.793 h 13.565 v 24.793 h 7.3 v -27.788 h 13.568 v 41.542 H 426.904 V 361.47 Z" id="path1225" style="fill:#ffffff"></path><path fill="#092f4b" d="m 510.367,375.224 h -13.568 v -62.969 h 13.568 z" id="path1227" style="fill:#ffffff"></path></g><path fill="#008a2e" d="m 500.542,302.897 h 10.573 v 4.117 h -15.063 c -0.25,-0.686 -0.376,-1.465 -0.376,-2.34 0,-3.617 1.155,-6.736 3.462,-9.357 2.308,-2.619 6.176,-3.931 11.603,-3.931 v 4.305 c -2.494,0 -4.819,0.579 -6.973,1.732 -2.151,1.154 -3.226,2.98 -3.226,5.474 z" id="path1231" style="fill:#ffffff"></path></g></g><rect style="fill:none;stroke-width:0.264583" id="rect2178" width="508" height="286.09595" x="0" y="0" inkscape:export-filename="/home/faris/Downloads/Telegram Desktop/rect2178.png" inkscape:export-xdpi="96" inkscape:export-ydpi="96"></rect><text xml:space="preserve" style="font-style:normal;font-weight:normal;font-size:11.2889px;line-height:1.25;font-family:sans-serif;fill:#666666;fill-opacity:1;stroke:none;stroke-width:0.264583;filter:url(#filter98609)" x="43.846123" y="259.86349" id="text2511-9"><tspan sodipodi:role="line" id="tspan2509-7" style="font-style:normal;font-variant:normal;font-weight:bold;font-stretch:normal;font-size:11.2889px;font-family:Almarai;-inkscape-font-specification:'Almarai Bold';fill:#666666;stroke-width:0.264583" x="43.846123" y="259.86349"> مجتمع أسس هو أكبر مجتمع عربي للبرمجيات الحرة والمفتوحة,ويهدف الى نشرها واثرائها</tspan></text><text xml:space="preserve" style="font-style:normal;font-weight:normal;font-size:11.2889px;line-height:1.25;font-family:sans-serif;fill:#000000;fill-opacity:1;stroke:none;stroke-width:0.264583" x="43.947578" y="259.11371" id="text2511"><tspan sodipodi:role="line" id="tspan2509" style="font-style:normal;font-variant:normal;font-weight:bold;font-stretch:normal;font-size:11.2889px;font-family:Almarai;-inkscape-font-specification:'Almarai Bold';fill:#ffffff;stroke-width:0.264583" x="43.947578" y="259.11371"> مجتمع أسس هو أكبر مجتمع عربي للبرمجيات الحرة والمفتوحة و يهدف الى نشرها و إثرائها</tspan></text></g></svg>