<svg height="512pt" viewBox="0 0 512 512" width="512pt" xmlns="http://www.w3.org/2000/svg"><path d="m-16.154467-1.741228h533.99384v519.59937h-533.99384z" fill="#fff" stroke-width=".75"/><g fill="none"><g fill="#092f4b"><circle cx="252.7232695564" cy="249.71953379485" r="98.3805595032"/><path d="m22.391 44.784c-12.346 0-22.391-10.045-22.391-22.392s10.045-22.392 22.391-22.392c12.348 0 22.393 10.045 22.393 22.392s-10.045 22.392-22.393 22.392zm0-43.783c-11.795 0-21.391 9.596-21.391 21.392 0 11.795 9.596 21.392 21.391 21.392 11.797 0 21.393-9.597 21.393-21.392 0-11.796-9.596-21.392-21.393-21.392z" transform="matrix(4.4939046 0 0 4.4939046 152.0957577532 149.0919770526)"/></g><path d="m55.474 83.088c-15.249 0-27.611-12.363-27.611-27.613s12.362-27.612 27.611-27.612c15.252 0 27.614 12.362 27.614 27.612 0 2.474-.33 4.868-.939 7.149l21.005 21.217c4.95-8.301 7.796-18 7.796-28.366 0-30.638-24.836-55.475-55.476-55.475-30.637 0-55.474 24.837-55.474 55.475s24.837 55.474 55.474 55.474c11.486 0 22.156-3.49 31.009-9.468l-20.331-20.534c-3.285 1.377-6.891 2.141-10.678 2.141z" fill="#008a2e" transform="matrix(4.4939046 0 0 4.4939046 3.4239118714 .4246250754)"/><g fill="#092f4b"><path d="m1.856 0c-.519 1.352-1.142 2.649-1.856 3.888l19.263 19.225 2.78-2.967z" transform="matrix(4.4939046 0 0 4.4939046 360.2309493022 294.2001565866)"/><path d="m0 2.221 19.81 19.77 2.779-2.967-19.063-19.024c-1.114.825-2.293 1.567-3.526 2.221z" transform="matrix(4.4939046 0 0 4.4939046 310.744071847 349.4302441206)"/><path d="m0 2.77 18.948 18.908 2.779-2.966-18.749-18.712c-.923.996-1.918 1.921-2.978 2.77z" transform="matrix(4.4939046 0 0 4.4939046 330.3015446662 334.0880538162)"/><path d="m0 3.303 18.769 18.73 2.78-2.966-19.105-19.067c-.734 1.164-1.552 2.267-2.444 3.303z" transform="matrix(4.4939046 0 0 4.4939046 346.785186739 315.7574169528)"/></g><g fill="#008a2e"><path d="m0 0h4.04v4.04h-4.04z" transform="matrix(3.17763994266 3.17763994266 -3.17763994266 3.17763994266 416.0940931772 438.83355509961)"/><path d="m0 0h4.04v4.04h-4.04z" transform="matrix(3.17808933312 3.1771905522 -3.1771905522 3.17808933312 431.77651699887 454.60104853535)"/><path d="m0 0h4.04v4.04h-4.04z" transform="matrix(3.1771905522 3.17808933312 -3.17808933312 3.1771905522 463.52990763392 486.18146878235)"/><path d="m0 0h4.04v4.04h-4.04z" transform="matrix(3.17763994266 3.17763994266 -3.17763994266 3.17763994266 432.52133674727 422.56768764373)"/><path d="m0 0h4.04v4.04h-4.04z" transform="matrix(3.1771905522 3.17808933312 -3.17808933312 3.1771905522 463.54900672847 453.512400146)"/><path d="m0 0h4.041v4.04h-4.041z" transform="matrix(3.17763994266 3.17763994266 -3.17763994266 3.17763994266 495.41213851385 485.46329788822)"/><path d="m0 0h4.04v4.04h-4.04z" transform="matrix(3.1771905522 3.17808933312 -3.17808933312 3.1771905522 448.56367738835 406.61288826425)"/><path d="m0 0h4.04v4.04h-4.04z" transform="matrix(3.17763994266 3.17763994266 -3.17763994266 3.17763994266 464.64142999768 390.1416044291)"/><path d="m0 0h4.04v4.04h-4.04z" transform="matrix(3.17763994266 3.17763994266 -3.17763994266 3.17763994266 464.4743915637 422.61258175068)"/><path d="m0 0h4.04v4.04h-4.04z" transform="matrix(3.17763994266 3.17763994266 -3.17763994266 3.17763994266 495.44328127272 453.57751682366)"/><path d="m0 0h4.04v4.04h-4.04z" transform="matrix(3.1771905522 3.17808933312 -3.17808933312 3.1771905522 480.70120698861 406.11136851089)"/><path d="m0 0h4.04v4.04h-4.04z" transform="matrix(3.17763994266 3.17763994266 -3.17763994266 3.17763994266 496.30503241882 421.80538660643)"/></g></g></svg>