<svg height="11.5in" viewBox="0 0 11.5 11.5" width="11.5in" xmlns="http://www.w3.org/2000/svg"><path d="m3.55 1.25c-.647 0-1.23.16-1.74.481-.514.314-.918.744-1.21 1.29-.287.547-.43 1.16-.43 1.83 0 .594.117 1.14.35 1.65.234.507.561.928.981 1.26.42.334.901.547 1.44.641l-1.12.41c-.18.0667-.27.204-.27.41 0 .12.0434.227.13.32.0934.1.204.15.33.15.14 0 .29-.04.451-.12.0667-.0334.133-.0634.2-.0901.0734-.02.15-.03.23-.03.18 0 .337.0234.471.0701.133.0534.304.137.511.25.274.154.537.27.791.35.254.0801.584.12.991.12.254 0 .534-.05.841-.15s.567-.23.781-.39.32-.327.32-.501c0-.12-.0467-.227-.14-.32-.0868-.0868-.187-.13-.3-.13-.0601-.0000002-.12.0133-.18.04-.0534.0334-.117.0767-.19.13-.0667.0601-.127.11-.18.15-.127.0934-.26.167-.4.22-.14.0534-.307.0801-.501.0801-.22 0-.42-.0334-.601-.1-.18-.0601-.39-.15-.631-.27-.194-.1-.36-.18-.501-.24-.133-.0534-.284-.0901-.451-.11l.761-.28c.521-.107.981-.327 1.38-.661.4-.334.711-.747.931-1.24.227-.494.34-1.03.34-1.62 0-.674-.147-1.28-.44-1.83-.287-.547-.687-.978-1.2-1.29-.514-.32-1.09-.481-1.74-.481zm0 .951c.454 0 .858.117 1.21.35.36.227.641.544.841.951.2.4.3.851.3 1.35 0 .501-.1.954-.3 1.36-.2.4-.481.717-.841.951-.354.227-.758.34-1.21.34-.454 0-.861-.113-1.22-.34-.354-.234-.631-.551-.831-.951-.2-.407-.3-.861-.3-1.36 0-.507.1-.961.3-1.36.2-.407.477-.724.831-.951.36-.227.768-.34 1.22-.34zm7.15.791c-.374.00667-.707.113-1 .32-.294.2-.514.464-.661.791v-.511c0-.133-.0467-.247-.14-.34-.0868-.0934-.2-.14-.34-.14-.133.0000001-.247.0467-.34.14-.0868.0934-.13.207-.13.34v4.28c0 .14.0434.257.13.35.0868.0868.2.13.34.13s.254-.0467.34-.14c.0934-.0934.14-.207.14-.34v-2.41c0-.307.0601-.584.18-.831.127-.254.287-.45.481-.591.2-.147.404-.22.611-.22.0801 0 .19.0234.33.0701.12.04.21.0601.27.0601.12 0 .22-.04.3-.12.0868-.0868.13-.21.13-.37 0-.133-.0634-.244-.19-.33-.127-.0934-.277-.14-.451-.14z" fill="#34a19b"/></svg>