<svg xmlns:inkscape="http://www.inkscape.org/namespaces/inkscape" xmlns:sodipodi="http://sodipodi.sourceforge.net/DTD/sodipodi-0.dtd" xmlns:xlink="http://www.w3.org/1999/xlink" xmlns="http://www.w3.org/2000/svg" xmlns:svg="http://www.w3.org/2000/svg" width="1920" height="1080" viewBox="0 0 508 285.75" id="svg5" inkscape:version="1.1 (c68e22c387, 2021-05-23)" sodipodi:docname="aosus-background.svg" inkscape:export-filename="/home/faris/Design/images/aosus-background.jpeg" inkscape:export-xdpi="79.606735" inkscape:export-ydpi="79.606735"><defs id="defs2"><rect x="429.68452" y="907.24009" width="1520.3687" height="79.764585" id="rect17451"></rect><linearGradient inkscape:collect="always" id="linearGradient4610"><stop style="stop-color:#00ff37;stop-opacity:1" offset="0" id="stop4606"></stop><stop style="stop-color:#008073;stop-opacity:1" offset="1" id="stop4608"></stop></linearGradient><linearGradient inkscape:collect="always" id="linearGradient1411"><stop style="stop-color:#00805d;stop-opacity:1" offset="0" id="stop1407"></stop><stop style="stop-color:#000080;stop-opacity:1" offset="1" id="stop1409"></stop></linearGradient><linearGradient inkscape:collect="always" xlink:href="#linearGradient1411" id="linearGradient1413" x1="0" y1="0" x2="508" y2="285.75" gradientUnits="userSpaceOnUse"></linearGradient><linearGradient inkscape:collect="always" xlink:href="#linearGradient4610" id="linearGradient4612" x1="0" y1="0" x2="508" y2="285.75" gradientUnits="userSpaceOnUse" gradientTransform="scale(1,1.0012106)"></linearGradient><filter inkscape:collect="always" style="color-interpolation-filters:sRGB" id="filter10346" x="-0.078845528" y="-0.14016983" width="1.1576911" height="1.2803397"><feGaussianBlur inkscape:collect="always" stdDeviation="17.384345" id="feGaussianBlur10348"></feGaussianBlur></filter><rect x="503.6559" y="-1995.8342" width="76.938277" height="136.18029" id="rect146527"></rect><rect x="177.80033" y="-2338.5341" width="71.266364" height="116.26786" id="rect141081"></rect><marker style="overflow:visible" id="Tail" refX="0.0" refY="0.0" orient="auto" inkscape:stockid="Tail" inkscape:isstock="true"><g transform="scale(-1.2)" id="g41606"><path style="fill:none;fill-rule:evenodd;stroke:context-stroke;stroke-width:0.8;stroke-linecap:round" d="M -3.8048674,-3.9585227 L 0.54352094,0" id="path41594"></path><path style="fill:none;fill-rule:evenodd;stroke:context-stroke;stroke-width:0.8;stroke-linecap:round" d="M -1.2866832,-3.9585227 L 3.0617053,0" id="path41596"></path><path style="fill:none;fill-rule:evenodd;stroke:context-stroke;stroke-width:0.8;stroke-linecap:round" d="M 1.3053582,-3.9585227 L 5.6537466,0" id="path41598"></path><path style="fill:none;fill-rule:evenodd;stroke:context-stroke;stroke-width:0.8;stroke-linecap:round" d="M -3.8048674,4.1775838 L 0.54352094,0.21974226" id="path41600"></path><path style="fill:none;fill-rule:evenodd;stroke:context-stroke;stroke-width:0.8;stroke-linecap:round" d="M -1.2866832,4.1775838 L 3.0617053,0.21974226" id="path41602"></path><path style="fill:none;fill-rule:evenodd;stroke:context-stroke;stroke-width:0.8;stroke-linecap:round" d="M 1.3053582,4.1775838 L 5.6537466,0.21974226" id="path41604"></path></g></marker><marker style="overflow:visible;" id="Arrow2Lend" refX="0.0" refY="0.0" orient="auto" inkscape:stockid="Arrow2Lend" inkscape:isstock="true"><path transform="scale(1.1) rotate(180) translate(1,0)" d="M 8.7185878,4.0337352 L -2.2072895,0.016013256 L 8.7185884,-4.0017078 C 6.9730900,-1.6296469 6.9831476,1.6157441 8.7185878,4.0337352 z " style="fill-rule:evenodd;fill:context-stroke;stroke-width:0.62500000;stroke-linejoin:round;" id="path41579"></path></marker><marker style="overflow:visible" id="SquareL" refX="0.0" refY="0.0" orient="auto" inkscape:stockid="SquareL" inkscape:isstock="true"><path transform="scale(0.8)" style="fill-rule:evenodd;fill:context-stroke;stroke:context-stroke;stroke-width:1.0pt" d="M -5.0,-5.0 L -5.0,5.0 L 5.0,5.0 L 5.0,-5.0 L -5.0,-5.0 z " id="path41628"></path></marker><marker style="overflow:visible" id="DotL" refX="0.0" refY="0.0" orient="auto" inkscape:stockid="DotL" inkscape:isstock="true"><path transform="scale(0.8) translate(7.4, 1)" style="fill-rule:evenodd;fill:context-stroke;stroke:context-stroke;stroke-width:1.0pt" d="M -2.5,-1.0 C -2.5,1.7600000 -4.7400000,4.0 -7.5,4.0 C -10.260000,4.0 -12.5,1.7600000 -12.5,-1.0 C -12.5,-3.7600000 -10.260000,-6.0 -7.5,-6.0 C -4.7400000,-6.0 -2.5,-3.7600000 -2.5,-1.0 z " id="path41619"></path></marker><marker style="overflow:visible;" id="Arrow1Lend" refX="0.0" refY="0.0" orient="auto" inkscape:stockid="Arrow1Lend" inkscape:isstock="true"><path transform="scale(0.8) rotate(180) translate(12.5,0)" style="fill-rule:evenodd;fill:context-stroke;stroke:context-stroke;stroke-width:1.0pt;" d="M 0.0,0.0 L 5.0,-5.0 L -12.5,0.0 L 5.0,5.0 L 0.0,0.0 z " id="path41561"></path></marker><rect x="429.68452" y="907.24009" width="1520.3687" height="79.764585" id="rect8101"></rect></defs><g inkscape:label="Layer 1" inkscape:groupmode="layer" id="layer1"><text xml:space="preserve" style="font-style:normal;font-weight:normal;font-size:10.5833px;line-height:1.25;font-family:sans-serif;fill:#000000;fill-opacity:1;stroke:none;stroke-width:0.264583" x="392.10852" y="-312.17267" id="text155091"><tspan sodipodi:role="line" id="tspan155089" style="stroke-width:0.264583" x="392.10852" y="-312.17267"></tspan></text><path style="fill:url(#linearGradient1413);fill-opacity:1;stroke:none;stroke-width:0.264583px;stroke-linecap:butt;stroke-linejoin:miter;stroke-opacity:1" d="M 0,285.75 507.99999,0 H 0 Z" id="path1012"></path><path style="opacity:0.377674;mix-blend-mode:normal;fill:#000000;fill-opacity:1;stroke:none;stroke-width:0.275607px;stroke-linecap:butt;stroke-linejoin:miter;stroke-opacity:1;filter:url(#filter10346)" d="M -12.174183,291.70312 H 516.99249 V -5.953125 c 0,0 -69.03212,15.633858 -99.21875,33.072918 -22.2326,12.84395 -34.20005,40.57915 -57.60507,51.13663 -25.96221,11.71098 -59.62297,-2.93203 -84.8138,10.35726 -24.135,12.732267 -30.81449,47.187037 -54.06708,61.467317 -17.12301,10.5159 -40.64318,5.58927 -58.37687,15.039 -17.09462,9.10919 -26.10901,29.92628 -43.41639,38.62443 -17.38283,8.73607 -40.365955,2.00518 -57.149484,11.84362 -14.080178,8.25374 -18.814604,27.48758 -32.090974,36.9804 -5.646294,4.03719 -13.812229,3.57281 -19.296026,7.82811 -10.25094381,7.95448 -23.132229,31.30656 -23.132229,31.30656 z" id="path5684" sodipodi:nodetypes="cccaaaaaaaaac"></path><path style="fill:url(#linearGradient4612);fill-opacity:1;stroke:none;stroke-width:0.264743px;stroke-linecap:butt;stroke-linejoin:miter;stroke-opacity:1" d="M 2.3595991e-6,286.09593 H 507.99999 V 0 c 0,0 -66.27084,15.02668 -95.25,31.788439 -21.34329,12.345127 -32.83205,39.003141 -55.30086,49.150601 -24.92373,11.25615 -57.23805,-2.818158 -81.42125,9.954997 -23.1696,12.237783 -28.89861,46.536303 -51.90439,59.080073 -17.85625,9.73602 -42.33683,-0.47411 -60.3305,9.00492 -17.01331,8.96259 -22.84166,32.32657 -39.3158,42.24762 -19.32444,11.63758 -46.572516,5.04375 -65.338375,17.56419 C 46.707301,227.08505 42.477933,243.89868 31.75,254.3075 24.227112,261.6066 12.972277,264.6733 6.2835481,272.7455 3.146279,276.53168 2.3595991e-6,286.09593 2.3595991e-6,286.09593 Z" id="path1014" sodipodi:nodetypes="cccaaaaaaaaac"></path><rect style="fill:none;stroke-width:0.264583" id="rect2178" width="508" height="286.09595" x="0" y="0" inkscape:export-filename="/home/faris/Downloads/Telegram Desktop/rect2178.png" inkscape:export-xdpi="96" inkscape:export-ydpi="96"></rect><rect style="fill:none;stroke-width:0.264583" id="rect1166" width="508" height="286.09595" x="0" y="0"></rect></g></svg>