<svg fill="none" height="28" viewBox="0 0 168 28" width="168" xmlns="http://www.w3.org/2000/svg"><g clip-rule="evenodd" fill-rule="evenodd"><path d="m106.727 5h1.732c.035 0 .07.03604.106.10811v15.06309c0 .072-.036.1081-.106.1081h-1.732c-.07 0-.106-.0361-.106-.1081v-15.06309c0-.07207.036-.10811.106-.10811zm33.284 4.68468h1.943c.036 0 .106.07208.106.10811v1.76581c0 .072-.035.1081-.106.1081h-1.943c-.035 0-.071.036-.071.072v8.4325c0 .072-.035.1081-.106.1081h-1.731c-.071 0-.106-.0361-.106-.1081v-8.4325c0-.036-.035-.072-.071-.072h-1.908c-.07 0-.106-.0361-.106-.1081v-1.76581c0-.07207.036-.10811.106-.10811h1.908c.036 0 .071-.03603.071-.07207v-4.5045c0-.07207.035-.10811.106-.10811h1.731c.071 0 .106.03604.106.10811v4.5045c0 .03604.036.07207.071.07207zm5.512-3.38738h-1.731c-.071 0-.106.03604-.106.10811v1.76577c0 .07207.035.1081.106.1081h1.731c.071 0 .106-.03603.106-.1081v-1.76577c0-.07207-.035-.10811-.106-.10811zm14.204 11.027c.636.7208 1.519 1.1532 2.544 1.1532 1.307 0 2.438-.7568 3.074-1.8378 0-.0721.07-.0721.106-.0721l1.731.3243c.071 0 .106.0721.071.1441-.813 1.982-2.721 3.3874-4.947 3.3874-3.074 0-5.512-2.5946-5.371-5.7297.106-2.8108 2.403-5.08107 5.159-5.18918 2.615-.10811 4.841 1.72968 5.406 4.21618 0 .0361 0 .0721-.071.1081l-1.731.7568-5.936 2.5586c-.071.036-.071.1081-.035.1801zm5.088-4.6486c-.601-.7207-1.52-1.1892-2.544-1.1892-1.908 0-3.463 1.5495-3.428 3.5315v.2883c0 .0361.071.1081.142.0721.07-.036 5.794-2.5225 5.794-2.5225.071-.0361.071-.1081.036-.1802zm-8.127-2.99101h-1.696c-.035 0-.071.03604-.106.07207l-2.756 8.25224c-.071.1802-.283.1802-.353 0l-2.756-8.25224c0-.03603-.036-.07207-.106-.07207h-1.696c-.071 0-.106.07207-.106.14415l3.498 10.37836c0 .0361.035.0721.106.0721h2.402c.036 0 .071-.036.106-.0721l3.498-10.37836c.071-.07208.036-.14415-.035-.14415zm-12.896 0h1.731c.071 0 .106.07207.106.10811v10.3784c0 .0721-.035.1081-.106.1081h-1.731c-.071 0-.106-.036-.106-.1081v-10.3784c0-.07207.035-.10811.106-.10811zm-13.18 8.79281c-2.12 0-3.78-1.946-3.392-4.1802.212-1.2252 1.414-2.4865 2.615-2.7387 1.307-.2883 2.544.1801 3.321 1.081.036.0361.106.0361.142 0l1.236-1.2612c.036-.0361.036-.1081 0-.1442-1.024-1.1531-2.544-1.83781-4.204-1.76573-2.721.14414-4.982 2.41443-5.124 5.18923-.141 3.1351 2.297 5.7297 5.371 5.7297 1.555 0 2.968-.6847 3.957-1.7658.036-.036.036-.0721 0-.1081l-1.236-1.2612c-.036-.0361-.106-.0361-.142 0-.6.7927-1.519 1.2252-2.544 1.2252zm-18.373-13.4775h-1.731c-.071 0-.106.03604-.106.10811v15.06309c0 .072.035.1081.106.1081h1.731c.071 0 .106-.0361.106-.1081v-15.06309c0-.07207-.07-.10811-.106-.10811zm-25.5103 9.2973c-.3886 2.2342 1.272 4.1802 3.392 4.1802 1.0247 0 1.9433-.4325 2.544-1.2252.0353-.0361.106-.0361.1413 0l1.2367 1.2612c.0353.036.0353.0721 0 .1081-.9894 1.0811-2.4027 1.7658-3.9573 1.7658-3.074 0-5.512-2.5946-5.3707-5.7297.1414-2.7748 2.4027-5.04509 5.1233-5.18923 1.6607-.07208 3.18.61263 4.2047 1.76573.0353.0361.0353.1081 0 .1442l-1.2367 1.2612c-.0353.0361-.106.0361-.1413 0-.7774-.9009-2.014-1.3693-3.3213-1.081-1.2014.2522-2.4027 1.5135-2.6147 2.7387zm-12.0904-4.7928c-1.1307 0-2.438.7207-3.0386 1.5856-.0354.0721-.1767.036-.1767-.036v-1.26131c0-.03604-.0353-.10811-.106-.10811h-1.7313c-.0354 0-.106.03604-.106.10811v5.22521 5.1892c0 .036.0353.1081.106.1081h1.7313c.0353 0 .106-.036.106-.1081v-5.1892c0-1.982 1.3073-3.3874 3.18-3.3874 2.4733 0 3.2153 1.6577 3.2153 3.6036v4.973c0 .036.0353.1081.106.1081h1.7313c.0353 0 .106-.036.106-.1081v-4.973c.0353-3.027-1.378-5.7297-5.1233-5.7297zm-13.9565 7.8198c.636.7207 1.5193 1.1532 2.5439 1.1532 1.3074 0 2.438-.7568 3.074-1.8379 0-.072.0707-.072.106-.072l1.7313.3243c.0707 0 .106.0721.0707.1441-.8127 1.982-2.7206 3.3874-4.9466 3.3874-3.074 0-5.512-2.5946-5.3706-5.7297.106-2.8108 2.4026-5.08109 5.1586-5.1892 2.6146-.10811 4.8406 1.7297 5.4059 4.2162 0 .0361 0 .0721-.0706.1081l-1.7314.7568-5.9359 2.5585c-.0707.0361-.0707.1081-.0353.1802zm58.3762 1.1532c-1.024 0-1.908-.4325-2.544-1.1532-.035-.0721-.035-.1441.036-.1802l5.936-2.5585 1.731-.7568c.071-.036.071-.072.071-.1081-.566-2.4865-2.792-4.32431-5.406-4.2162-2.756.10811-5.053 2.3784-5.159 5.1892-.141 3.1351 2.297 5.7297 5.371 5.7297 2.226 0 4.134-1.4054 4.946-3.3874.036-.072 0-.1441-.07-.1441l-1.732-.3243c-.035 0-.106 0-.106.072-.636 1.0811-1.802 1.8379-3.074 1.8379zm0-6.991c1.025 0 1.944.4684 2.544 1.1892.036.072.036.1441-.035.1801 0 0-5.724 2.4865-5.795 2.5226-.07.036-.141-.0361-.141-.0721v-.2883c-.035-1.982 1.519-3.5315 3.427-3.5315zm-24.45 3.4955c0-3.027 2.4026-5.4775 5.3706-5.4775 2.9684 0 5.3704 2.4505 5.3704 5.4775s-2.402 5.4775-5.3704 5.4775c-2.968 0-5.3706-2.4505-5.3706-5.4775zm5.3706-3.4955c1.9084 0 3.4274 1.5856 3.4274 3.4955s-1.555 3.4955-3.4274 3.4955c-1.8727 0-3.4273-1.5856-3.4273-3.4955s1.5193-3.4955 3.4273-3.4955zm-36.7529 0c1.0247 0 1.9434.4684 2.544 1.1892.0354.072.0354.1441-.0353.1801 0 0-5.724 2.4865-5.7946 2.5226-.0707.036-.1414-.0361-.1414-.0721v-.2883c0-1.982 1.5547-3.5315 3.4273-3.5315zm-14.8752-.6126c.742-.90093 1.802-1.44147 3.1447-1.47751 2.5793-.03603 4.9113 1.83781 5.3353 4.46851.636 3.4594-1.9787 6.4864-5.2647 6.4864-1.4133 0-2.5086-.5765-3.2506-1.4774-.0707-.0721-.1767-.0361-.1767.072v5.946c0 .0721-.0353.1081-.106.1081h-1.6959c-.0707 0-.106-.036-.106-.1081v-15.09911c0-.07207.0353-.10811.106-.10811h1.7313c.0706 0 .106.03604.106.10811v1.00901c0 .1081.106.1441.1766.0721zm-.1413 3.4234c-.3887 2.3784 1.6253 4.4324 3.9573 4.036 1.4133-.2522 2.5793-1.4054 2.7913-2.8468.3887-2.3784-1.6253-4.4325-3.9573-4.0361-1.4133.2163-2.544 1.4054-2.7913 2.8469zm-8.3386-4.7928c-2.968 0-5.3706 2.4505-5.3706 5.4775s2.4026 5.4775 5.3706 5.4775 5.3706-2.4505 5.3706-5.4775-2.4026-5.4775-5.3706-5.4775zm0 1.982c1.908 0 3.4273 1.5856 3.4273 3.4955s-1.5546 3.4955-3.4273 3.4955c-1.8726 0-3.4273-1.5856-3.4273-3.4955s1.5547-3.4955 3.4273-3.4955z" fill="#4b4e52"/><path d="m26.009 6.02649c1.5706 2.26283 2.491 5.01051 2.491 7.97351s-.9204 5.711-2.491 7.9735l-3.6264-3.6264c.7122-1.2886 1.1175-2.7707 1.1175-4.3471s-.4053-3.0582-1.1175-4.34676z" fill="#99cfff"/><path d="m22.4735 2.49111-3.6267 3.62647c-1.2886-.71219-2.7704-1.11756-4.3468-1.11756-4.9705 0-9.0001 4.0296-9.0001 9.00008 0 4.9705 4.0296 9.0001 9.0001 9.0001 1.5764 0 3.0582-.4053 4.3468-1.1175l3.6267 3.6264c-2.2628 1.5705-5.0105 2.491-7.9735 2.491-7.73192 0-14-6.2681-14-14 0-7.73191 6.26808-13.99997793 14-13.99997793 2.963 0 5.7107.92047393 7.9735 2.49098793z" fill="#1f87ff"/></g></svg>