<svg height="333.3689mm" viewBox="0 0 333.36893 333.3689" width="333.36893mm" xmlns="http://www.w3.org/2000/svg"><g stroke-linejoin="bevel" transform="translate(0 -.000015)"><path d="m166.68447.00001526c-3.52434 0-7.04775 1.35088024-9.74829 4.05140754l-152.885375 152.8838072c-5.4010733 5.40105-5.4010733 14.09797 0 19.49903l152.885375 152.8838c5.40106 5.40105 14.09676 5.40105 19.49783 0l152.88412-152.8838c5.40106-5.40106 5.40106-14.09798 0-19.49903l-152.88412-152.8838072c-2.70052-2.7005273-6.22521-4.05140754-9.74954-4.05140754z" stroke-width="10.6446"/><path d="m166.68447.00001526c-3.52434 0-7.04775 1.35088024-9.74829 4.05140754l-152.885375 152.8838072c-5.4010733 5.40105-5.4010733 14.09797 0 19.49903l152.885375 152.8838c5.40106 5.40105 14.09676 5.40105 19.49783 0l152.88412-152.8838c5.40106-5.40106 5.40106-14.09798 0-19.49903l-152.88412-152.8838072c-2.70052-2.7005273-6.22521-4.05140754-9.74954-4.05140754zm0 10.71994374c3.2977 0 6.5954 1.263101 9.12228 3.78996l143.05287 143.052551c5.05373 5.05374 5.05373 13.1908 0 18.24454l-143.05287 143.05256c-5.05375 5.05374-13.19085 5.05374-18.24457 0l-143.052855-143.05256c-5.0537517-5.05374-5.0537517-13.1908 0-18.24454l143.052855-143.052551c2.52687-2.526859 5.82459-3.78996 9.12229-3.78996z" fill="#fbc118" stroke-width="10.6446"/><rect fill="#fbc117" height="211.97903" ry="11.988618" stroke-width="9.25578" transform="matrix(.70710753 -.70710617 .70710753 .70710617 0 0)" width="211.97903" x="-105.98952" y="129.73819"/><path d="m184.9484 150.31257c-47.94368 20.63825-46.95176 86.74351-46.95176 86.74351l-33.49195.00002s-.43631-96.71487 73.1579-116.43438c-6.91258-13.8541-10.36137-19.42664-5.93301-21.619621 5.93589-2.939527 68.02199 11.715951 70.34687 20.392521 2.28516 8.52832-46.82723 53.14308-53.65602 53.14308-5.85198 0-4.22909-7.02227-3.47216-22.22513z" stroke-width="11.7733"/></g></svg>