<svg fill="none" height="32" viewBox="0 0 32 32" width="32" xmlns="http://www.w3.org/2000/svg" xmlns:xlink="http://www.w3.org/1999/xlink"><filter id="a" color-interpolation-filters="sRGB" filterUnits="userSpaceOnUse" height="21.75" width="22.5" x="4.75" y="5.5"><feGaussianBlur stdDeviation=".625"/><feGaussianBlur stdDeviation=".25"/><feGaussianBlur stdDeviation=".5"/></filter><radialGradient id="b" cx="0" cy="0" gradientTransform="matrix(0 14 -14 0 16 0)" gradientUnits="userSpaceOnUse" r="1"><stop offset="0" stop-color="#ff7184"/><stop offset="1" stop-color="#ec3750"/></radialGradient><radialGradient id="c" cx="0" cy="0" gradientTransform="matrix(0 16 -16 0 16 0)" gradientUnits="userSpaceOnUse" r="1"><stop offset="0" stop-color="#ffe4e8"/><stop offset="1" stop-color="#fec2ca"/></radialGradient><mask id="d" height="32" maskUnits="userSpaceOnUse" width="32" x="0" y="0"><path clip-rule="evenodd" d="m16 32c12.8 0 16-3.2 16-16s-3.2-16-16-16-16 3.2-16 16 3.2 16 16 16z" fill="#000" fill-rule="evenodd"/></mask><g mask="url(#d)"><path d="m0 0h32v32h-32z" fill="url(#b)"/><path d="m31.125 16c0 6.4063-.822 10.0595-2.9437 12.1813-2.1218 2.1217-5.775 2.9437-12.1813 2.9437-6.40625 0-10.05954-.822-12.18128-2.9437-2.12175-2.1218-2.94372-5.775-2.94372-12.1813 0-6.40625.82197-10.05954 2.94372-12.18128 2.12174-2.12175 5.77503-2.94372 12.18128-2.94372 6.4063 0 10.0595.82197 12.1813 2.94372 2.1217 2.12174 2.9437 5.77503 2.9437 12.18128z" stroke="url(#c)" stroke-width="1.75"/><g filter="url(#a)"><path clip-rule="evenodd" d="m16.0003 8.018c-.041.014-.104.038-.194.078-.239.103-.5231.251-.888.46-.7421.424-1.671 1.023-2.716 1.761-1.2069.8513-1.7538 1.2799-2.43535 1.8141h-.00002-.00001c-.50491.3958-1.08376.8495-2.05967 1.5759-.39.391-1.024.391-1.414 0-.391-.39-.391-1.024 0-1.414 2.20725-1.793 2.606-2.092 4.75505-3.61 1.08-.762 2.089-1.413 2.878-1.864.401-.229.78-.425 1.077-.555.262-.115.639-.264.997-.264s.735.149.997.264c.297.13.676.326 1.077.555.7889.451 1.798 1.102 2.878 1.864 2.1489 1.518 2.5477 1.817 4.755 3.61.391.39.391 1.024 0 1.414-.39.391-1.024.391-1.4141 0-.9759-.7264-1.5547-1.1801-2.0596-1.5759-.6816-.5342-1.2285-.9628-2.4353-1.8141-1.045-.738-1.974-1.337-2.716-1.761-.365-.209-.649-.357-.888-.46-.09-.04-.153-.064-.194-.078zm-9.0003 15.982c0-.552.448-1 1-1h16c.552 0 1 .448 1 1s-.448 1-1 1h-16c-.552 0-1-.448-1-1zm8-3c0 .552.448 1 1 1s1-.448 1-1v-7c0-.552-.448-1-1-1s-1 .448-1 1zm6 1c-.552 0-1-.448-1-1v-7c0-.552.448-1 1-1s1 .448 1 1v7c0 .552-.448 1-1 1zm-11-1c0 .552.448 1 1 1s1-.448 1-1v-7c0-.552-.448-1-1-1s-1 .448-1 1z" fill="#fff" fill-rule="evenodd"/></g></g></svg>