<svg height="38.709602mm" viewBox="0 0 225.86871 38.709602" width="225.86871mm" xmlns="http://www.w3.org/2000/svg"><g fill="#fff" stroke-width=".264583" transform="translate(-29.72247 -93.661178)"><path d="m56.494069 102.70358q-1.1684-1.2192-3.047999-2.032-1.8796-.812802-4.4196-.812802-3.1496 0-5.08 1.320802-1.9304 1.27-1.9304 3.4544 0 2.3368 3.7084 3.6068l7.6708 2.6416q3.962399 1.3208 5.841999 3.4036 1.8796 2.0828 1.8796 5.1308 0 4.064-2.1844 7.0104-2.1844 2.8956-5.943599 4.4196-3.7592 1.524-8.4836 1.524-5.334 0-9.0424-1.778-3.7084-1.8288-5.5372-5.1308-.2032-.3556-.2032-.7112 0-.3556.4064-.6096l4.0132-2.4384q.3556-.254.762-.254.6096 0 1.1176.6604 1.3208 1.6256 2.3876 2.54 1.1176.8636 2.6924 1.3208 1.6256.4572 4.1656.4572 3.2004 0 5.1816-1.1684 1.9812-1.2192 1.9812-3.7592 0-1.27-.9144-2.0828-.9144-.8636-2.9464-1.5748l-7.4168-2.4892q-3.6576-1.2192-5.588-3.556-1.8796-2.3876-1.8796-5.4356 0-3.7592 2.1336-6.654802 2.1336-2.8956 5.6896-4.4704 3.6068-1.5748 7.874-1.5748 4.3688 0 7.670799 1.5748 3.3528 1.524 5.1816 3.9624.4064.508.4064.762 0 .254002-.3556.457202l-4.5212 2.9972q-.0508.0508-.2032.0508-.3048 0-1.0668-.762z"/><path d="m77.003775 132.37078q-3.6068 0-6.4008-1.4732-2.794-1.4732-4.318-4.1148-1.524-2.6924-1.524-6.1976 0-4.1656 1.9812-7.874 2.032-3.7592 5.5372-5.9944 3.556-2.286 7.9248-2.286 5.334 0 8.4836 3.1496 3.1496 3.1496 3.1496 8.6868 0 1.4732-.2032 2.8448-.1016.4064-.3556.6096-.2032.1524-.8128.1524h-17.1196q-.8128 0-.8128 2.1844 0 2.3876 1.524 3.7084 1.5748 1.27 4.064 1.27 1.9304 0 3.6068-.8128 1.6764-.8128 3.302-2.54.254-.254.508-.254.1524 0 .6604.2032l3.3528 1.5748q.6096.2032.6096.6604 0 .254-.254.6604-2.9464 3.302-5.8928 4.572-2.8956 1.27-7.0104 1.27zm6.4516-16.5608q1.2192 0 1.2192-1.9812 0-1.9304-1.1684-3.2512-1.1684-1.3716-3.2512-1.3716-2.54 0-4.5212 1.9304-1.9304 1.8796-2.2352 4.6736z"/><path d="m109.411 129.37358q-3.048 2.9972-8.3312 2.9972-3.555996 0-5.587996-1.8288-2.032-1.8288-2.032-4.7752 0-3.6068 2.3876-5.8928 2.3876-2.3368 5.994396-3.3528 3.6576-1.0668 7.5692-1.1684l1.8288-.1524q.9652 0 1.1176-.9652l.1524-1.0668q.0508-.254.0508-.8128 0-3.048-3.5052-3.048-4.0132 0-5.9436 3.1496-.254.3556-.6604.3556-.3048 0-.4572-.0508l-4.927596-1.1684q-.508-.1016-.508-.6604 0-.508.254-1.016 3.352796-5.4864 12.649196-5.4864 5.4864 0 8.0264 1.9304 2.5908 1.9304 2.5908 5.334 0 .4572-.1016 1.4732l-2.54 17.78q-.0508.6604-.2032.8128-.1524.1016-.7112.1016h-5.2324q-.508 0-.6604-.3048-.1524-.3048-.2032-1.016l.0508-1.3208q0-.4064-.254-.4064-.254 0-.8128.5588zm2.1844-9.7536v-.3048q0-.2032-.1016-.254-.1016-.1016-.4064-.0508l-1.8288.1524q-2.9464.2032-5.4864 1.4732-2.54 1.27-2.54 3.9116 0 1.2192.8636 1.9812.9144.7112 2.4384.7112 1.3208 0 2.4892-.3556 1.1684-.4064 2.032-1.0668 1.8796-1.4224 2.0828-2.8956z"/><path d="m123.8636 131.86278q-.6096 0-.9144-.3556-.254-.3556-.1524-.9144l3.5052-24.9428q.0508-.4572.1524-.5588.1524-.1524.5588-.1524h6.0452q.9144 0 .7112 1.0668l-.3556 2.286v.2032q0 .3556.2032.3556.1524 0 .4572-.3048 1.778-1.8796 3.9624-2.9972 2.1844-1.1176 3.9624-1.1176 1.0668 0 1.5748.1524.508.1524.4572.6096l-.8128 5.6896q-.0508.5588-.2032.7112-.1016.1524-.4064.1016-1.7272-.254-3.4544-.254-1.3208 0-2.794.7112-1.4732.6604-2.54 1.778-1.016 1.0668-1.1684 2.1336l-2.0828 14.8336q-.1016.6604-.3556.8128-.2032.1524-.9652.1524z"/><path d="m176.48129 130.08478q.4572.8128.4572 1.2192 0 .3048-.254.4572-.254.1016-.762.1016h-7.0612q-.6096 0-.9652-.1524-.3048-.1524-.508-.6096l-5.6388-11.7348q-.254-.508-.508-.508-.1524 0-.5588.5588l-9.0424 11.8364q-.254.4064-.6096.508-.3048.1016-1.0668.1016h-5.9436q-1.016 0-1.016-.6604 0-.4572.762-1.524l13.0048-16.3068q.5588-.6096.5588-1.0668 0-.3556-.1016-.5588l-8.4836-16.560802q-.1524-.254-.1524-.508 0-.508.762-.508h7.4168q.6604 0 .9144.1524.254.1524.508.6604l4.9276 10.363202q.1524.4064.3556.4064.2032 0 .508-.4064l8.0264-10.566402q.3048-.4064.5588-.508.3048-.1016.9652-.1016h6.5532q.6096 0 .6096.5588 0 .4064-.3048.9144l-12.5984 15.646402q-.508.6604-.508.9144 0 .2032.1524.508z"/><path d="m218.11268 94.169178q.3556 0 .4572.2032.1016.1524.0508.5588l-5.1308 36.372802q-.0508.3556-.254.4572-.1524.1016-.5588.1016h-5.1816q-.6604 0-1.1684-.8128l-13.1064-22.7076q-.1524-.254-.3048-.254-.3048 0-.3556.5588l-3.1496 22.4028q-.1016.508-.3048.6604-.1524.1524-.7112.1524h-5.588q-.8128 0-.7112-1.1176l5.08-35.814002q.1016-.508.2032-.6096.1524-.1524.6604-.1524h6.1468q.508 0 .762.254.3048.2032.5588.7112l11.9888 21.183602q.254.4064.508.4064.4064 0 .4572-.6096l2.9464-21.285202q.0508-.4064.2032-.508.2032-.1524.6604-.1524z"/><path d="m236.43958 132.37078q-4.572 0-7.9248-1.9304-3.3528-1.9304-5.1308-5.4356-1.7272-3.556-1.7272-8.3312 0-6.2992 2.4892-11.5316 2.4892-5.283202 7.0612-8.382002 4.572-3.0988 10.5156-3.0988 4.064 0 7.1628 1.5748 3.1496 1.5748 4.8768 4.1656 1.7272 2.540002 1.8288 5.435602 0 .508-.1016.762-.0508.2032-.254.254l-6.9596 1.016h-.0508q-.2032 0-.3556-.254-.1016-.254-.254-1.016-.3556-2.54-1.9304-4.1148-1.524-1.574802-4.318-1.574802-3.6068 0-5.9944 2.641602-2.3368 2.6416-3.4544 6.8072-1.1176 4.1148-1.1176 8.5852 0 4.3688 1.6256 6.2992 1.6764 1.8796 4.8768 1.8796 3.0988 0 5.2324-1.7272 2.1336-1.7272 3.1496-4.2164l.3048-1.4224q.1524-.254.1524-.3556 0-.3048-.6096-.3048h-6.2484q-.3048 0-.4064-.1016-.1016-.1524-.0508-.5588l.4572-4.1656q.0508-.5588.508-.5588l14.5288.0508q.6096 0 .762.2032.2032.1524.1016.6604l-2.4892 17.5768q-.0508.6604-.8128.6604h-1.524q-.4572 0-.7112-.1524-.2032-.1524-.3556-.6096l-.8636-3.7084q-.0508-.254-.3556-.254-.3048 0-.6604.4064-1.6764 2.0828-4.3688 3.4544-2.6924 1.3716-6.604 1.3716z"/></g></svg>