<svg height="241.104pt" viewBox="0 0 211.152 241.104" width="211.152pt" xmlns="http://www.w3.org/2000/svg"><text stroke="#000" stroke-linecap="square" stroke-linejoin="bevel" stroke-opacity="0" stroke-width="0" transform="matrix(.80000136 0 0 .80000136 -235.541643 144.682738)"><tspan x="139.88121" y="218.79674"/></text><g fill="#fff" transform="matrix(1.80078222 0 0 1.78397511 -630.630936 -348.99359)"><g><circle cx="408.034" cy="261.77301" r="21.892"/><path d="m22.391 44.784c-12.346 0-22.391-10.045-22.391-22.392s10.045-22.392 22.391-22.392c12.348 0 22.393 10.045 22.393 22.392s-10.045 22.392-22.393 22.392zm0-43.783c-11.795 0-21.391 9.596-21.391 21.392 0 11.795 9.596 21.392 21.391 21.392 11.797 0 21.393-9.597 21.393-21.392 0-11.796-9.596-21.392-21.393-21.392z" transform="translate(385.642 239.381)"/></g><path d="m55.474 83.088c-15.249 0-27.611-12.363-27.611-27.613s12.362-27.612 27.611-27.612c15.252 0 27.614 12.362 27.614 27.612 0 2.474-.33 4.868-.939 7.149l21.005 21.217c4.95-8.301 7.796-18 7.796-28.366 0-30.638-24.836-55.475-55.476-55.475-30.637 0-55.474 24.837-55.474 55.475s24.837 55.474 55.474 55.474c11.486 0 22.156-3.49 31.009-9.468l-20.331-20.534c-3.285 1.377-6.891 2.141-10.678 2.141z" transform="translate(352.559 206.299)"/><g><path d="m1.856 0c-.519 1.352-1.142 2.649-1.856 3.888l19.263 19.225 2.78-2.967z" transform="translate(431.957 271.671)"/><path d="m0 2.221 19.81 19.77 2.779-2.967-19.063-19.024c-1.114.825-2.293 1.567-3.526 2.221z" transform="translate(420.945 283.961)"/><path d="m0 2.77 18.948 18.908 2.779-2.966-18.749-18.712c-.923.996-1.918 1.921-2.978 2.77z" transform="translate(425.297 280.547)"/><path d="m0 3.303 18.769 18.73 2.78-2.966-19.105-19.067c-.734 1.164-1.552 2.267-2.444 3.303z" transform="translate(428.965 276.468)"/></g><path d="m0 0h4.04v4.04h-4.04z" transform="matrix(.7071 .7071 -.7071 .7071 444.387871 303.855354)"/><path d="m0 0h4.04v4.04h-4.04z" transform="matrix(.7072 .707 -.707 .7072 447.877579 307.363987)"/><path d="m0 0h4.04v4.04h-4.04z" transform="matrix(.707 .7072 -.7072 .707 454.943457 314.391375)"/><path d="m0 0h4.04v4.04h-4.04z" transform="matrix(.7071 .7071 -.7071 .7071 448.043317 300.23581)"/><path d="m0 0h4.04v4.04h-4.04z" transform="matrix(.707 .7072 -.7072 .707 454.947707 307.121735)"/><path d="m0 0h4.041v4.04h-4.041z" transform="matrix(.7071 .7071 -.7071 .7071 462.03801 314.231574)"/><path d="m0 0h4.04v4.04h-4.04z" transform="matrix(.707 .7072 -.7072 .707 451.613116 296.685486)"/><path d="m0 0h4.04v4.04h-4.04z" transform="matrix(.7071 .7071 -.7071 .7071 455.190801 293.020241)"/><path d="m0 0h4.04v4.04h-4.04z" transform="matrix(.7071 .7071 -.7071 .7071 455.153634 300.245797)"/><path d="m0 0h4.04v4.04h-4.04z" transform="matrix(.7071 .7071 -.7071 .7071 462.044941 307.136228)"/><path d="m0 0h4.04v4.04h-4.04z" transform="matrix(.707 .7072 -.7072 .707 458.764479 296.573889)"/><path d="m0 0h4.04v4.04h-4.04z" transform="matrix(.7071 .7071 -.7071 .7071 462.236701 300.06618)"/></g></svg>